<?xml version="1.0" encoding="UTF-8" ?>
<!DOCTYPE svg PUBLIC "-//W3C//DTD SVG 1.1//EN" "http://www.w3.org/Graphics/SVG/1.1/DTD/svg11.dtd">
<svg width="1067pt" height="734pt" viewBox="0 0 1067 734" version="1.1" xmlns="http://www.w3.org/2000/svg">
<g id="#002500ff">
<path fill="#002500" opacity="1.00" d=" M 47.44 32.63 C 51.25 32.10 55.11 32.38 58.95 32.33 C 368.30 32.33 677.65 32.33 986.99 32.33 C 997.31 32.39 1007.63 32.22 1017.95 32.41 C 1027.35 32.79 1035.18 41.61 1034.67 50.97 C 1034.64 261.66 1034.70 472.34 1034.64 683.03 C 1034.74 692.77 1025.74 701.21 1016.05 700.67 C 694.37 700.65 372.69 700.68 51.01 700.66 C 41.03 701.12 32.08 692.02 32.66 682.05 C 32.67 471.68 32.67 261.31 32.66 50.95 C 32.23 42.28 38.86 34.00 47.44 32.63 M 43.86 36.61 C 38.88 39.03 35.44 44.32 35.37 49.88 C 35.25 55.92 35.38 61.96 35.33 68.00 C 367.55 68.00 699.78 68.00 1032.00 68.00 C 1031.95 61.99 1032.08 55.97 1031.97 49.96 C 1031.96 42.89 1026.36 36.39 1019.40 35.26 C 1015.93 34.78 1012.43 35.06 1008.95 35.00 C 691.97 35.00 374.98 35.00 58.00 35.00 C 53.28 35.13 48.21 34.33 43.86 36.61 M 491.34 69.99 L 491.34 70.67 C 339.34 70.66 187.34 70.67 35.34 70.66 C 35.33 274.46 35.34 478.26 35.33 682.05 C 35.10 687.94 38.49 693.79 43.82 696.37 C 47.86 698.54 52.60 697.92 57.02 698.01 C 201.79 697.99 346.57 698.01 491.34 698.00 C 491.35 698.47 491.35 699.41 491.35 699.88 C 492.00 699.92 493.31 699.99 493.97 700.03 C 493.97 699.52 493.98 698.51 493.98 698.00 C 665.98 698.00 837.98 697.99 1009.98 698.00 C 1014.46 697.89 1019.28 698.58 1023.42 696.42 C 1028.79 693.86 1032.26 687.98 1032.00 682.03 C 1031.98 595.10 1032.05 508.17 1031.97 421.24 C 1032.37 420.97 1033.17 420.41 1033.57 420.13 L 1032.00 420.06 C 1031.93 409.09 1032.14 398.11 1031.89 387.14 C 1032.36 386.90 1033.30 386.42 1033.77 386.18 L 1032.00 386.08 C 1031.99 375.02 1032.00 363.97 1032.00 352.91 L 1033.71 352.81 C 1033.25 352.58 1032.35 352.10 1031.89 351.87 C 1032.14 340.88 1031.92 329.90 1032.00 318.91 L 1033.76 318.82 C 1033.29 318.58 1032.36 318.11 1031.89 317.87 C 1032.07 306.96 1032.07 296.04 1031.89 285.13 C 1032.36 284.89 1033.28 284.42 1033.75 284.18 L 1032.00 284.09 C 1031.99 273.36 1032.00 262.63 1032.00 251.91 L 1033.74 251.81 C 1033.30 251.56 1032.40 251.05 1031.95 250.79 C 1031.99 239.99 1032.12 229.18 1031.88 218.38 L 1033.39 218.02 L 1031.88 217.60 C 1032.10 206.54 1032.04 195.47 1031.91 184.42 L 1033.57 184.03 L 1031.91 183.61 C 1032.12 172.38 1031.94 161.14 1032.00 149.91 L 1033.64 149.82 C 1033.20 149.59 1032.32 149.12 1031.88 148.88 C 1032.16 138.49 1031.91 128.08 1032.02 117.68 C 1032.39 116.80 1032.75 115.90 1033.11 115.01 L 1032.00 115.00 C 1032.00 100.22 1032.00 85.45 1032.00 70.67 C 852.66 70.67 673.33 70.66 493.99 70.67 L 493.99 69.90 C 493.33 69.92 492.00 69.96 491.34 69.99 Z" />
</g>
<g id="#edededff">
<path fill="#ededed" opacity="1.00" d=" M 43.86 36.61 C 48.21 34.33 53.28 35.13 58.00 35.00 C 374.98 35.00 691.97 35.00 1008.95 35.00 C 1012.43 35.06 1015.93 34.78 1019.40 35.26 C 1026.36 36.39 1031.96 42.89 1031.97 49.96 C 1032.08 55.97 1031.95 61.99 1032.00 68.00 C 699.78 68.00 367.55 68.00 35.33 68.00 C 35.38 61.96 35.25 55.92 35.37 49.88 C 35.44 44.32 38.88 39.03 43.86 36.61 M 493.64 40.35 C 493.66 42.22 493.69 44.08 493.77 45.95 C 491.75 44.59 488.74 43.99 486.92 45.99 C 484.24 49.06 484.15 54.65 487.55 57.23 C 489.49 58.77 491.92 57.79 493.61 56.40 C 494.04 57.20 494.70 57.75 495.58 58.05 C 495.75 52.14 495.63 46.22 495.66 40.31 C 495.15 40.32 494.14 40.34 493.64 40.35 M 526.57 40.66 C 526.56 41.24 526.55 42.41 526.54 42.99 C 527.02 42.99 527.98 42.99 528.46 42.99 C 528.45 42.41 528.44 41.25 528.43 40.66 C 527.97 40.66 527.04 40.66 526.57 40.66 M 78.54 43.80 C 72.57 44.62 69.81 52.78 74.08 57.05 C 77.90 61.67 86.24 59.76 87.68 53.94 C 89.56 48.49 84.13 42.51 78.54 43.80 M 52.38 44.53 C 47.29 46.85 46.49 54.59 50.99 57.91 C 55.36 61.77 63.06 58.88 63.87 53.13 C 65.36 46.93 57.93 41.35 52.38 44.53 M 100.46 44.48 C 95.31 46.76 94.46 54.56 98.99 57.91 C 103.39 61.80 111.13 58.84 111.88 53.04 C 113.28 46.90 105.98 41.41 100.46 44.48 M 556.98 57.98 C 560.26 58.56 562.32 55.60 562.85 52.76 C 560.26 52.55 560.19 55.85 558.09 56.41 C 553.27 56.41 553.27 48.24 556.85 46.36 C 559.13 45.57 560.12 47.68 561.04 49.31 C 561.49 49.31 562.37 49.29 562.82 49.28 C 562.30 46.89 560.73 44.48 557.97 44.64 C 550.99 44.59 550.23 56.96 556.98 57.98 M 471.91 49.22 C 474.27 49.32 474.60 45.93 477.00 46.30 C 478.95 46.01 480.17 47.84 479.74 49.62 C 477.69 50.52 475.35 50.35 473.30 51.24 C 470.68 52.58 471.17 57.00 474.01 57.78 C 475.95 58.52 477.86 57.39 479.55 56.52 C 480.44 57.77 481.80 58.13 483.31 58.04 C 482.81 57.11 482.24 56.24 481.58 55.43 C 481.40 52.36 482.10 49.08 481.08 46.13 C 478.08 43.20 472.17 44.69 471.91 49.22 M 499.43 46.71 C 501.68 46.64 503.92 46.66 506.18 46.67 C 503.72 50.37 500.28 53.47 498.60 57.64 C 502.07 57.68 505.53 57.66 509.00 57.67 C 509.00 57.25 509.00 56.42 509.00 56.00 C 506.52 56.00 504.04 56.00 501.57 56.00 C 504.13 52.38 507.19 49.10 509.29 45.17 C 506.05 44.96 502.81 45.04 499.57 44.89 C 499.54 45.35 499.47 46.26 499.43 46.71 M 513.49 46.48 C 510.36 50.04 511.51 57.61 516.94 58.02 C 519.93 58.38 521.74 55.86 522.89 53.51 C 522.41 53.46 521.47 53.36 520.99 53.31 C 519.99 54.77 519.06 56.77 516.93 56.40 C 514.64 56.22 514.27 53.77 513.74 52.03 C 516.81 51.98 519.88 52.03 522.96 51.95 C 522.62 50.12 522.71 48.05 521.49 46.53 C 519.55 44.12 515.42 44.02 513.49 46.48 M 526.55 45.22 C 526.54 50.18 526.60 55.15 526.51 60.11 C 525.72 60.88 523.79 61.31 524.70 62.74 C 526.12 62.67 528.24 62.49 528.34 60.64 C 528.63 55.51 528.34 50.36 528.45 45.22 C 527.97 45.22 527.03 45.22 526.55 45.22 M 532.48 48.01 C 532.05 52.12 537.29 51.61 539.78 53.18 C 540.99 54.99 538.74 56.70 536.99 56.37 C 534.71 56.62 534.14 54.08 533.04 52.69 C 532.29 53.48 531.95 54.54 532.60 55.53 C 534.47 59.92 542.97 58.28 541.94 53.09 C 540.95 49.93 536.70 50.80 534.54 48.95 C 533.54 46.32 536.62 46.25 538.35 46.38 C 539.36 47.30 540.43 48.15 541.56 48.93 C 542.07 43.64 533.16 43.13 532.48 48.01 M 568.20 45.22 C 563.32 47.80 563.90 57.48 569.99 58.00 C 574.88 58.67 577.10 52.93 575.99 48.98 C 575.45 45.54 571.23 43.59 568.20 45.22 M 579.84 44.78 C 579.86 49.07 579.84 53.36 579.85 57.65 L 581.78 57.69 C 581.90 54.56 581.38 51.35 582.15 48.28 C 582.53 46.53 584.82 45.77 586.27 46.69 C 588.31 50.30 585.05 55.53 588.41 58.51 C 589.30 55.11 588.56 51.55 589.21 48.13 C 589.72 46.27 592.48 45.63 593.72 47.14 C 594.18 50.62 593.87 54.15 593.93 57.66 C 594.44 57.66 595.47 57.67 595.99 57.68 C 595.81 53.97 596.50 50.12 595.50 46.50 C 594.20 43.75 590.75 44.66 588.69 45.93 C 586.82 44.52 584.42 44.30 582.48 45.70 C 581.60 45.37 580.72 45.06 579.84 44.78 M 546.13 55.50 C 546.07 56.05 545.96 57.15 545.90 57.70 C 546.51 57.70 547.72 57.69 548.32 57.69 C 548.32 57.04 548.33 56.38 548.33 55.74 C 547.78 55.68 546.68 55.56 546.13 55.50 Z" />
<path fill="#ededed" opacity="1.00" d=" M 489.43 46.47 C 493.81 45.33 494.64 51.43 493.28 54.33 C 492.60 56.75 488.89 57.15 487.83 54.83 C 486.57 52.21 486.48 47.95 489.43 46.47 Z" />
<path fill="#ededed" opacity="1.00" d=" M 513.69 50.29 C 514.40 48.50 515.36 45.84 517.82 46.33 C 519.95 46.35 520.33 48.75 520.97 50.31 C 518.53 50.33 516.11 50.34 513.69 50.29 Z" />
<path fill="#ededed" opacity="1.00" d=" M 568.35 47.23 C 570.02 45.24 573.71 46.52 573.94 49.12 C 574.36 51.62 574.28 55.65 571.20 56.37 C 566.47 56.84 566.04 50.02 568.35 47.23 Z" />
<path fill="#ededed" opacity="1.00" d=" M 473.63 55.00 C 473.02 51.42 477.74 52.11 479.94 51.41 C 480.78 54.95 475.91 58.41 473.63 55.00 Z" />
<path fill="#ededed" opacity="1.00" d=" M 493.99 70.67 C 673.33 70.66 852.66 70.67 1032.00 70.67 C 1032.00 85.45 1032.00 100.22 1032.00 115.00 C 852.67 114.99 673.33 115.00 494.00 115.00 C 494.00 100.22 494.01 85.45 493.99 70.67 Z" />
<path fill="#ededed" opacity="1.00" d=" M 54.13 95.32 C 192.77 95.32 331.41 95.29 470.05 95.33 C 470.69 113.54 470.12 131.78 470.32 150.00 C 470.22 180.06 470.50 210.11 470.18 240.16 C 441.45 240.53 412.71 240.20 383.97 240.32 C 282.33 240.31 180.68 240.31 79.04 240.32 C 70.72 240.22 62.40 240.52 54.09 240.17 C 53.85 195.12 54.10 150.07 53.97 105.02 C 53.94 101.79 54.02 98.56 54.13 95.32 Z" />
<path fill="#ededed" opacity="1.00" d=" M 385.69 296.75 C 394.62 291.95 404.99 290.08 415.06 291.18 C 430.46 292.70 444.62 300.05 456.93 309.09 C 459.79 311.24 462.92 313.19 465.09 316.09 C 464.78 317.11 464.40 318.11 463.95 319.09 C 458.96 316.20 454.74 312.20 449.89 309.10 C 440.30 302.62 429.59 297.51 418.10 295.62 C 408.92 294.15 399.25 294.94 390.71 298.76 C 378.90 303.99 369.86 313.82 358.03 319.01 C 347.83 323.64 335.69 323.97 325.36 319.56 C 312.72 314.29 303.59 303.11 290.74 298.23 C 279.03 293.72 265.41 295.28 254.74 301.77 C 244.48 307.63 235.86 316.04 225.15 321.15 C 212.05 327.78 196.15 327.89 182.63 322.46 C 169.07 317.04 157.89 307.10 144.30 301.72 C 132.96 297.04 120.17 296.61 108.30 299.37 C 93.89 302.66 80.93 310.37 69.44 319.45 C 65.24 322.68 61.62 326.61 57.17 329.52 C 56.60 329.07 55.45 328.17 54.88 327.71 C 55.99 326.25 57.10 324.79 58.42 323.52 C 72.90 310.53 89.68 299.04 109.03 295.07 C 119.79 292.88 131.17 293.07 141.67 296.49 C 157.18 301.31 169.37 312.77 184.32 318.78 C 195.84 323.37 209.23 323.69 220.69 318.74 C 234.47 312.96 244.75 301.35 258.43 295.40 C 269.52 290.44 282.66 290.39 293.84 295.13 C 305.81 300.09 314.57 310.36 326.38 315.60 C 335.56 319.72 346.41 319.61 355.62 315.66 C 366.63 311.00 375.12 302.17 385.69 296.75 Z" />
<path fill="#ededed" opacity="1.00" d=" M 376.01 359.08 C 386.08 351.63 398.34 346.58 411.05 347.25 C 428.32 347.69 444.22 356.02 457.83 366.09 C 460.50 368.15 463.51 370.00 465.34 372.92 C 464.96 374.04 464.19 374.70 463.05 374.87 C 459.45 372.97 456.57 369.99 453.21 367.72 C 441.34 359.23 427.67 352.38 412.90 351.37 C 403.21 350.65 393.34 352.94 385.05 358.04 C 376.08 363.26 368.40 370.52 358.96 374.95 C 348.24 380.04 335.28 380.44 324.44 375.51 C 312.90 370.34 304.27 360.44 292.69 355.36 C 282.52 350.84 270.50 350.87 260.32 355.32 C 247.98 360.59 238.58 370.67 226.68 376.72 C 215.06 383.01 200.98 384.35 188.31 380.71 C 170.59 375.75 157.24 361.63 139.63 356.43 C 127.03 352.51 113.26 353.54 100.90 357.80 C 88.11 362.22 76.56 369.68 66.30 378.40 C 63.33 381.07 60.36 383.76 57.09 386.07 C 56.42 385.14 55.76 384.23 55.08 383.31 C 66.61 371.65 80.22 361.80 95.42 355.52 C 110.37 349.48 127.53 347.82 142.91 353.23 C 160.73 359.13 174.40 373.95 193.08 377.72 C 205.81 380.49 219.32 377.34 230.05 370.14 C 242.20 362.34 253.15 351.49 267.86 348.77 C 281.37 345.86 295.46 350.40 306.22 358.67 C 316.25 366.09 326.73 375.01 339.94 374.95 C 353.86 375.72 365.42 366.90 376.01 359.08 Z" />
<path fill="#ededed" opacity="1.00" d=" M 263.61 406.57 C 275.27 402.58 288.51 403.87 299.30 409.78 C 310.22 415.55 318.76 425.32 330.62 429.40 C 341.63 433.25 354.12 431.05 363.81 424.81 C 373.06 419.11 381.19 411.50 391.37 407.39 C 403.13 402.41 416.61 402.59 428.69 406.32 C 442.11 410.44 454.28 418.02 464.94 427.04 C 466.90 428.26 466.31 430.05 465.22 431.71 C 460.04 428.69 455.68 424.51 450.60 421.34 C 436.99 412.31 420.63 405.81 404.05 408.06 C 392.58 409.36 382.90 416.23 373.87 422.88 C 363.46 430.98 350.45 437.04 336.96 434.99 C 322.91 433.51 312.60 423.05 301.35 415.67 C 291.41 408.87 278.49 406.41 266.86 409.81 C 252.01 414.01 241.51 426.16 228.05 433.04 C 216.73 439.20 203.09 440.60 190.67 437.31 C 173.01 432.83 159.76 419.01 142.62 413.30 C 130.60 409.07 117.30 409.59 105.19 413.19 C 90.57 417.59 77.52 426.09 66.10 436.07 C 63.34 438.43 60.85 441.49 57.08 442.22 C 56.90 440.49 56.91 438.59 58.43 437.45 C 73.23 423.73 90.68 411.74 110.76 407.64 C 122.42 405.32 134.79 405.85 145.93 410.19 C 160.61 415.56 172.40 426.56 187.05 431.96 C 198.80 436.35 212.29 436.08 223.67 430.69 C 237.89 424.16 248.58 411.57 263.61 406.57 Z" />
<path fill="#ededed" opacity="1.00" d=" M 56.82 492.10 C 108.92 491.92 161.04 491.94 213.14 492.11 C 213.55 514.74 213.19 537.39 213.32 560.03 C 213.20 585.66 213.53 611.29 213.16 636.91 C 161.05 637.07 108.94 637.05 56.83 636.89 C 56.47 612.94 56.80 588.98 56.68 565.03 C 56.78 540.72 56.50 516.40 56.82 492.10 Z" />
<path fill="#ededed" opacity="1.00" d=" M 446.94 497.90 C 453.13 494.63 460.05 492.71 467.08 492.72 C 467.02 493.97 466.94 495.24 466.83 496.50 C 460.78 497.12 454.70 498.35 449.28 501.22 C 436.28 507.88 426.00 519.12 412.11 524.18 C 399.59 528.90 385.26 528.23 373.02 522.92 C 358.17 516.64 345.94 505.08 330.20 500.75 C 315.81 496.66 300.22 498.86 286.65 504.76 C 273.79 510.31 262.34 518.71 252.15 528.25 C 250.78 529.74 248.83 530.29 246.85 530.05 C 247.24 528.29 247.76 526.46 249.25 525.31 C 262.00 513.68 276.45 503.32 293.07 498.08 C 307.55 493.43 323.76 493.22 337.91 499.16 C 351.71 504.60 362.97 514.88 376.87 520.10 C 388.25 524.46 401.34 524.51 412.57 519.64 C 425.22 514.39 434.80 504.06 446.94 497.90 Z" />
<path fill="#ededed" opacity="1.00" d=" M 450.64 552.49 C 455.79 550.24 461.38 549.16 466.99 548.98 C 467.01 550.22 467.00 551.47 466.98 552.72 C 461.75 553.49 456.41 554.24 451.57 556.50 C 437.06 563.02 426.19 575.85 410.92 580.94 C 397.15 585.80 381.56 584.00 368.73 577.27 C 354.01 569.78 340.85 558.23 324.01 555.72 C 301.96 552.09 280.24 561.96 263.14 575.18 C 257.87 578.88 253.75 584.06 248.08 587.20 C 247.28 585.56 246.64 583.63 248.47 582.45 C 262.13 569.60 278.06 558.43 296.35 553.44 C 310.81 549.43 326.75 550.13 340.41 556.59 C 353.52 562.34 364.52 572.12 378.11 576.87 C 389.02 580.79 401.37 580.66 412.09 576.20 C 426.20 570.43 436.58 558.36 450.64 552.49 Z" />
<path fill="#ededed" opacity="1.00" d=" M 452.59 608.56 C 457.19 606.64 462.12 605.76 467.05 605.22 C 466.92 606.57 466.81 607.94 466.70 609.32 C 461.19 610.03 455.66 611.21 450.71 613.82 C 437.70 620.39 427.50 631.67 413.68 636.77 C 401.11 641.59 386.73 640.97 374.43 635.61 C 359.57 629.36 347.34 617.80 331.62 613.45 C 316.34 609.04 299.76 611.78 285.60 618.52 C 276.17 622.90 267.53 628.85 259.56 635.49 C 256.60 637.88 254.09 640.83 250.82 642.82 C 249.54 643.01 248.70 641.80 247.75 641.19 C 252.36 635.64 258.21 631.34 263.86 626.93 C 279.41 615.33 298.20 606.68 317.97 607.32 C 329.56 607.51 340.73 611.57 350.61 617.48 C 362.52 624.36 373.93 633.21 387.89 635.37 C 396.18 636.66 404.85 636.00 412.67 632.84 C 427.36 627.12 438.01 614.47 452.59 608.56 Z" />
</g>
<g id="#000000ff">
<path fill="#000000" opacity="1.00" d=" M 493.64 40.35 C 494.14 40.34 495.15 40.32 495.66 40.31 C 495.63 46.22 495.75 52.14 495.58 58.05 C 494.70 57.75 494.04 57.20 493.61 56.40 C 491.92 57.79 489.49 58.77 487.55 57.23 C 484.15 54.65 484.24 49.06 486.92 45.99 C 488.74 43.99 491.75 44.59 493.77 45.95 C 493.69 44.08 493.66 42.22 493.64 40.35 M 489.43 46.47 C 486.48 47.95 486.57 52.21 487.83 54.83 C 488.89 57.15 492.60 56.75 493.28 54.33 C 494.64 51.43 493.81 45.33 489.43 46.47 Z" />
<path fill="#000000" opacity="1.00" d=" M 526.57 40.66 C 527.04 40.66 527.97 40.66 528.43 40.66 C 528.44 41.25 528.45 42.41 528.46 42.99 C 527.98 42.99 527.02 42.99 526.54 42.99 C 526.55 42.41 526.56 41.24 526.57 40.66 Z" />
<path fill="#000000" opacity="1.00" d=" M 556.98 57.98 C 550.23 56.96 550.99 44.59 557.97 44.64 C 560.73 44.48 562.30 46.89 562.82 49.28 C 562.37 49.29 561.49 49.31 561.04 49.31 C 560.12 47.68 559.13 45.57 556.85 46.36 C 553.27 48.24 553.27 56.41 558.09 56.41 C 560.19 55.85 560.26 52.55 562.85 52.76 C 562.32 55.60 560.26 58.56 556.98 57.98 Z" />
<path fill="#000000" opacity="1.00" d=" M 471.91 49.22 C 472.17 44.69 478.08 43.20 481.08 46.13 C 482.10 49.08 481.40 52.36 481.58 55.43 C 482.24 56.24 482.81 57.11 483.31 58.04 C 481.80 58.13 480.44 57.77 479.55 56.52 C 477.86 57.39 475.95 58.52 474.01 57.78 C 471.17 57.00 470.68 52.58 473.30 51.24 C 475.35 50.35 477.69 50.52 479.74 49.62 C 480.17 47.84 478.95 46.01 477.00 46.30 C 474.60 45.93 474.27 49.32 471.91 49.22 M 473.63 55.00 C 475.91 58.41 480.78 54.95 479.94 51.41 C 477.74 52.11 473.02 51.42 473.63 55.00 Z" />
<path fill="#000000" opacity="1.00" d=" M 499.43 46.71 C 499.47 46.26 499.54 45.35 499.57 44.89 C 502.81 45.04 506.05 44.96 509.29 45.17 C 507.19 49.10 504.13 52.38 501.57 56.00 C 504.04 56.00 506.52 56.00 509.00 56.00 C 509.00 56.42 509.00 57.25 509.00 57.67 C 505.53 57.66 502.07 57.68 498.60 57.64 C 500.28 53.47 503.72 50.37 506.18 46.67 C 503.92 46.66 501.68 46.64 499.43 46.71 Z" />
<path fill="#000000" opacity="1.00" d=" M 513.49 46.48 C 515.42 44.02 519.55 44.12 521.49 46.53 C 522.71 48.05 522.62 50.12 522.96 51.95 C 519.88 52.03 516.81 51.98 513.74 52.03 C 514.27 53.77 514.64 56.22 516.93 56.40 C 519.06 56.77 519.99 54.77 520.99 53.31 C 521.47 53.36 522.41 53.46 522.89 53.51 C 521.74 55.86 519.93 58.38 516.94 58.02 C 511.51 57.61 510.36 50.04 513.49 46.48 M 513.69 50.29 C 516.11 50.34 518.53 50.33 520.97 50.31 C 520.33 48.75 519.95 46.35 517.82 46.33 C 515.36 45.84 514.40 48.50 513.69 50.29 Z" />
<path fill="#000000" opacity="1.00" d=" M 526.55 45.22 C 527.03 45.22 527.97 45.22 528.45 45.22 C 528.34 50.36 528.63 55.51 528.34 60.64 C 528.24 62.49 526.12 62.67 524.70 62.74 C 523.79 61.31 525.72 60.88 526.51 60.11 C 526.60 55.15 526.54 50.18 526.55 45.22 Z" />
<path fill="#000000" opacity="1.00" d=" M 532.48 48.01 C 533.16 43.13 542.07 43.64 541.56 48.93 C 540.43 48.15 539.36 47.30 538.35 46.38 C 536.62 46.25 533.54 46.32 534.54 48.95 C 536.70 50.80 540.95 49.93 541.94 53.09 C 542.97 58.28 534.47 59.92 532.60 55.53 C 531.95 54.54 532.29 53.48 533.04 52.69 C 534.14 54.08 534.71 56.62 536.99 56.37 C 538.74 56.70 540.99 54.99 539.78 53.18 C 537.29 51.61 532.05 52.12 532.48 48.01 Z" />
<path fill="#000000" opacity="1.00" d=" M 568.20 45.22 C 571.23 43.59 575.45 45.54 575.99 48.98 C 577.10 52.93 574.88 58.67 569.99 58.00 C 563.90 57.48 563.32 47.80 568.20 45.22 M 568.35 47.23 C 566.04 50.02 566.47 56.84 571.20 56.37 C 574.28 55.65 574.36 51.62 573.94 49.12 C 573.71 46.52 570.02 45.24 568.35 47.23 Z" />
<path fill="#000000" opacity="1.00" d=" M 579.84 44.78 C 580.72 45.06 581.60 45.37 582.48 45.70 C 584.42 44.30 586.82 44.52 588.69 45.93 C 590.75 44.66 594.20 43.75 595.50 46.50 C 596.50 50.12 595.81 53.97 595.99 57.68 C 595.47 57.67 594.44 57.66 593.93 57.66 C 593.87 54.15 594.18 50.62 593.72 47.14 C 592.48 45.63 589.72 46.27 589.21 48.13 C 588.56 51.55 589.30 55.11 588.41 58.51 C 585.05 55.53 588.31 50.30 586.27 46.69 C 584.82 45.77 582.53 46.53 582.15 48.28 C 581.38 51.35 581.90 54.56 581.78 57.69 L 579.85 57.65 C 579.84 53.36 579.86 49.07 579.84 44.78 Z" />
<path fill="#000000" opacity="1.00" d=" M 546.13 55.50 C 546.68 55.56 547.78 55.68 548.33 55.74 C 548.33 56.38 548.32 57.04 548.32 57.69 C 547.72 57.69 546.51 57.70 545.90 57.70 C 545.96 57.15 546.07 56.05 546.13 55.50 Z" />
</g>
<g id="#161616ff">
<path fill="#161616" opacity="1.00" d=" M 78.54 43.80 C 84.13 42.51 89.56 48.49 87.68 53.94 C 86.24 59.76 77.90 61.67 74.08 57.05 C 69.81 52.78 72.57 44.62 78.54 43.80 M 78.22 45.24 C 73.63 46.32 71.70 52.65 74.99 56.07 C 78.06 59.90 84.87 58.57 86.30 53.88 C 88.25 49.07 83.14 43.62 78.22 45.24 Z" />
<path fill="#161616" opacity="1.00" d=" M 52.38 44.53 C 57.93 41.35 65.36 46.93 63.87 53.13 C 63.06 58.88 55.36 61.77 50.99 57.91 C 46.49 54.59 47.29 46.85 52.38 44.53 M 54.18 45.24 C 49.33 46.40 47.62 53.29 51.45 56.54 C 54.86 60.03 61.45 58.09 62.46 53.32 C 63.89 48.60 58.89 43.67 54.18 45.24 Z" />
<path fill="#161616" opacity="1.00" d=" M 100.46 44.48 C 105.98 41.41 113.28 46.90 111.88 53.04 C 111.13 58.84 103.39 61.80 98.99 57.91 C 94.46 54.56 95.31 46.76 100.46 44.48 M 102.20 45.25 C 97.34 46.37 95.63 53.28 99.43 56.54 C 102.90 60.08 109.66 58.02 110.50 53.11 C 111.76 48.45 106.82 43.71 102.20 45.25 Z" />
<path fill="#161616" opacity="1.00" d=" M 491.34 69.99 C 492.00 69.96 493.33 69.92 493.99 69.90 L 493.99 70.67 C 494.01 85.45 494.00 100.22 494.00 115.00 C 673.33 115.00 852.67 114.99 1032.00 115.00 L 1033.11 115.01 C 1032.75 115.90 1032.39 116.80 1032.02 117.68 C 852.68 117.64 673.34 117.68 494.00 117.67 C 494.00 128.00 494.00 138.33 494.00 148.67 C 669.68 148.66 845.35 148.67 1021.02 148.67 C 1024.63 148.67 1028.27 148.49 1031.88 148.88 C 1032.32 149.12 1033.20 149.59 1033.64 149.82 L 1032.00 149.91 C 852.67 150.12 673.33 149.94 494.00 150.00 C 494.00 161.11 494.00 172.22 494.00 183.33 C 669.66 183.34 845.32 183.33 1020.97 183.34 C 1024.61 183.35 1028.28 183.11 1031.91 183.61 L 1033.57 184.03 L 1031.91 184.42 C 1014.96 185.00 997.96 184.49 980.99 184.67 C 818.66 184.66 656.33 184.67 494.00 184.66 C 494.00 195.55 494.00 206.44 494.00 217.34 C 668.35 217.33 842.70 217.33 1017.04 217.34 C 1021.98 217.46 1026.95 217.02 1031.88 217.60 L 1033.39 218.02 L 1031.88 218.38 C 1027.60 218.95 1023.29 218.59 1019.00 218.66 C 844.00 218.67 669.00 218.66 494.00 218.66 C 494.00 229.33 494.00 240.00 494.00 250.67 C 667.34 250.66 840.68 250.67 1014.02 250.66 C 1019.99 250.76 1025.98 250.47 1031.95 250.79 C 1032.40 251.05 1033.30 251.56 1033.74 251.81 L 1032.00 251.91 C 852.67 252.12 673.33 251.94 494.00 252.00 C 494.00 262.67 494.00 273.33 494.00 284.00 C 673.33 284.06 852.67 283.89 1032.00 284.09 L 1033.75 284.18 C 1033.28 284.42 1032.36 284.89 1031.89 285.13 C 1016.28 285.61 1000.63 285.19 985.01 285.33 C 821.34 285.33 657.67 285.34 494.00 285.33 C 494.00 296.11 494.00 306.89 494.00 317.67 C 663.67 317.66 833.34 317.67 1003.01 317.67 C 1012.63 317.81 1022.28 317.38 1031.89 317.87 C 1032.36 318.11 1033.29 318.58 1033.76 318.82 L 1032.00 318.91 C 852.67 319.11 673.33 318.94 494.00 319.00 C 494.00 329.89 494.00 340.78 494.00 351.67 C 662.34 351.66 830.67 351.67 999.00 351.67 C 1009.96 351.81 1020.94 351.39 1031.89 351.87 C 1032.35 352.10 1033.25 352.58 1033.71 352.81 L 1032.00 352.91 C 852.67 353.12 673.33 352.94 494.00 353.00 C 494.00 364.00 494.00 375.00 494.00 386.00 C 673.33 386.05 852.67 385.89 1032.00 386.08 L 1033.77 386.18 C 1033.30 386.42 1032.36 386.90 1031.89 387.14 C 994.93 387.59 957.94 387.20 920.97 387.33 C 778.64 387.33 636.32 387.34 494.00 387.33 C 494.00 398.22 494.00 409.11 494.00 420.00 C 673.33 420.04 852.67 419.91 1032.00 420.06 L 1033.57 420.13 C 1033.17 420.41 1032.37 420.97 1031.97 421.24 C 852.65 421.46 673.32 421.28 494.00 421.33 C 493.99 513.55 494.02 605.78 493.98 698.00 C 493.98 698.51 493.97 699.52 493.97 700.03 C 493.31 699.99 492.00 699.92 491.35 699.88 C 491.35 699.41 491.35 698.47 491.34 698.00 C 491.32 488.89 491.34 279.78 491.34 70.67 L 491.34 69.99 Z" />
</g>
<g id="#75221bff">
<path fill="#75221b" opacity="1.00" d=" M 54.18 45.24 C 58.89 43.67 63.89 48.60 62.46 53.32 C 61.45 58.09 54.86 60.03 51.45 56.54 C 47.62 53.29 49.33 46.40 54.18 45.24 Z" />
</g>
<g id="#e5a200ff">
<path fill="#e5a200" opacity="1.00" d=" M 78.22 45.24 C 83.14 43.62 88.25 49.07 86.30 53.88 C 84.87 58.57 78.06 59.90 74.99 56.07 C 71.70 52.65 73.63 46.32 78.22 45.24 Z" />
</g>
<g id="#215210ff">
<path fill="#215210" opacity="1.00" d=" M 102.20 45.25 C 106.82 43.71 111.76 48.45 110.50 53.11 C 109.66 58.02 102.90 60.08 99.43 56.54 C 95.63 53.28 97.34 46.37 102.20 45.25 Z" />
</g>
<g id="#ffffffff">
<path fill="#ffffff" opacity="1.00" d=" M 35.33 682.05 C 35.34 478.26 35.33 274.46 35.34 70.66 C 187.34 70.67 339.34 70.66 491.34 70.67 C 491.34 279.78 491.32 488.89 491.34 698.00 C 346.57 698.01 201.79 697.99 57.02 698.01 C 52.60 697.92 47.86 698.54 43.82 696.37 C 38.49 693.79 35.10 687.94 35.33 682.05 M 54.13 95.32 C 54.02 98.56 53.94 101.79 53.97 105.02 C 54.10 150.07 53.85 195.12 54.09 240.17 C 62.40 240.52 70.72 240.22 79.04 240.32 C 180.68 240.31 282.33 240.31 383.97 240.32 C 412.71 240.20 441.45 240.53 470.18 240.16 C 470.50 210.11 470.22 180.06 470.32 150.00 C 470.12 131.78 470.69 113.54 470.05 95.33 C 331.41 95.29 192.77 95.32 54.13 95.32 M 385.69 296.75 C 375.12 302.17 366.63 311.00 355.62 315.66 C 346.41 319.61 335.56 319.72 326.38 315.60 C 314.57 310.36 305.81 300.09 293.84 295.13 C 282.66 290.39 269.52 290.44 258.43 295.40 C 244.75 301.35 234.47 312.96 220.69 318.74 C 209.23 323.69 195.84 323.37 184.32 318.78 C 169.37 312.77 157.18 301.31 141.67 296.49 C 131.17 293.07 119.79 292.88 109.03 295.07 C 89.68 299.04 72.90 310.53 58.42 323.52 C 57.10 324.79 55.99 326.25 54.88 327.71 C 55.45 328.17 56.60 329.07 57.17 329.52 C 61.62 326.61 65.24 322.68 69.44 319.45 C 80.93 310.37 93.89 302.66 108.30 299.37 C 120.17 296.61 132.96 297.04 144.30 301.72 C 157.89 307.10 169.07 317.04 182.63 322.46 C 196.15 327.89 212.05 327.78 225.15 321.15 C 235.86 316.04 244.48 307.63 254.74 301.77 C 265.41 295.28 279.03 293.72 290.74 298.23 C 303.59 303.11 312.72 314.29 325.36 319.56 C 335.69 323.97 347.83 323.64 358.03 319.01 C 369.86 313.82 378.90 303.99 390.71 298.76 C 399.25 294.94 408.92 294.15 418.10 295.62 C 429.59 297.51 440.30 302.62 449.89 309.10 C 454.74 312.20 458.96 316.20 463.95 319.09 C 464.40 318.11 464.78 317.11 465.09 316.09 C 462.92 313.19 459.79 311.24 456.93 309.09 C 444.62 300.05 430.46 292.70 415.06 291.18 C 404.99 290.08 394.62 291.95 385.69 296.75 M 376.01 359.08 C 365.42 366.90 353.86 375.72 339.94 374.95 C 326.73 375.01 316.25 366.09 306.22 358.67 C 295.46 350.40 281.37 345.86 267.86 348.77 C 253.15 351.49 242.20 362.34 230.05 370.14 C 219.32 377.34 205.81 380.49 193.08 377.72 C 174.40 373.95 160.73 359.13 142.91 353.23 C 127.53 347.82 110.37 349.48 95.42 355.52 C 80.22 361.80 66.61 371.65 55.08 383.31 C 55.76 384.23 56.42 385.14 57.09 386.07 C 60.36 383.76 63.33 381.07 66.30 378.40 C 76.56 369.68 88.11 362.22 100.90 357.80 C 113.26 353.54 127.03 352.51 139.63 356.43 C 157.24 361.63 170.59 375.75 188.31 380.71 C 200.98 384.35 215.06 383.01 226.68 376.72 C 238.58 370.67 247.98 360.59 260.32 355.32 C 270.50 350.87 282.52 350.84 292.69 355.36 C 304.27 360.44 312.90 370.34 324.44 375.51 C 335.28 380.44 348.24 380.04 358.96 374.95 C 368.40 370.52 376.08 363.26 385.05 358.04 C 393.34 352.94 403.21 350.65 412.90 351.37 C 427.67 352.38 441.34 359.23 453.21 367.72 C 456.57 369.99 459.45 372.97 463.05 374.87 C 464.19 374.70 464.96 374.04 465.34 372.92 C 463.51 370.00 460.50 368.15 457.83 366.09 C 444.22 356.02 428.32 347.69 411.05 347.25 C 398.34 346.58 386.08 351.63 376.01 359.08 M 263.61 406.57 C 248.58 411.57 237.89 424.16 223.67 430.69 C 212.29 436.08 198.80 436.35 187.05 431.96 C 172.40 426.56 160.61 415.56 145.93 410.19 C 134.79 405.85 122.42 405.32 110.76 407.64 C 90.68 411.74 73.23 423.73 58.43 437.45 C 56.91 438.59 56.90 440.49 57.08 442.22 C 60.85 441.49 63.34 438.43 66.10 436.07 C 77.52 426.09 90.57 417.59 105.19 413.19 C 117.30 409.59 130.60 409.07 142.62 413.30 C 159.76 419.01 173.01 432.83 190.67 437.31 C 203.09 440.60 216.73 439.20 228.05 433.04 C 241.51 426.16 252.01 414.01 266.86 409.81 C 278.49 406.41 291.41 408.87 301.35 415.67 C 312.60 423.05 322.91 433.51 336.96 434.99 C 350.45 437.04 363.46 430.98 373.87 422.88 C 382.90 416.23 392.58 409.36 404.05 408.06 C 420.63 405.81 436.99 412.31 450.60 421.34 C 455.68 424.51 460.04 428.69 465.22 431.71 C 466.31 430.05 466.90 428.26 464.94 427.04 C 454.28 418.02 442.11 410.44 428.69 406.32 C 416.61 402.59 403.13 402.41 391.37 407.39 C 381.19 411.50 373.06 419.11 363.81 424.81 C 354.12 431.05 341.63 433.25 330.62 429.40 C 318.76 425.32 310.22 415.55 299.30 409.78 C 288.51 403.87 275.27 402.58 263.61 406.57 M 56.82 492.10 C 56.50 516.40 56.78 540.72 56.68 565.03 C 56.80 588.98 56.47 612.94 56.83 636.89 C 108.94 637.05 161.05 637.07 213.16 636.91 C 213.53 611.29 213.20 585.66 213.32 560.03 C 213.19 537.39 213.55 514.74 213.14 492.11 C 161.04 491.94 108.92 491.92 56.82 492.10 M 446.94 497.90 C 434.80 504.06 425.22 514.39 412.57 519.64 C 401.34 524.51 388.25 524.46 376.87 520.10 C 362.97 514.88 351.71 504.60 337.91 499.16 C 323.76 493.22 307.55 493.43 293.07 498.08 C 276.45 503.32 262.00 513.68 249.25 525.31 C 247.76 526.46 247.24 528.29 246.85 530.05 C 248.83 530.29 250.78 529.74 252.15 528.25 C 262.34 518.71 273.79 510.31 286.65 504.76 C 300.22 498.86 315.81 496.66 330.20 500.75 C 345.94 505.08 358.17 516.64 373.02 522.92 C 385.26 528.23 399.59 528.90 412.11 524.18 C 426.00 519.12 436.28 507.88 449.28 501.22 C 454.70 498.35 460.78 497.12 466.83 496.50 C 466.94 495.24 467.02 493.97 467.08 492.72 C 460.05 492.71 453.13 494.63 446.94 497.90 M 450.64 552.49 C 436.58 558.36 426.20 570.43 412.09 576.20 C 401.37 580.66 389.02 580.79 378.11 576.87 C 364.52 572.12 353.52 562.34 340.41 556.59 C 326.75 550.13 310.81 549.43 296.35 553.44 C 278.06 558.43 262.13 569.60 248.47 582.45 C 246.64 583.63 247.28 585.56 248.08 587.20 C 253.75 584.06 257.87 578.88 263.14 575.18 C 280.24 561.96 301.96 552.09 324.01 555.72 C 340.85 558.23 354.01 569.78 368.73 577.27 C 381.56 584.00 397.15 585.80 410.92 580.94 C 426.19 575.85 437.06 563.02 451.57 556.50 C 456.41 554.24 461.75 553.49 466.98 552.72 C 467.00 551.47 467.01 550.22 466.99 548.98 C 461.38 549.16 455.79 550.24 450.64 552.49 M 452.59 608.56 C 438.01 614.47 427.36 627.12 412.67 632.84 C 404.85 636.00 396.18 636.66 387.89 635.37 C 373.93 633.21 362.52 624.36 350.61 617.48 C 340.73 611.57 329.56 607.51 317.97 607.32 C 298.20 606.68 279.41 615.33 263.86 626.93 C 258.21 631.34 252.36 635.64 247.75 641.19 C 248.70 641.80 249.54 643.01 250.82 642.82 C 254.09 640.83 256.60 637.88 259.56 635.49 C 267.53 628.85 276.17 622.90 285.60 618.52 C 299.76 611.78 316.34 609.04 331.62 613.45 C 347.34 617.80 359.57 629.36 374.43 635.61 C 386.73 640.97 401.11 641.59 413.68 636.77 C 427.50 631.67 437.70 620.39 450.71 613.82 C 455.66 611.21 461.19 610.03 466.70 609.32 C 466.81 607.94 466.92 606.57 467.05 605.22 C 462.12 605.76 457.19 606.64 452.59 608.56 Z" />
<path fill="#ffffff" opacity="1.00" d=" M 494.00 353.00 C 673.33 352.94 852.67 353.12 1032.00 352.91 C 1032.00 363.97 1031.99 375.02 1032.00 386.08 C 852.67 385.89 673.33 386.05 494.00 386.00 C 494.00 375.00 494.00 364.00 494.00 353.00 Z" />
<path fill="#ffffff" opacity="1.00" d=" M 494.00 387.33 C 636.32 387.34 778.64 387.33 920.97 387.33 C 957.94 387.20 994.93 387.59 1031.89 387.14 C 1032.14 398.11 1031.93 409.09 1032.00 420.06 C 852.67 419.91 673.33 420.04 494.00 420.00 C 494.00 409.11 494.00 398.22 494.00 387.33 Z" />
<path fill="#ffffff" opacity="1.00" d=" M 494.00 421.33 C 673.32 421.28 852.65 421.46 1031.97 421.24 C 1032.05 508.17 1031.98 595.10 1032.00 682.03 C 1032.26 687.98 1028.79 693.86 1023.42 696.42 C 1019.28 698.58 1014.46 697.89 1009.98 698.00 C 837.98 697.99 665.98 698.00 493.98 698.00 C 494.02 605.78 493.99 513.55 494.00 421.33 Z" />
</g>
<g id="#ff6491ff">
<path fill="#ff6491" opacity="1.00" d=" M 494.00 117.67 C 673.34 117.68 852.68 117.64 1032.02 117.68 C 1031.91 128.08 1032.16 138.49 1031.88 148.88 C 1028.27 148.49 1024.63 148.67 1021.02 148.67 C 845.35 148.67 669.68 148.66 494.00 148.67 C 494.00 138.33 494.00 128.00 494.00 117.67 Z" />
<path fill="#ff6491" opacity="1.00" d=" M 494.00 150.00 C 673.33 149.94 852.67 150.12 1032.00 149.91 C 1031.94 161.14 1032.12 172.38 1031.91 183.61 C 1028.28 183.11 1024.61 183.35 1020.97 183.34 C 845.32 183.33 669.66 183.34 494.00 183.33 C 494.00 172.22 494.00 161.11 494.00 150.00 Z" />
</g>
<g id="#fffccfff">
<path fill="#fffccf" opacity="1.00" d=" M 494.00 184.66 C 656.33 184.67 818.66 184.66 980.99 184.67 C 997.96 184.49 1014.96 185.00 1031.91 184.42 C 1032.04 195.47 1032.10 206.54 1031.88 217.60 C 1026.95 217.02 1021.98 217.46 1017.04 217.34 C 842.70 217.33 668.35 217.33 494.00 217.34 C 494.00 206.44 494.00 195.55 494.00 184.66 Z" />
</g>
<g id="#a9d8ffff">
<path fill="#a9d8ff" opacity="1.00" d=" M 494.00 218.66 C 669.00 218.66 844.00 218.67 1019.00 218.66 C 1023.29 218.59 1027.60 218.95 1031.88 218.38 C 1032.12 229.18 1031.99 239.99 1031.95 250.79 C 1025.98 250.47 1019.99 250.76 1014.02 250.66 C 840.68 250.67 667.34 250.66 494.00 250.67 C 494.00 240.00 494.00 229.33 494.00 218.66 Z" />
</g>
<g id="#ffd1d1ff">
<path fill="#ffd1d1" opacity="1.00" d=" M 494.00 252.00 C 673.33 251.94 852.67 252.12 1032.00 251.91 C 1032.00 262.63 1031.99 273.36 1032.00 284.09 C 852.67 283.89 673.33 284.06 494.00 284.00 C 494.00 273.33 494.00 262.67 494.00 252.00 Z" />
</g>
<g id="#c7f0c7ff">
<path fill="#c7f0c7" opacity="1.00" d=" M 494.00 285.33 C 657.67 285.34 821.34 285.33 985.01 285.33 C 1000.63 285.19 1016.28 285.61 1031.89 285.13 C 1032.07 296.04 1032.07 306.96 1031.89 317.87 C 1022.28 317.38 1012.63 317.81 1003.01 317.67 C 833.34 317.67 663.67 317.66 494.00 317.67 C 494.00 306.89 494.00 296.11 494.00 285.33 Z" />
</g>
<g id="#d9dde1ff">
<path fill="#d9dde1" opacity="1.00" d=" M 494.00 319.00 C 673.33 318.94 852.67 319.11 1032.00 318.91 C 1031.92 329.90 1032.14 340.88 1031.89 351.87 C 1020.94 351.39 1009.96 351.81 999.00 351.67 C 830.67 351.67 662.34 351.66 494.00 351.67 C 494.00 340.78 494.00 329.89 494.00 319.00 Z" />
</g>
</svg>
