<?xml version="1.0" encoding="UTF-8" ?>
<!DOCTYPE svg PUBLIC "-//W3C//DTD SVG 1.1//EN" "http://www.w3.org/Graphics/SVG/1.1/DTD/svg11.dtd">
<svg width="841pt" height="639pt" viewBox="0 0 841 639" version="1.1" xmlns="http://www.w3.org/2000/svg">
<g id="#52883dff">
<path fill="#52883d" opacity="1.00" d=" M 630.45 0.66 C 631.37 2.27 632.29 3.88 633.15 5.54 C 633.52 8.64 634.23 11.70 635.35 14.63 C 642.38 35.86 650.04 56.87 656.88 78.17 C 662.30 92.41 666.52 107.07 671.82 121.35 C 671.86 122.01 671.92 123.34 671.96 124.01 C 664.27 120.18 656.84 115.84 649.28 111.76 C 646.35 110.24 642.55 106.15 639.38 109.30 C 631.43 115.97 623.50 122.67 615.21 128.90 C 609.87 121.37 605.83 112.99 600.42 105.51 C 599.51 104.08 597.61 105.06 596.40 105.41 C 593.97 106.35 591.70 107.68 589.72 109.35 C 589.59 109.46 589.34 109.70 589.21 109.81 C 583.47 111.70 578.25 114.82 572.69 117.16 C 591.68 78.20 611.22 39.51 630.45 0.66 Z" />
<path fill="#52883d" opacity="1.00" d=" M 447.76 175.15 C 457.60 155.25 467.25 135.25 477.55 115.58 C 478.30 116.99 479.06 118.41 479.79 119.85 C 481.31 128.40 484.86 136.40 487.38 144.67 C 491.24 154.30 493.89 164.37 497.74 174.00 C 497.91 175.34 498.05 176.68 498.18 178.03 C 492.96 175.89 488.50 172.15 483.14 170.40 C 478.19 173.36 474.35 177.82 469.51 180.94 C 466.63 176.96 465.08 171.73 460.97 168.81 C 459.00 169.16 457.50 170.57 455.92 171.68 C 455.83 171.71 455.64 171.77 455.54 171.80 C 452.86 172.70 450.35 174.04 447.76 175.15 Z" />
<path fill="#52883d" opacity="1.00" d=" M 71.15 379.40 C 79.09 363.43 87.11 347.50 95.04 331.52 C 96.34 333.73 97.56 335.98 98.72 338.27 C 98.49 339.85 98.49 341.47 99.09 342.98 C 105.52 361.86 112.17 380.66 118.40 399.61 C 119.97 404.55 121.71 409.44 123.77 414.21 C 123.85 415.46 123.94 416.72 124.02 417.98 C 118.71 415.42 113.65 412.39 108.53 409.48 C 106.79 408.51 105.08 407.37 103.11 406.96 C 101.20 407.57 99.71 408.99 98.19 410.24 C 93.82 414.15 89.12 417.67 84.67 421.49 C 79.87 416.32 77.72 409.33 72.94 404.13 C 70.63 405.23 68.36 406.42 66.15 407.72 C 65.61 407.98 64.53 408.51 63.98 408.77 C 60.75 410.49 57.42 412.01 54.08 413.49 C 59.37 402.67 64.79 391.92 70.21 381.17 C 70.44 380.73 70.91 379.84 71.15 379.40 Z" />
<path fill="#52883d" opacity="1.00" d=" M 169.36 529.28 C 170.13 528.71 171.20 527.68 172.02 528.83 C 179.05 535.89 183.95 544.67 189.50 552.88 C 195.51 545.02 200.20 536.26 206.03 528.29 C 207.30 528.52 208.58 528.75 209.86 528.99 C 210.61 530.17 211.37 531.36 212.12 532.56 C 213.08 539.98 216.07 546.91 217.90 554.14 C 221.56 566.47 225.12 578.82 228.77 591.16 C 230.19 596.68 232.51 602.01 232.80 607.77 C 229.63 606.16 226.69 604.17 223.83 602.08 C 215.88 596.75 207.84 591.58 199.88 586.27 C 197.15 589.22 193.66 591.37 191.10 594.49 C 188.21 597.70 184.98 600.61 181.79 603.52 C 177.00 606.29 173.90 611.09 169.58 614.49 C 167.39 609.66 164.72 605.05 162.00 600.51 C 158.25 595.23 155.78 589.19 152.26 583.77 C 144.14 589.42 135.42 594.15 127.52 600.11 C 126.14 599.63 124.76 599.13 123.39 598.67 C 131.08 581.25 138.14 563.56 145.87 546.16 C 146.50 545.09 147.16 544.05 147.82 543.01 C 147.95 543.75 148.20 545.22 148.33 545.95 C 155.44 540.53 162.40 534.90 169.36 529.28 Z" />
</g>
<g id="#4a7738ff">
<path fill="#4a7738" opacity="1.00" d=" M 633.15 5.54 C 651.65 39.68 670.20 73.80 688.45 108.07 C 683.21 105.12 678.12 101.91 672.94 98.87 C 673.05 103.77 672.52 108.72 673.31 113.58 C 671.63 115.81 671.97 118.73 671.82 121.35 C 666.52 107.07 662.30 92.41 656.88 78.17 C 650.04 56.87 642.38 35.86 635.35 14.63 C 634.23 11.70 633.52 8.64 633.15 5.54 Z" />
<path fill="#4a7738" opacity="1.00" d=" M 479.79 119.85 C 489.00 136.74 498.23 153.64 507.17 170.67 C 504.43 169.01 501.68 167.35 498.92 165.74 C 498.94 168.65 498.50 171.75 499.92 174.44 C 499.38 174.33 498.29 174.11 497.74 174.00 C 493.89 164.37 491.24 154.30 487.38 144.67 C 484.86 136.40 481.31 128.40 479.79 119.85 Z" />
<path fill="#4a7738" opacity="1.00" d=" M 99.09 342.98 C 98.49 341.47 98.49 339.85 98.72 338.27 C 106.93 353.23 114.87 368.34 123.13 383.28 C 123.64 384.17 124.16 385.07 124.68 385.97 C 128.48 393.00 132.36 399.98 136.04 407.07 C 132.27 404.99 128.62 402.70 124.92 400.51 C 124.91 403.74 125.02 406.97 124.85 410.20 C 124.49 411.53 124.13 412.87 123.77 414.21 C 121.71 409.44 119.97 404.55 118.40 399.61 C 112.17 380.66 105.52 361.86 99.09 342.98 Z" />
</g>
<g id="#000000ff">
<path fill="#000000" opacity="1.00" d=" M 52.87 78.66 C 73.43 73.28 94.74 71.01 115.98 71.07 C 139.50 70.96 163.16 73.60 185.76 80.28 C 198.60 84.24 211.42 89.44 221.81 98.18 C 227.90 103.38 233.07 110.71 232.85 119.04 C 232.85 151.03 232.85 183.02 232.85 215.02 C 232.95 226.69 232.65 238.37 232.97 250.03 C 235.47 251.30 238.36 251.52 241.05 252.24 C 269.72 258.86 298.41 265.43 327.07 272.10 C 366.33 281.08 405.57 290.20 444.83 299.22 C 453.45 301.14 462.00 303.36 470.67 305.03 C 470.76 303.67 470.86 302.31 470.97 300.97 C 470.88 302.37 470.80 303.77 470.73 305.18 C 471.69 305.44 472.66 305.70 473.64 305.96 C 475.90 306.50 478.17 306.97 480.45 307.47 C 481.73 307.75 483.01 308.04 484.31 308.34 C 491.23 309.89 498.13 311.54 505.04 313.14 C 517.40 315.90 529.73 318.81 542.07 321.67 C 543.26 321.96 544.46 322.25 545.68 322.55 C 548.53 323.22 551.39 323.85 554.25 324.48 C 558.17 325.33 562.07 326.29 565.99 327.16 C 583.86 331.29 601.74 335.39 619.61 339.53 C 624.01 340.58 628.41 341.60 632.82 342.64 C 635.67 343.32 638.52 343.96 641.39 344.58 C 641.34 341.72 641.31 338.86 641.08 336.01 C 641.36 338.80 641.44 341.62 641.51 344.43 C 646.80 345.57 653.52 346.97 655.04 353.11 C 655.89 360.64 655.16 368.29 655.39 375.88 C 655.41 460.26 655.43 544.64 655.40 629.02 C 655.82 632.19 653.48 634.46 651.40 636.45 C 651.39 635.87 651.37 634.71 651.36 634.13 C 651.18 595.89 651.25 557.64 651.33 519.40 C 606.23 508.75 561.02 498.55 515.88 488.05 C 483.18 480.59 450.54 472.88 417.82 465.53 C 417.86 505.43 417.98 545.34 417.84 585.23 C 477.00 598.95 536.20 612.47 595.35 626.23 C 596.01 626.84 596.69 627.45 597.40 628.05 C 555.32 617.91 513.06 608.52 470.90 598.71 C 393.50 580.73 316.00 563.16 238.64 545.00 C 239.30 544.88 240.61 544.64 241.27 544.52 C 299.76 558.02 358.24 571.56 416.76 584.95 C 416.64 494.39 416.90 403.81 416.64 313.25 C 350.94 297.80 285.05 283.05 219.37 267.54 C 219.28 344.57 219.40 421.60 219.30 498.63 C 218.98 498.18 218.33 497.27 218.01 496.82 C 218.09 490.14 218.12 483.45 218.04 476.77 C 218.02 476.43 218.00 475.75 217.98 475.42 C 218.17 437.25 218.04 399.09 218.05 360.93 C 203.38 370.90 186.19 376.33 168.97 379.93 C 160.40 381.61 151.75 383.11 143.02 383.59 C 143.91 380.75 147.86 381.83 150.15 381.08 C 154.72 380.49 159.28 379.84 163.80 378.94 C 171.59 377.69 179.25 375.73 186.79 373.42 C 192.52 371.71 198.08 369.50 203.53 367.08 C 208.74 364.70 213.73 361.82 218.23 358.27 C 218.12 338.28 218.20 318.29 218.19 298.31 C 217.56 298.73 216.30 299.58 215.67 300.00 C 215.78 299.43 215.99 298.29 216.10 297.72 C 216.78 297.16 217.47 296.61 218.16 296.06 C 218.31 282.54 217.94 269.02 218.38 255.50 C 220.53 253.60 222.31 251.26 224.70 249.64 C 226.64 248.99 228.73 249.57 230.73 249.62 C 230.80 209.03 230.68 168.44 230.79 127.85 C 227.73 133.53 223.24 138.30 217.97 141.99 C 214.29 144.67 210.32 146.92 206.26 148.96 C 203.07 150.54 199.79 151.94 196.47 153.24 C 191.77 155.09 186.94 156.57 182.09 157.97 C 179.04 158.81 175.97 159.59 172.89 160.30 C 169.95 160.90 167.03 161.54 164.08 162.09 C 159.84 162.86 155.58 163.47 151.32 164.08 C 133.90 166.21 116.28 166.82 98.76 165.67 C 99.39 165.25 100.65 164.42 101.28 164.01 C 129.50 165.30 158.16 163.21 185.34 155.17 C 188.44 154.26 191.50 153.23 194.54 152.12 C 199.89 150.15 205.09 147.77 210.10 145.05 C 212.21 143.86 214.26 142.57 216.26 141.21 C 222.77 136.62 229.01 130.52 230.77 122.46 C 232.33 115.79 229.53 108.87 225.14 103.87 C 218.69 96.50 209.98 91.56 201.11 87.66 C 186.90 81.55 171.74 77.85 156.45 75.65 C 150.98 74.86 145.49 74.17 139.98 73.70 C 123.23 72.45 106.38 72.22 89.67 74.05 C 72.37 75.73 55.12 78.95 38.76 84.90 C 28.27 88.82 17.88 93.82 9.75 101.69 C 5.86 105.47 3.07 110.29 1.80 115.57 L 0.00 116.13 L 0.00 113.15 L 0.43 114.08 C 2.53 106.07 8.41 99.74 15.02 95.07 C 26.34 87.06 39.57 82.26 52.87 78.66 M 219.45 257.23 C 219.15 260.27 219.35 263.34 219.34 266.39 C 363.33 299.56 507.30 332.75 651.27 365.99 C 651.27 363.67 651.32 361.36 651.29 359.04 C 651.53 354.87 648.20 350.79 644.09 350.08 C 504.73 317.92 365.35 285.81 225.99 253.66 C 223.31 252.78 219.95 254.36 219.45 257.23 M 417.76 313.44 C 418.46 319.73 417.63 326.04 417.78 332.35 C 495.55 350.70 573.54 368.16 651.32 386.46 C 651.23 379.95 651.33 373.45 651.26 366.94 C 640.36 365.13 629.71 362.05 618.90 359.78 C 551.85 344.32 484.82 328.80 417.76 313.44 M 417.78 333.95 C 417.75 338.39 418.26 342.83 418.10 347.28 C 495.88 365.01 573.57 383.22 651.36 400.91 C 651.34 396.48 651.30 392.06 651.39 387.63 C 592.07 373.83 532.69 360.27 473.36 346.51 C 454.81 342.43 436.39 337.70 417.78 333.95 M 418.13 347.77 C 418.08 352.62 418.13 357.48 418.08 362.34 C 495.90 379.93 573.56 398.33 651.38 415.90 C 651.32 411.13 651.32 406.36 651.37 401.59 C 573.62 383.66 495.85 365.81 418.13 347.77 M 418.10 363.06 C 418.16 367.81 418.06 372.56 418.20 377.31 C 426.75 378.38 435.02 381.10 443.47 382.77 C 512.75 398.76 582.04 414.71 651.32 430.71 C 651.25 426.01 651.26 421.31 651.31 416.62 C 573.54 398.93 495.90 380.59 418.10 363.06 M 418.10 377.79 C 418.13 382.32 418.12 386.86 418.11 391.40 C 495.85 409.22 573.51 427.40 651.29 445.03 C 651.31 440.50 651.27 435.98 651.34 431.45 C 613.86 422.68 576.32 414.16 538.83 405.45 C 498.57 396.31 458.41 386.68 418.10 377.79 M 418.11 392.11 C 418.18 396.78 417.96 401.47 418.29 406.14 C 429.97 408.25 441.44 411.38 453.04 413.89 C 519.12 429.21 585.28 444.24 651.32 459.71 C 651.28 455.05 651.28 450.39 651.32 445.73 C 573.53 428.10 495.87 409.89 418.11 392.11 M 417.78 406.57 C 417.85 411.17 417.83 415.77 417.80 420.37 C 455.21 428.96 492.61 437.63 530.02 446.23 C 570.46 455.44 610.81 465.08 651.30 474.05 C 651.33 469.52 651.23 464.99 651.39 460.46 C 616.02 451.94 580.47 444.09 545.04 435.78 C 502.60 426.11 460.25 416.07 417.78 406.57 M 417.79 421.22 C 417.86 425.92 417.85 430.63 417.80 435.33 C 426.11 436.72 434.24 439.05 442.48 440.79 C 512.10 456.82 581.68 472.99 651.32 488.88 C 651.28 484.14 651.27 479.41 651.32 474.68 C 638.45 472.21 625.74 468.87 612.94 466.01 C 547.87 451.18 482.91 435.81 417.79 421.22 M 418.11 436.01 C 418.16 440.75 418.11 445.49 418.16 450.23 C 443.84 455.68 469.34 461.98 494.95 467.73 C 540.33 478.26 585.76 488.57 631.11 499.22 C 637.87 500.57 644.54 502.33 651.30 503.74 C 651.25 499.05 651.24 494.35 651.30 489.66 C 573.56 471.84 495.88 453.68 418.11 436.01 M 418.14 450.82 C 417.83 452.86 417.88 454.92 418.07 456.98 C 418.27 459.75 417.28 462.67 418.61 465.30 C 422.82 465.40 426.81 466.93 430.92 467.71 C 442.95 470.58 455.05 473.15 467.05 476.13 C 528.49 490.16 589.91 504.34 651.30 518.62 C 651.25 513.94 651.24 509.26 651.30 504.59 C 592.82 491.11 534.38 477.43 475.85 464.22 L 474.98 463.70 C 455.96 459.81 437.12 454.95 418.14 450.82 Z" />
<path fill="#000000" opacity="1.00" d=" M 225.82 258.13 C 230.05 256.08 233.75 262.45 230.16 265.34 C 230.99 262.81 230.99 260.24 228.92 258.34 C 228.14 258.29 226.59 258.18 225.82 258.13 Z" />
<path fill="#000000" opacity="1.00" d=" M 419.85 303.12 C 421.50 303.22 423.16 303.42 424.82 303.65 C 423.77 305.16 422.64 306.59 421.51 308.03 C 422.29 308.14 423.85 308.37 424.63 308.48 C 424.60 308.73 424.54 309.23 424.50 309.49 C 423.09 309.11 421.66 308.76 420.28 308.31 C 420.01 306.62 422.27 305.84 423.01 304.58 C 421.94 304.10 420.89 303.62 419.85 303.12 Z" />
<path fill="#000000" opacity="1.00" d=" M 427.75 310.30 C 424.88 309.16 425.09 304.92 427.75 303.57 C 426.51 306.11 427.07 307.24 429.43 306.96 C 429.36 306.36 429.23 305.17 429.16 304.57 C 429.66 305.32 430.64 306.82 431.13 307.57 C 429.55 307.64 427.98 307.67 426.41 307.67 C 427.17 309.36 428.64 309.91 430.80 309.32 C 429.89 309.72 428.85 311.12 427.75 310.30 Z" />
<path fill="#000000" opacity="1.00" d=" M 16.35 316.23 C 17.41 315.38 18.78 315.11 20.00 314.59 C 22.48 315.20 25.18 316.37 25.98 319.05 C 28.01 323.67 22.52 329.07 17.95 326.96 C 13.54 325.58 12.63 318.84 16.35 316.23 M 15.32 319.45 C 14.06 322.32 16.29 325.43 18.95 326.47 C 22.53 327.04 26.08 323.51 25.50 319.92 C 24.44 317.61 22.24 316.24 20.00 315.29 C 18.26 316.43 15.87 317.18 15.32 319.45 Z" />
<path fill="#000000" opacity="1.00" d=" M 123.13 383.28 L 124.74 382.99 C 130.52 383.28 136.64 381.48 142.15 383.87 C 136.39 384.49 130.60 384.48 124.83 385.01 C 124.80 385.25 124.72 385.73 124.68 385.97 C 124.16 385.07 123.64 384.17 123.13 383.28 Z" />
<path fill="#000000" opacity="1.00" d=" M 600.40 627.49 L 601.07 627.60 C 604.17 628.12 607.23 628.93 610.30 629.67 C 609.12 629.78 607.94 629.90 606.77 630.03 C 603.65 629.30 600.53 628.58 597.39 627.96 C 598.39 627.80 599.39 627.65 600.40 627.49 Z" />
</g>
<g id="#c0bfbfff">
<path fill="#c0bfbf" opacity="1.00" d=" M 89.67 74.05 C 106.38 72.22 123.23 72.45 139.98 73.70 C 139.79 74.26 139.40 75.37 139.20 75.92 C 159.23 95.49 178.76 115.58 198.66 135.29 C 202.30 138.73 205.36 143.00 210.10 145.05 C 205.09 147.77 199.89 150.15 194.54 152.12 C 186.38 147.24 181.31 138.93 174.04 132.97 C 167.49 125.49 159.64 119.30 153.20 111.73 C 145.09 103.87 137.35 95.63 129.21 87.80 C 125.20 83.44 120.54 79.73 116.69 75.23 C 114.12 71.84 109.34 73.75 105.76 73.72 C 100.40 73.86 95.02 73.64 89.67 74.05 Z" />
</g>
<g id="#d2d2d2ff">
<path fill="#d2d2d2" opacity="1.00" d=" M 105.76 73.72 C 109.34 73.75 114.12 71.84 116.69 75.23 C 120.54 79.73 125.20 83.44 129.21 87.80 C 137.35 95.63 145.09 103.87 153.20 111.73 C 159.64 119.30 167.49 125.49 174.04 132.97 C 181.31 138.93 186.38 147.24 194.54 152.12 C 191.50 153.23 188.44 154.26 185.34 155.17 C 177.82 149.98 171.86 142.96 165.55 136.45 C 162.31 134.04 159.82 130.87 157.15 127.89 C 151.36 122.35 146.11 116.25 140.09 110.95 C 136.52 107.85 133.66 104.05 130.24 100.79 C 121.71 92.74 113.69 84.17 105.35 75.91 C 105.45 75.36 105.66 74.27 105.76 73.72 Z" />
</g>
<g id="#e3e3e3ff">
<path fill="#e3e3e3" opacity="1.00" d=" M 38.76 84.90 C 55.12 78.95 72.37 75.73 89.67 74.05 C 95.02 73.64 100.40 73.86 105.76 73.72 C 105.66 74.27 105.45 75.36 105.35 75.91 C 113.69 84.17 121.71 92.74 130.24 100.79 C 133.66 104.05 136.52 107.85 140.09 110.95 C 146.11 116.25 151.36 122.35 157.15 127.89 C 159.82 130.87 162.31 134.04 165.55 136.45 C 171.86 142.96 177.82 149.98 185.34 155.17 C 158.16 163.21 129.50 165.30 101.28 164.01 C 84.06 163.01 66.84 160.68 50.22 155.97 C 37.81 152.35 25.41 147.71 14.95 139.93 C 7.21 134.42 0.50 125.58 1.80 115.57 C 3.07 110.29 5.86 105.47 9.75 101.69 C 17.88 93.82 28.27 88.82 38.76 84.90 Z" />
<path fill="#e3e3e3" opacity="1.00" d=" M 1.85 284.05 C 7.97 295.23 19.20 302.27 30.52 307.33 C 48.03 315.05 66.98 318.94 85.92 321.14 C 106.27 323.34 126.87 323.32 147.23 321.11 C 145.25 330.24 146.58 339.66 146.22 348.93 C 145.70 357.63 146.79 366.34 146.06 375.04 C 145.74 377.31 146.47 379.48 147.85 381.28 C 145.82 381.31 143.78 381.40 141.80 381.87 C 136.17 382.98 130.34 381.67 124.74 382.99 L 123.13 383.28 C 114.87 368.34 106.93 353.23 98.72 338.27 C 97.56 335.98 96.34 333.73 95.04 331.52 C 87.11 347.50 79.09 363.43 71.15 379.40 C 55.77 376.60 40.46 372.59 26.41 365.62 C 18.77 361.70 11.35 356.80 6.18 349.82 C 3.27 345.84 1.65 340.93 1.80 335.99 C 1.87 318.68 1.77 301.36 1.85 284.05 M 16.35 316.23 C 12.63 318.84 13.54 325.58 17.95 326.96 C 22.52 329.07 28.01 323.67 25.98 319.05 C 25.18 316.37 22.48 315.20 20.00 314.59 C 18.78 315.11 17.41 315.38 16.35 316.23 M 17.46 336.52 C 13.14 338.34 12.45 344.89 16.40 347.48 C 20.09 350.58 26.14 347.60 26.48 342.95 C 27.11 338.32 21.67 334.29 17.46 336.52 Z" />
</g>
<g id="#adadadff">
<path fill="#adadad" opacity="1.00" d=" M 139.98 73.70 C 145.49 74.17 150.98 74.86 156.45 75.65 C 155.04 76.32 153.63 76.99 152.22 77.65 C 160.23 86.01 168.89 93.76 176.56 102.46 C 183.56 108.42 189.47 115.52 196.22 121.75 C 202.91 128.23 208.92 135.44 216.26 141.21 C 214.26 142.57 212.21 143.86 210.10 145.05 C 205.36 143.00 202.30 138.73 198.66 135.29 C 178.76 115.58 159.23 95.49 139.20 75.92 C 139.40 75.37 139.79 74.26 139.98 73.70 Z" />
</g>
<g id="#9d9d9dff">
<path fill="#9d9d9d" opacity="1.00" d=" M 156.45 75.65 C 171.74 77.85 186.90 81.55 201.11 87.66 C 209.98 91.56 218.69 96.50 225.14 103.87 C 229.53 108.87 232.33 115.79 230.77 122.46 C 229.01 130.52 222.77 136.62 216.26 141.21 C 208.92 135.44 202.91 128.23 196.22 121.75 C 189.47 115.52 183.56 108.42 176.56 102.46 C 168.89 93.76 160.23 86.01 152.22 77.65 C 153.63 76.99 155.04 76.32 156.45 75.65 Z" />
</g>
<g id="#406a32ff">
<path fill="#406a32" opacity="1.00" d=" M 596.40 105.41 C 597.61 105.06 599.51 104.08 600.42 105.51 C 605.83 112.99 609.87 121.37 615.21 128.90 C 623.50 122.67 631.43 115.97 639.38 109.30 C 642.55 106.15 646.35 110.24 649.28 111.76 C 649.47 113.84 649.69 115.92 650.10 117.97 C 648.11 117.30 646.16 116.46 644.09 116.14 C 639.30 119.24 636.22 124.24 632.24 128.21 C 627.79 132.64 623.45 137.17 618.85 141.43 C 613.80 133.30 610.29 124.22 604.23 116.74 C 603.50 116.06 602.45 114.42 601.33 115.35 C 593.49 120.12 586.51 126.27 578.47 130.75 C 581.90 123.69 586.23 117.08 589.21 109.81 L 589.45 109.59 L 589.72 109.35 C 591.70 107.68 593.97 106.35 596.40 105.41 Z" />
<path fill="#406a32" opacity="1.00" d=" M 595.67 216.71 C 607.28 209.48 618.33 201.30 630.06 194.29 C 636.13 196.55 641.07 201.07 646.58 204.42 C 646.46 206.30 646.65 208.17 647.06 210.01 C 643.47 208.24 639.96 206.32 636.40 204.51 C 634.78 203.75 632.71 202.52 631.22 204.20 C 617.65 215.47 604.12 226.78 590.45 237.93 C 588.61 233.25 586.15 228.35 586.24 223.31 C 588.93 220.54 592.47 218.81 595.67 216.71 Z" />
<path fill="#406a32" opacity="1.00" d=" M 504.53 213.63 C 505.10 211.73 506.96 210.76 508.36 209.53 C 508.50 209.86 508.77 210.50 508.90 210.82 C 508.55 211.11 507.85 211.70 507.50 211.99 C 507.86 212.71 508.59 214.14 508.95 214.86 C 506.60 223.12 505.84 231.73 503.65 240.03 C 497.34 234.81 492.29 228.25 485.91 223.11 C 483.75 221.65 481.54 220.14 479.04 219.34 C 477.08 220.08 475.51 221.53 473.90 222.83 C 468.33 227.60 462.60 232.20 457.05 237.01 C 455.71 234.56 454.84 231.90 454.26 229.18 C 461.64 224.60 468.80 219.67 476.11 214.99 C 477.42 213.78 478.92 215.10 480.14 215.75 C 486.59 220.09 493.23 224.16 499.48 228.80 C 499.62 228.45 499.92 227.75 500.07 227.40 C 502.12 223.00 502.87 218.17 504.53 213.63 Z" />
<path fill="#406a32" opacity="1.00" d=" M 66.15 407.72 C 68.36 406.42 70.63 405.23 72.94 404.13 C 77.72 409.33 79.87 416.32 84.67 421.49 C 89.12 417.67 93.82 414.15 98.19 410.24 C 99.71 408.99 101.20 407.57 103.11 406.96 C 105.08 407.37 106.79 408.51 108.53 409.48 C 108.39 410.96 108.33 412.47 108.64 413.94 C 107.05 413.71 105.15 412.21 103.77 413.69 C 97.96 419.13 92.64 425.11 86.78 430.52 C 82.62 424.59 80.52 417.03 75.04 412.15 C 69.26 414.86 64.91 420.05 58.76 422.11 C 60.85 418.04 62.92 413.95 65.30 410.05 C 65.51 409.47 65.94 408.30 66.15 407.72 Z" />
<path fill="#406a32" opacity="1.00" d=" M 88.58 471.59 C 90.64 470.20 92.64 468.65 95.00 467.81 C 99.13 469.48 102.51 472.51 106.27 474.84 C 106.09 475.73 105.73 477.49 105.55 478.38 C 102.81 476.79 100.01 475.25 97.01 474.24 C 93.61 475.90 91.04 478.80 88.07 481.08 C 80.92 486.83 74.08 492.98 66.71 498.45 C 65.32 495.16 63.60 491.71 63.92 488.05 C 71.74 481.99 80.50 477.28 88.58 471.59 Z" />
</g>
<g id="#a8b698ff">
<path fill="#a8b698" opacity="1.00" d=" M 589.21 109.81 C 589.34 109.70 589.59 109.46 589.72 109.35 L 589.45 109.59 L 589.21 109.81 Z" />
</g>
<g id="#3d612eff">
<path fill="#3d612e" opacity="1.00" d=" M 649.28 111.76 C 656.84 115.84 664.27 120.18 671.96 124.01 C 671.92 123.34 671.86 122.01 671.82 121.35 C 671.97 118.73 671.63 115.81 673.31 113.58 C 675.21 116.91 677.05 120.28 678.78 123.71 C 677.86 131.57 680.01 139.38 679.76 147.26 C 675.75 145.04 673.05 141.24 669.76 138.18 C 663.48 132.08 657.54 125.65 651.05 119.78 C 650.81 119.33 650.33 118.43 650.10 117.97 C 649.69 115.92 649.47 113.84 649.28 111.76 Z" />
<path fill="#3d612e" opacity="1.00" d=" M 108.64 413.94 C 108.33 412.47 108.39 410.96 108.53 409.48 C 113.65 412.39 118.71 415.42 124.02 417.98 C 123.94 416.72 123.85 415.46 123.77 414.21 C 124.13 412.87 124.49 411.53 124.85 410.20 C 126.37 412.66 127.78 415.18 129.02 417.79 C 128.87 423.54 129.70 429.25 129.79 435.00 C 122.44 428.67 116.15 421.22 108.89 414.79 L 108.64 413.94 Z" />
</g>
<g id="#000000ee">
<path fill="#000000" opacity="0.93" d=" M 0.00 116.13 L 1.80 115.57 C 0.50 125.58 7.21 134.42 14.95 139.93 C 25.41 147.71 37.81 152.35 50.22 155.97 C 66.84 160.68 84.06 163.01 101.28 164.01 C 100.65 164.42 99.39 165.25 98.76 165.67 C 79.68 164.48 60.61 161.46 42.43 155.46 C 31.83 151.84 21.39 147.24 12.55 140.27 C 8.28 136.92 4.69 132.74 2.11 127.96 C 2.27 177.33 2.13 226.70 2.18 276.07 C 2.17 282.24 5.81 287.72 10.01 291.95 C 16.97 298.82 25.81 303.39 34.76 307.11 C 54.87 315.16 76.49 318.75 98.01 320.28 C 114.46 321.12 131.00 321.04 147.38 319.15 C 149.84 318.91 152.29 318.54 154.75 318.23 C 158.89 317.64 163.00 316.90 167.12 316.16 C 170.04 315.56 172.94 314.89 175.84 314.23 C 179.68 313.30 183.46 312.19 187.24 311.03 C 189.84 310.21 192.43 309.32 195.00 308.39 C 199.74 306.62 204.33 304.50 208.80 302.15 C 211.30 300.78 213.73 299.30 216.10 297.72 C 215.99 298.29 215.78 299.43 215.67 300.00 C 210.86 303.35 205.54 305.87 200.21 308.25 C 195.64 310.19 190.94 311.78 186.22 313.29 C 179.97 315.24 173.59 316.70 167.19 318.04 C 160.59 319.39 153.90 320.26 147.23 321.11 C 126.87 323.32 106.27 323.34 85.92 321.14 C 66.98 318.94 48.03 315.05 30.52 307.33 C 19.20 302.27 7.97 295.23 1.85 284.05 C 1.77 301.36 1.87 318.68 1.80 335.99 C 1.65 340.93 3.27 345.84 6.18 349.82 C 11.35 356.80 18.77 361.70 26.41 365.62 C 40.46 372.59 55.77 376.60 71.15 379.40 C 70.91 379.84 70.44 380.73 70.21 381.17 C 52.49 377.94 34.70 373.11 19.16 363.73 C 10.46 358.45 2.21 350.86 0.00 340.51 L 0.00 116.13 Z" />
</g>
<g id="#538a3eff">
<path fill="#538a3e" opacity="1.00" d=" M 601.33 115.35 C 602.45 114.42 603.50 116.06 604.23 116.74 C 610.29 124.22 613.80 133.30 618.85 141.43 C 623.45 137.17 627.79 132.64 632.24 128.21 C 636.22 124.24 639.30 119.24 644.09 116.14 C 646.16 116.46 648.11 117.30 650.10 117.97 C 650.33 118.43 650.81 119.33 651.05 119.78 C 657.04 146.64 663.72 173.33 669.79 200.16 C 671.71 207.25 672.99 214.51 675.13 221.55 C 675.03 221.87 674.83 222.52 674.73 222.84 C 665.39 216.64 655.97 210.54 646.58 204.42 C 641.07 201.07 636.13 196.55 630.06 194.29 C 618.33 201.30 607.28 209.48 595.67 216.71 C 592.47 218.81 588.93 220.54 586.24 223.31 C 586.15 228.35 588.61 233.25 590.45 237.93 C 604.12 226.78 617.65 215.47 631.22 204.20 C 632.71 202.52 634.78 203.75 636.40 204.51 C 639.96 206.32 643.47 208.24 647.06 210.01 L 647.18 210.63 C 651.95 249.06 656.44 287.54 661.12 325.99 C 661.65 330.36 661.92 334.80 663.30 339.02 L 662.84 339.78 C 655.11 334.06 648.40 326.98 640.34 321.68 C 637.95 320.15 635.79 318.30 633.59 316.53 C 629.74 313.27 625.77 310.15 621.96 306.85 C 621.16 306.16 620.32 305.52 619.47 304.92 C 614.91 302.17 611.04 298.49 606.89 295.21 C 589.30 304.89 571.82 314.77 554.25 324.48 C 551.39 323.85 548.53 323.22 545.68 322.55 C 547.15 316.09 549.61 309.94 551.62 303.65 C 558.41 282.90 565.90 262.40 572.61 241.63 C 575.18 233.35 578.56 225.35 581.14 217.08 C 583.62 210.42 579.17 204.00 577.94 197.56 C 577.02 192.94 575.79 188.38 573.98 184.03 C 571.47 185.09 568.88 186.26 567.36 188.64 L 566.91 188.11 C 566.57 188.29 565.91 188.64 565.58 188.82 C 557.30 192.50 549.31 196.82 541.08 200.61 C 553.48 177.29 566.00 154.03 578.47 130.75 C 586.51 126.27 593.49 120.12 601.33 115.35 Z" />
<path fill="#538a3e" opacity="1.00" d=" M 451.08 181.40 C 455.70 179.91 459.07 176.22 463.37 174.11 C 466.27 178.36 468.87 182.79 471.35 187.29 C 476.68 184.24 479.29 178.30 484.17 174.77 C 485.77 174.66 486.98 175.77 488.10 176.76 C 491.94 193.67 495.82 210.58 500.07 227.40 C 499.92 227.75 499.62 228.45 499.48 228.80 C 493.23 224.16 486.59 220.09 480.14 215.75 C 478.92 215.10 477.42 213.78 476.11 214.99 C 468.80 219.67 461.64 224.60 454.26 229.18 C 454.84 231.90 455.71 234.56 457.05 237.01 C 462.60 232.20 468.33 227.60 473.90 222.83 C 475.51 221.53 477.08 220.08 479.04 219.34 C 481.54 220.14 483.75 221.65 485.91 223.11 C 488.25 240.05 489.87 257.09 492.15 274.04 C 492.88 278.71 492.61 283.58 494.46 288.03 L 494.04 288.92 C 490.23 285.70 486.49 282.40 482.40 279.54 C 481.24 278.66 480.13 277.73 479.03 276.79 C 477.10 275.10 475.05 273.58 472.96 272.11 L 472.49 271.77 C 470.04 270.02 467.74 268.09 465.50 266.10 C 454.81 271.79 444.33 277.88 433.70 283.68 C 433.02 279.42 435.61 275.63 436.64 271.65 C 441.37 256.60 447.16 241.90 451.81 226.83 C 453.09 223.24 451.64 219.55 450.88 216.03 C 450.33 213.96 449.84 211.85 448.84 209.95 C 447.51 209.46 446.28 210.53 445.05 210.85 C 444.71 211.11 444.04 211.62 443.71 211.88 C 439.72 213.95 435.66 215.90 431.63 217.89 C 437.94 205.64 444.59 193.56 451.08 181.40 Z" />
<path fill="#538a3e" opacity="1.00" d=" M 58.76 422.11 C 64.91 420.05 69.26 414.86 75.04 412.15 C 80.52 417.03 82.62 424.59 86.78 430.52 C 92.64 425.11 97.96 419.13 103.77 413.69 C 105.15 412.21 107.05 413.71 108.64 413.94 L 108.89 414.79 C 111.43 423.65 113.17 432.71 115.38 441.65 C 118.93 456.90 122.67 472.11 126.20 487.38 C 119.28 483.66 112.89 479.04 106.27 474.84 C 102.51 472.51 99.13 469.48 95.00 467.81 C 92.64 468.65 90.64 470.20 88.58 471.59 C 80.50 477.28 71.74 481.99 63.92 488.05 C 63.60 491.71 65.32 495.16 66.71 498.45 C 74.08 492.98 80.92 486.83 88.07 481.08 C 91.04 478.80 93.61 475.90 97.01 474.24 C 100.01 475.25 102.81 476.79 105.55 478.38 C 105.92 478.71 106.65 479.37 107.02 479.71 C 110.04 509.03 114.42 538.23 117.11 567.58 C 116.05 567.37 115.00 567.16 113.94 566.95 C 110.48 563.85 106.88 560.80 102.72 558.67 L 102.59 558.35 L 102.34 558.14 C 100.61 556.69 98.89 555.25 97.15 553.81 C 94.49 551.60 91.72 549.53 89.17 547.19 C 88.30 546.41 87.44 545.63 86.54 544.90 C 83.46 543.48 80.80 541.37 78.31 539.10 C 64.72 546.87 50.94 554.29 37.33 562.04 C 35.90 562.63 34.44 563.16 32.99 563.72 L 33.08 562.45 C 40.79 542.81 46.63 522.51 53.74 502.65 C 56.17 496.31 58.20 489.83 60.39 483.41 C 62.01 478.77 58.87 474.39 58.09 469.92 C 57.22 466.86 57.06 463.40 54.98 460.86 C 52.23 461.93 49.69 463.46 47.13 464.93 L 47.35 464.90 C 42.07 467.14 37.07 469.95 31.86 472.35 C 40.77 455.57 49.79 438.85 58.76 422.11 Z" />
<path fill="#538a3e" opacity="1.00" d=" M 166.80 487.58 C 171.88 483.27 176.98 478.98 182.11 474.73 C 188.88 478.69 191.95 486.40 197.82 491.36 C 200.13 486.95 201.71 482.22 203.58 477.62 C 204.08 476.81 204.19 475.46 205.29 475.25 C 211.66 490.74 217.04 506.63 222.90 522.31 C 223.24 523.03 223.85 523.43 224.73 523.54 C 225.77 527.38 227.24 531.14 227.66 535.13 L 227.77 536.33 C 222.10 532.55 216.17 529.20 210.33 525.68 C 208.33 524.45 206.29 523.30 204.23 522.18 C 198.38 529.04 193.13 536.44 186.99 543.04 C 185.40 541.94 184.23 540.38 183.06 538.88 C 178.73 533.22 174.07 527.82 169.66 522.23 C 162.44 526.27 155.05 530.17 148.60 535.42 C 145.91 534.10 147.84 531.43 148.43 529.40 C 153.81 515.07 158.94 500.66 164.39 486.36 C 164.76 486.55 165.51 486.93 165.89 487.12 C 166.11 487.23 166.57 487.46 166.80 487.58 Z" />
</g>
<g id="#4c7d3aff">
<path fill="#4c7d3a" opacity="1.00" d=" M 651.05 119.78 C 657.54 125.65 663.48 132.08 669.76 138.18 C 673.05 141.24 675.75 145.04 679.76 147.26 C 680.01 139.38 677.86 131.57 678.78 123.71 C 692.51 149.34 706.33 174.94 719.96 200.64 C 709.59 195.79 699.49 190.35 689.05 185.68 C 688.17 185.30 687.29 184.93 686.41 184.59 C 682.95 196.99 679.18 209.32 675.13 221.55 C 672.99 214.51 671.71 207.25 669.79 200.16 C 663.72 173.33 657.04 146.64 651.05 119.78 Z" />
<path fill="#4c7d3a" opacity="1.00" d=" M 488.10 176.76 C 493.02 181.48 497.48 186.70 502.79 191.00 C 502.50 186.65 502.30 182.30 501.94 177.95 C 508.98 191.29 516.28 204.49 523.24 217.87 C 518.51 215.42 513.57 213.39 508.90 210.82 C 508.77 210.50 508.50 209.86 508.36 209.53 C 506.96 210.76 505.10 211.73 504.53 213.63 C 502.87 218.17 502.12 223.00 500.07 227.40 C 495.82 210.58 491.94 193.67 488.10 176.76 Z" />
<path fill="#4c7d3a" opacity="1.00" d=" M 108.89 414.79 C 116.15 421.22 122.44 428.67 129.79 435.00 C 129.70 429.25 128.87 423.54 129.02 417.79 C 138.17 434.88 147.43 451.91 156.44 469.07 C 156.79 468.62 157.48 467.73 157.83 467.29 C 157.24 468.64 156.67 470.01 156.09 471.39 C 150.11 468.37 144.08 465.45 138.10 462.43 C 137.92 460.84 135.27 459.47 134.66 461.49 C 131.27 469.92 129.47 478.90 126.20 487.38 C 122.67 472.11 118.93 456.90 115.38 441.65 C 113.17 432.71 111.43 423.65 108.89 414.79 Z" />
</g>
<g id="#a1a1a1ff">
<path fill="#a1a1a1" opacity="1.00" d=" M 217.97 141.99 C 223.24 138.30 227.73 133.53 230.79 127.85 C 230.68 168.44 230.80 209.03 230.73 249.62 C 228.73 249.57 226.64 248.99 224.70 249.64 C 222.31 251.26 220.53 253.60 218.38 255.50 C 218.24 252.67 217.95 249.85 217.92 247.02 C 217.99 212.01 217.93 177.00 217.97 141.99 Z" />
</g>
<g id="#ffffffff">
<path fill="#ffffff" opacity="1.00" d=" M 2.11 127.96 C 4.69 132.74 8.28 136.92 12.55 140.27 C 21.39 147.24 31.83 151.84 42.43 155.46 C 60.61 161.46 79.68 164.48 98.76 165.67 C 116.28 166.82 133.90 166.21 151.32 164.08 C 149.20 168.01 149.61 172.50 149.71 176.80 C 150.04 178.41 151.16 179.75 151.90 181.20 L 150.64 181.19 C 150.08 181.19 148.95 181.17 148.38 181.16 C 148.28 191.26 148.49 201.36 148.27 211.45 C 145.90 210.40 143.73 208.18 141.06 208.20 C 135.57 210.81 130.53 214.31 125.16 217.16 C 123.36 218.33 120.44 219.21 120.86 221.94 C 120.81 228.63 120.77 235.32 120.88 242.01 C 120.77 244.24 123.33 244.95 124.81 246.02 C 130.32 248.94 135.48 252.54 141.13 255.19 C 141.56 255.17 142.41 255.12 142.84 255.10 C 143.02 256.73 143.19 258.37 143.35 260.01 C 141.44 260.78 138.44 261.32 138.68 264.03 C 138.35 267.00 141.48 267.86 143.73 268.32 C 141.84 277.50 143.70 286.93 142.48 296.18 C 142.81 303.25 142.41 310.36 143.22 317.40 C 144.60 317.99 145.98 318.59 147.38 319.15 C 131.00 321.04 114.46 321.12 98.01 320.28 C 76.49 318.75 54.87 315.16 34.76 307.11 C 25.81 303.39 16.97 298.82 10.01 291.95 C 5.81 287.72 2.17 282.24 2.18 276.07 C 2.13 226.70 2.27 177.33 2.11 127.96 M 21.40 218.50 C 20.03 219.12 20.30 220.79 20.22 222.01 C 20.25 230.33 20.28 238.64 20.26 246.95 C 20.38 247.90 19.90 251.06 21.77 250.11 C 25.88 247.97 30.12 245.82 33.82 243.03 C 34.91 237.90 33.59 232.48 34.46 227.30 C 36.39 225.63 38.78 224.61 41.00 223.39 C 43.49 225.19 48.50 225.92 47.76 229.98 C 47.90 234.33 47.39 238.72 47.98 243.05 C 51.88 245.75 56.10 247.99 60.27 250.23 C 60.58 250.09 61.21 249.82 61.52 249.68 C 61.66 239.59 61.87 229.45 61.47 219.38 C 55.05 214.78 47.82 211.24 40.97 207.25 C 34.38 210.87 27.86 214.65 21.40 218.50 M 81.47 213.16 L 81.52 213.38 C 78.36 214.93 75.40 216.87 72.25 218.45 C 71.18 219.37 70.41 220.51 70.69 222.00 C 70.81 229.12 70.46 236.26 70.95 243.37 C 77.38 247.27 83.93 250.98 90.46 254.73 L 90.41 255.25 C 91.39 254.84 92.39 254.45 93.38 254.06 L 93.58 253.70 C 97.12 251.95 100.47 249.85 103.94 247.98 L 103.93 247.78 C 106.49 246.18 109.79 245.22 111.67 242.84 C 111.57 234.94 112.40 226.93 111.32 219.11 C 104.99 215.67 98.90 211.80 92.56 208.37 L 92.54 207.87 C 88.35 208.35 85.18 211.45 81.47 213.16 M 113.22 252.20 C 108.10 255.03 103.10 258.09 97.99 260.95 C 96.43 261.91 94.19 262.89 94.35 265.09 C 94.37 272.26 94.07 279.47 94.51 286.62 C 96.08 289.29 99.43 290.40 102.09 291.78 C 105.06 293.35 109.65 291.64 109.71 287.96 C 109.96 280.83 109.66 273.69 109.86 266.56 C 109.05 266.52 107.43 266.44 106.62 266.40 C 106.57 272.62 106.60 278.84 106.61 285.07 C 106.49 286.48 106.94 288.69 104.95 288.89 C 102.10 289.10 99.86 286.83 97.46 285.61 C 97.54 278.68 97.37 271.76 97.56 264.83 C 103.48 261.51 109.39 258.13 115.19 254.59 C 121.26 257.94 127.19 261.52 133.21 264.94 C 133.23 271.89 133.37 278.85 133.13 285.80 C 127.19 288.92 121.57 292.64 115.63 295.73 C 113.71 295.60 112.26 293.99 110.64 293.09 C 109.42 293.64 108.21 294.20 107.00 294.79 C 109.64 296.39 112.34 297.90 115.03 299.42 C 120.77 296.99 125.88 293.34 131.36 290.41 C 133.44 289.11 136.67 287.98 136.36 284.94 C 136.28 277.98 136.60 270.99 136.19 264.04 C 132.82 259.88 127.14 258.33 122.81 255.27 C 119.78 253.97 116.69 250.17 113.22 252.20 M 115.15 266.84 C 111.59 268.11 110.83 273.91 114.36 275.62 C 117.86 277.41 122.17 276.40 125.62 278.34 C 126.36 279.70 125.57 281.48 124.01 281.73 C 120.56 282.81 115.25 282.67 114.39 278.28 C 113.34 278.31 112.29 278.35 111.25 278.40 C 111.43 285.22 119.84 286.35 124.98 284.71 C 128.80 284.00 131.01 278.71 128.04 275.87 C 124.39 273.06 119.22 274.53 115.39 272.13 C 115.31 270.58 115.97 269.66 117.35 269.38 C 120.51 268.67 124.84 268.74 125.74 272.60 C 126.77 272.60 127.80 272.59 128.83 272.59 C 128.70 265.76 120.14 264.65 115.15 266.84 Z" />
<path fill="#ffffff" opacity="1.00" d=" M 219.30 498.63 C 219.40 421.60 219.28 344.57 219.37 267.54 C 285.05 283.05 350.94 297.80 416.64 313.25 C 416.90 403.81 416.64 494.39 416.76 584.95 C 358.24 571.56 299.76 558.02 241.27 544.52 C 237.33 543.43 233.34 542.52 229.36 541.62 C 228.68 539.90 227.91 538.19 227.77 536.33 L 227.66 535.13 C 227.24 531.14 225.77 527.38 224.73 523.54 C 224.47 522.45 223.95 520.26 223.70 519.17 C 225.20 520.14 226.69 521.13 228.18 522.14 C 225.78 516.44 223.39 510.74 220.95 505.06 C 220.05 503.02 219.41 500.86 219.30 498.63 M 227.26 280.21 C 226.97 301.10 227.07 322.01 227.23 342.90 C 265.52 352.13 304.02 360.63 342.39 369.61 C 364.13 374.83 386.05 379.34 407.72 384.88 C 408.13 365.26 407.71 345.62 407.94 325.99 C 407.79 324.58 408.12 322.98 407.34 321.73 C 404.48 320.52 401.35 320.21 398.36 319.50 C 358.61 310.16 318.76 301.19 279.00 291.90 C 261.73 288.08 244.59 283.72 227.26 280.21 M 233.83 376.96 C 231.75 378.33 228.80 379.21 228.13 381.90 C 236.50 377.02 246.11 371.57 256.13 374.26 C 271.24 376.62 278.84 393.34 294.08 395.37 C 301.87 396.85 308.23 391.32 315.20 389.05 C 321.08 387.13 327.16 389.70 332.08 392.87 C 336.66 395.81 339.70 400.54 344.13 403.65 C 348.05 405.84 352.38 408.12 357.03 407.56 C 361.41 407.20 365.28 404.94 369.19 403.12 C 373.50 401.02 378.66 400.84 383.17 402.41 C 391.79 405.16 398.69 411.37 404.84 417.77 C 404.55 416.63 404.56 415.27 403.49 414.54 C 399.45 411.22 395.67 407.55 391.20 404.80 C 385.28 400.80 377.77 399.42 370.80 400.86 C 365.44 402.55 360.75 406.60 354.92 406.54 C 347.01 405.57 340.79 399.93 335.50 394.41 C 329.37 387.98 319.19 385.01 311.00 389.16 C 305.10 391.91 298.55 395.91 291.86 393.66 C 278.58 390.47 271.41 376.51 258.05 373.44 C 249.89 371.19 241.07 372.72 233.83 376.96 M 236.83 399.89 C 233.75 401.60 230.09 402.79 227.92 405.71 C 229.18 405.52 230.49 405.35 231.57 404.60 C 236.04 401.93 240.74 399.25 245.97 398.55 C 250.96 398.32 256.18 397.98 260.88 400.01 C 270.31 403.48 276.54 411.94 285.14 416.75 C 290.27 419.81 296.45 420.27 302.22 419.16 C 306.66 417.77 310.51 414.95 315.02 413.71 C 321.18 411.10 327.94 414.41 332.97 418.01 C 339.50 423.92 346.18 432.43 355.96 431.63 C 363.25 432.10 368.91 426.22 375.97 425.49 C 379.42 425.66 382.77 426.69 386.02 427.81 C 393.68 430.95 399.21 437.42 405.84 442.06 C 398.36 433.59 388.88 425.32 377.10 424.45 C 369.35 423.49 363.60 430.48 356.04 430.59 C 349.99 431.20 344.70 427.42 340.49 423.52 C 335.82 418.74 330.82 413.62 324.04 412.14 C 316.92 409.70 310.13 414.05 303.88 416.91 C 297.79 419.88 290.48 418.68 284.84 415.26 C 275.26 409.80 268.37 399.50 256.93 397.57 C 250.20 397.34 243.02 396.66 236.83 399.89 M 234.74 425.74 C 232.57 427.05 229.80 428.08 229.02 430.75 C 234.39 427.75 239.64 424.23 245.86 423.26 C 251.77 421.51 257.95 423.12 263.48 425.37 C 270.98 428.77 276.30 435.37 283.15 439.77 C 287.12 442.73 292.08 444.06 296.94 444.55 C 304.61 444.76 310.73 439.11 317.98 437.57 C 325.02 436.69 332.09 440.19 336.57 445.52 C 341.74 450.46 347.38 456.07 354.96 456.51 C 360.18 457.25 364.71 454.18 369.22 452.12 C 373.17 450.17 377.78 450.08 382.05 450.78 C 391.56 453.36 398.95 460.26 405.97 466.81 C 404.74 464.24 402.49 462.44 400.51 460.49 C 395.45 455.57 389.28 451.63 382.47 449.70 C 377.69 449.34 372.38 448.55 368.11 451.28 C 363.06 453.57 357.44 456.79 351.78 454.70 C 343.51 452.86 339.18 444.82 332.46 440.44 C 326.09 435.53 316.73 434.86 309.80 438.98 C 304.44 441.81 298.16 444.85 292.07 442.51 C 279.67 439.62 273.05 426.84 261.04 423.18 C 252.44 419.87 242.71 421.54 234.74 425.74 M 228.31 452.11 C 228.33 473.20 228.03 494.30 228.47 515.39 C 251.01 520.36 273.49 525.62 295.95 530.95 C 296.13 529.64 296.27 528.34 296.36 527.04 C 296.33 508.69 296.27 490.33 296.41 471.98 C 296.31 470.50 296.73 468.65 295.27 467.68 C 272.96 462.48 250.60 457.39 228.31 452.11 M 318.50 482.54 C 315.85 484.02 312.68 485.08 310.95 487.74 C 314.91 486.77 318.01 483.89 321.84 482.59 C 327.24 480.58 333.21 478.72 338.93 480.43 C 349.41 481.94 356.46 490.45 364.58 496.33 C 371.23 501.63 381.04 503.50 388.81 499.67 C 394.33 496.66 400.35 493.95 406.81 494.54 C 406.51 494.27 405.90 493.73 405.60 493.46 C 399.09 492.65 393.14 495.80 387.50 498.57 C 383.04 500.83 377.69 501.20 373.02 499.34 C 363.58 496.72 357.80 488.12 349.58 483.39 C 340.42 477.31 328.05 477.38 318.50 482.54 M 318.03 507.11 C 315.49 508.66 311.91 509.64 311.10 512.90 C 315.45 510.62 319.26 507.25 324.14 506.08 C 332.82 503.08 342.92 504.16 350.40 509.63 C 358.97 515.39 366.03 524.72 376.92 525.96 C 383.65 527.46 390.00 523.56 395.80 520.68 C 399.17 518.52 403.39 520.36 406.90 518.70 C 405.50 518.35 404.11 518.03 402.71 517.73 C 397.86 518.21 393.36 519.97 389.13 522.30 C 384.25 524.91 378.42 525.20 373.10 524.02 C 361.00 519.68 353.77 507.12 341.03 504.02 C 333.32 502.63 324.97 503.16 318.03 507.11 M 317.84 531.98 C 315.63 533.24 312.88 534.29 312.04 536.93 C 317.67 534.37 322.72 530.16 329.08 529.51 C 335.80 527.86 342.92 529.74 348.89 533.00 C 356.99 537.25 362.55 545.22 371.12 548.72 C 375.23 550.79 379.97 550.95 384.45 550.34 C 391.92 548.19 398.64 542.56 406.81 543.60 C 406.53 543.33 405.96 542.79 405.68 542.52 C 396.59 540.94 389.72 548.86 380.96 549.49 C 373.34 550.14 366.82 545.28 361.10 540.90 C 354.89 535.08 347.76 529.44 339.11 528.07 C 331.84 526.41 324.31 528.66 317.84 531.98 Z" />
<path fill="#ffffff" opacity="1.00" d=" M 415.62 303.19 C 417.19 302.06 418.27 305.09 417.18 306.09 C 415.60 307.11 414.66 304.18 415.62 303.19 Z" />
<path fill="#ffffff" opacity="1.00" d=" M 409.84 304.00 C 412.96 302.55 409.90 307.28 409.84 304.00 Z" />
<path fill="#ffffff" opacity="1.00" d=" M 436.47 310.24 C 437.09 310.88 437.09 310.88 436.47 310.24 Z" />
<path fill="#ffffff" opacity="1.00" d=" M 451.36 315.06 C 449.88 313.93 448.85 309.84 451.93 310.92 C 453.01 312.39 452.41 313.82 451.36 315.06 Z" />
<path fill="#ffffff" opacity="1.00" d=" M 418.11 436.01 C 495.88 453.68 573.56 471.84 651.30 489.66 C 651.24 494.35 651.25 499.05 651.30 503.74 C 644.54 502.33 637.87 500.57 631.11 499.22 C 585.76 488.57 540.33 478.26 494.95 467.73 C 469.34 461.98 443.84 455.68 418.16 450.23 C 418.11 445.49 418.16 440.75 418.11 436.01 Z" />
<path fill="#ffffff" opacity="1.00" d=" M 418.14 450.82 C 437.12 454.95 455.96 459.81 474.98 463.70 L 475.85 464.22 C 534.38 477.43 592.82 491.11 651.30 504.59 C 651.24 509.26 651.25 513.94 651.30 518.62 C 589.91 504.34 528.49 490.16 467.05 476.13 C 455.05 473.15 442.95 470.58 430.92 467.71 C 426.81 466.93 422.82 465.40 418.61 465.30 C 417.28 462.67 418.27 459.75 418.07 456.98 C 417.88 454.92 417.83 452.86 418.14 450.82 Z" />
<path fill="#ffffff" opacity="1.00" d=" M 417.82 465.53 C 450.54 472.88 483.18 480.59 515.88 488.05 C 561.02 498.55 606.23 508.75 651.33 519.40 C 651.25 557.64 651.18 595.89 651.36 634.13 C 649.93 636.23 647.91 638.37 645.08 637.55 C 633.44 635.12 621.93 632.14 610.30 629.67 C 607.23 628.93 604.17 628.12 601.07 627.60 L 600.40 627.49 C 598.70 627.09 597.04 626.58 595.35 626.23 C 536.20 612.47 477.00 598.95 417.84 585.23 C 417.98 545.34 417.86 505.43 417.82 465.53 Z" />
</g>
<g id="#acacacff">
<path fill="#acacac" opacity="1.00" d=" M 206.26 148.96 C 210.32 146.92 214.29 144.67 217.97 141.99 C 217.93 177.00 217.99 212.01 217.92 247.02 C 217.95 249.85 218.24 252.67 218.38 255.50 C 217.94 269.02 218.31 282.54 218.16 296.06 C 217.47 296.61 216.78 297.16 216.10 297.72 C 213.73 299.30 211.30 300.78 208.80 302.15 C 207.54 300.72 206.61 299.02 206.87 297.05 C 207.20 274.83 206.43 252.59 207.25 230.38 C 208.92 229.38 210.67 228.46 212.14 227.15 C 213.00 224.82 212.70 222.15 212.38 219.72 C 210.58 218.02 208.31 216.93 206.21 215.67 C 205.95 209.18 206.21 202.69 206.43 196.20 C 205.82 184.46 206.92 172.70 206.27 160.95 C 206.17 156.95 206.73 152.95 206.26 148.96 Z" />
</g>
<g id="#b8b8b8ff">
<path fill="#b8b8b8" opacity="1.00" d=" M 196.47 153.24 C 199.79 151.94 203.07 150.54 206.26 148.96 C 206.73 152.95 206.17 156.95 206.27 160.95 C 206.92 172.70 205.82 184.46 206.43 196.20 C 206.21 202.69 205.95 209.18 206.21 215.67 C 202.82 213.75 199.47 211.77 196.12 209.80 C 195.76 198.54 195.95 187.29 195.87 176.03 C 196.10 168.43 195.38 160.79 196.47 153.24 Z" />
</g>
<g id="#c7c6c6ff">
<path fill="#c7c6c6" opacity="1.00" d=" M 182.09 157.97 C 186.94 156.57 191.77 155.09 196.47 153.24 C 195.38 160.79 196.10 168.43 195.87 176.03 C 195.95 187.29 195.76 198.54 196.12 209.80 C 194.75 209.01 193.38 208.25 192.01 207.49 C 189.29 209.02 186.60 210.58 183.90 212.15 C 181.31 209.38 182.32 205.41 182.16 202.00 C 182.14 187.32 182.30 172.64 182.09 157.97 Z" />
<path fill="#c7c6c6" opacity="1.00" d=" M 167.19 318.04 C 173.59 316.70 179.97 315.24 186.22 313.29 C 185.32 330.84 186.75 348.40 186.19 365.95 C 186.06 368.46 186.40 370.95 186.79 373.42 C 179.25 375.73 171.59 377.69 163.80 378.94 C 165.00 378.56 166.20 378.13 167.40 377.72 C 166.50 375.94 165.91 374.01 166.04 372.01 C 166.36 356.36 166.27 340.70 166.07 325.05 C 166.18 322.68 166.70 320.35 167.19 318.04 Z" />
</g>
<g id="#d5d5d4ff">
<path fill="#d5d5d4" opacity="1.00" d=" M 172.89 160.30 C 175.97 159.59 179.04 158.81 182.09 157.97 C 182.30 172.64 182.14 187.32 182.16 202.00 C 182.32 205.41 181.31 209.38 183.90 212.15 C 181.75 213.38 179.61 214.62 177.45 215.82 C 176.31 215.64 175.16 215.46 174.02 215.29 C 173.80 200.84 174.02 186.39 173.91 171.94 C 173.82 168.35 174.15 164.77 174.35 161.19 C 173.99 160.97 173.26 160.52 172.89 160.30 Z" />
</g>
<g id="#e1e1e1ff">
<path fill="#e1e1e1" opacity="1.00" d=" M 164.08 162.09 C 167.03 161.54 169.95 160.90 172.89 160.30 C 173.26 160.52 173.99 160.97 174.35 161.19 C 174.15 164.77 173.82 168.35 173.91 171.94 C 174.02 186.39 173.80 200.84 174.02 215.29 C 175.16 215.46 176.31 215.64 177.45 215.82 C 175.44 216.99 173.31 218.03 171.56 219.59 C 170.98 226.70 171.45 233.88 171.32 241.02 C 170.79 243.98 174.05 244.80 175.99 246.09 C 174.59 247.36 173.66 248.99 173.91 250.94 C 174.01 269.95 173.92 288.97 173.91 307.98 C 173.76 310.26 174.39 312.46 175.84 314.23 C 172.94 314.89 170.04 315.56 167.12 316.16 C 166.08 315.18 164.08 314.68 164.06 313.00 C 163.55 268.34 164.67 223.66 163.94 179.00 C 163.82 173.36 164.14 167.73 164.08 162.09 Z" />
</g>
<g id="#ecececff">
<path fill="#ececec" opacity="1.00" d=" M 151.32 164.08 C 155.58 163.47 159.84 162.86 164.08 162.09 C 164.14 167.73 163.82 173.36 163.94 179.00 C 164.67 223.66 163.55 268.34 164.06 313.00 C 164.08 314.68 166.08 315.18 167.12 316.16 C 163.00 316.90 158.89 317.64 154.75 318.23 C 153.25 310.57 154.33 302.75 154.04 295.01 C 153.71 284.67 154.51 274.34 153.99 264.01 C 153.72 258.76 154.55 253.54 154.35 248.30 C 156.95 246.55 160.26 245.54 162.20 243.01 C 162.54 229.35 162.23 215.67 162.33 202.01 C 162.22 197.36 162.64 192.69 162.11 188.07 C 158.58 185.34 154.37 183.64 150.64 181.19 L 151.90 181.20 C 151.16 179.75 150.04 178.41 149.71 176.80 C 149.61 172.50 149.20 168.01 151.32 164.08 Z" />
</g>
<g id="#3f6731ff">
<path fill="#3f6731" opacity="1.00" d=" M 455.92 171.68 C 457.50 170.57 459.00 169.16 460.97 168.81 C 465.08 171.73 466.63 176.96 469.51 180.94 C 474.35 177.82 478.19 173.36 483.14 170.40 C 488.50 172.15 492.96 175.89 498.18 178.03 C 498.05 176.68 497.91 175.34 497.74 174.00 C 498.29 174.11 499.38 174.33 499.92 174.44 C 500.63 175.58 501.31 176.75 501.94 177.95 C 502.30 182.30 502.50 186.65 502.79 191.00 C 497.48 186.70 493.02 181.48 488.10 176.76 C 486.98 175.77 485.77 174.66 484.17 174.77 C 479.29 178.30 476.68 184.24 471.35 187.29 C 468.87 182.79 466.27 178.36 463.37 174.11 C 459.07 176.22 455.70 179.91 451.08 181.40 C 452.70 178.16 454.51 175.01 455.92 171.68 Z" />
</g>
<g id="#8ba775ff">
<path fill="#8ba775" opacity="1.00" d=" M 455.54 171.80 C 455.64 171.77 455.83 171.71 455.92 171.68 L 455.54 171.80 Z" />
</g>
<g id="#333333ff">
<path fill="#333333" opacity="1.00" d=" M 148.38 181.16 C 148.95 181.17 150.08 181.19 150.64 181.19 C 154.37 183.64 158.58 185.34 162.11 188.07 C 162.64 192.69 162.22 197.36 162.33 202.01 C 162.23 215.67 162.54 229.35 162.20 243.01 C 160.26 245.54 156.95 246.55 154.35 248.30 C 150.49 250.53 146.60 252.71 142.84 255.10 C 142.41 255.12 141.56 255.17 141.13 255.19 C 135.48 252.54 130.32 248.94 124.81 246.02 C 123.33 244.95 120.77 244.24 120.88 242.01 C 120.77 235.32 120.81 228.63 120.86 221.94 C 120.44 219.21 123.36 218.33 125.16 217.16 C 130.53 214.31 135.57 210.81 141.06 208.20 C 143.73 208.18 145.90 210.40 148.27 211.45 C 148.49 201.36 148.28 191.26 148.38 181.16 M 134.73 227.81 C 134.74 230.45 134.75 233.09 134.81 235.73 C 137.12 237.00 139.42 238.31 141.76 239.53 C 143.87 238.16 146.04 236.90 148.27 235.73 C 148.33 233.10 148.34 230.46 148.35 227.83 C 146.21 226.56 144.14 225.14 141.87 224.11 C 139.23 224.57 137.10 226.60 134.73 227.81 Z" />
<path fill="#333333" opacity="1.00" d=" M 21.40 218.50 C 27.86 214.65 34.38 210.87 40.97 207.25 C 47.82 211.24 55.05 214.78 61.47 219.38 C 61.87 229.45 61.66 239.59 61.52 249.68 C 61.21 249.82 60.58 250.09 60.27 250.23 C 56.10 247.99 51.88 245.75 47.98 243.05 C 47.39 238.72 47.90 234.33 47.76 229.98 C 48.50 225.92 43.49 225.19 41.00 223.39 C 38.78 224.61 36.39 225.63 34.46 227.30 C 33.59 232.48 34.91 237.90 33.82 243.03 C 30.12 245.82 25.88 247.97 21.77 250.11 C 19.90 251.06 20.38 247.90 20.26 246.95 C 20.28 238.64 20.25 230.33 20.22 222.01 C 20.30 220.79 20.03 219.12 21.40 218.50 Z" />
<path fill="#333333" opacity="1.00" d=" M 183.90 212.15 C 186.60 210.58 189.29 209.02 192.01 207.49 C 193.38 208.25 194.75 209.01 196.12 209.80 C 199.47 211.77 202.82 213.75 206.21 215.67 C 208.31 216.93 210.58 218.02 212.38 219.72 C 212.70 222.15 213.00 224.82 212.14 227.15 C 210.67 228.46 208.92 229.38 207.25 230.38 C 205.08 231.63 202.95 232.95 200.71 234.08 C 200.21 234.21 199.23 234.48 198.74 234.62 C 198.66 232.22 198.62 229.83 198.59 227.44 C 196.37 226.12 194.15 224.81 191.93 223.49 C 189.71 224.72 187.37 225.80 185.37 227.39 C 184.45 229.79 184.86 232.53 185.06 235.05 C 189.41 238.40 194.55 240.57 199.20 243.48 C 201.23 244.64 203.24 245.84 205.23 247.07 C 201.69 250.28 197.12 251.92 193.19 254.55 C 190.51 255.03 188.40 253.06 186.19 251.93 C 182.80 249.96 179.41 248.00 175.99 246.09 C 174.05 244.80 170.79 243.98 171.32 241.02 C 171.45 233.88 170.98 226.70 171.56 219.59 C 173.31 218.03 175.44 216.99 177.45 215.82 C 179.61 214.62 181.75 213.38 183.90 212.15 Z" />
<path fill="#333333" opacity="1.00" d=" M 236.30 260.40 C 239.84 258.83 243.95 263.60 241.45 266.74 C 237.84 269.80 232.47 263.26 236.30 260.40 M 236.01 263.94 C 236.42 266.21 239.15 267.33 241.05 266.01 C 242.68 263.43 239.75 261.79 238.00 260.49 C 237.05 261.38 235.11 262.32 236.01 263.94 Z" />
<path fill="#333333" opacity="1.00" d=" M 409.17 299.95 C 412.41 299.77 413.55 302.72 413.03 305.51 C 414.06 307.29 414.31 303.09 413.97 302.84 C 414.88 301.63 416.08 301.10 417.59 301.72 C 417.88 301.23 418.46 300.24 418.75 299.75 C 419.03 302.46 419.01 305.19 418.98 307.92 C 417.52 307.76 415.97 307.79 414.76 306.83 C 413.60 306.82 412.44 306.72 411.30 306.54 C 409.64 306.16 407.14 305.22 408.30 303.08 C 409.10 302.99 410.71 302.81 411.51 302.73 C 411.40 302.36 411.18 301.62 411.06 301.26 C 410.10 301.53 409.14 301.80 408.19 302.07 C 408.43 301.54 408.92 300.48 409.17 299.95 M 415.62 303.19 C 414.66 304.18 415.60 307.11 417.18 306.09 C 418.27 305.09 417.19 302.06 415.62 303.19 M 409.84 304.00 C 409.90 307.28 412.96 302.55 409.84 304.00 Z" />
<path fill="#333333" opacity="1.00" d=" M 432.41 302.96 C 433.17 306.28 433.17 309.70 433.04 313.09 C 432.62 313.22 431.79 313.48 431.37 313.62 C 432.31 310.13 432.09 306.51 432.41 302.96 Z" />
<path fill="#333333" opacity="1.00" d=" M 434.43 306.92 C 436.13 305.57 437.92 306.55 439.21 307.92 C 437.99 307.71 436.77 307.51 435.56 307.30 C 436.67 308.84 439.80 309.57 438.82 311.92 C 437.34 313.54 435.62 311.92 434.41 310.91 C 434.74 309.59 434.71 308.24 434.43 306.92 M 436.47 310.24 C 437.09 310.88 437.09 310.88 436.47 310.24 Z" />
<path fill="#333333" opacity="1.00" d=" M 444.36 308.44 C 446.15 307.42 447.83 309.53 448.21 311.11 C 447.09 310.52 445.98 309.91 444.89 309.30 C 444.48 310.66 444.65 312.07 444.92 313.45 C 446.11 312.85 447.31 312.24 448.50 311.64 C 449.11 310.77 449.66 309.16 451.01 309.43 C 453.39 309.93 455.15 313.29 453.17 315.19 C 451.71 317.03 447.94 314.75 449.12 312.45 C 448.05 313.44 446.50 315.51 444.93 314.20 C 442.84 313.09 442.16 309.79 444.36 308.44 M 451.36 315.06 C 452.41 313.82 453.01 312.39 451.93 310.92 C 448.85 309.84 449.88 313.93 451.36 315.06 Z" />
<path fill="#333333" opacity="1.00" d=" M 454.98 310.71 C 457.30 311.48 460.28 311.21 462.16 312.88 C 462.56 314.60 463.43 317.51 461.27 318.35 C 461.12 316.43 461.05 314.50 460.96 312.57 C 458.21 312.87 460.55 316.63 458.28 317.68 C 458.14 315.79 458.03 313.89 457.94 312.00 C 455.09 312.23 457.07 315.68 455.34 317.10 C 455.05 314.98 455.00 312.84 454.98 310.71 Z" />
<path fill="#333333" opacity="1.00" d=" M 440.16 311.95 C 441.78 311.37 442.37 311.89 441.92 313.53 C 440.31 314.07 439.73 313.54 440.16 311.95 Z" />
<path fill="#333333" opacity="1.00" d=" M 17.46 336.52 C 21.67 334.29 27.11 338.32 26.48 342.95 C 26.14 347.60 20.09 350.58 16.40 347.48 C 12.45 344.89 13.14 338.34 17.46 336.52 M 17.37 338.14 C 14.59 339.86 14.35 344.17 16.94 346.17 C 19.69 348.65 24.76 346.75 25.04 343.02 C 25.88 338.98 20.70 335.71 17.37 338.14 Z" />
</g>
<g id="#3e632fff">
<path fill="#3e632f" opacity="1.00" d=" M 567.36 188.64 C 568.88 186.26 571.47 185.09 573.98 184.03 C 575.79 188.38 577.02 192.94 577.94 197.56 C 570.14 203.50 562.88 210.12 555.31 216.35 C 553.90 217.47 552.29 218.27 550.69 219.05 C 555.56 209.14 561.57 199.79 566.04 189.69 C 566.37 189.43 567.03 188.90 567.36 188.64 Z" />
<path fill="#3e632f" opacity="1.00" d=" M 686.41 184.59 C 687.29 184.93 688.17 185.30 689.05 185.68 C 688.72 185.98 688.06 186.59 687.74 186.89 C 690.02 190.16 691.61 193.83 693.36 197.40 C 692.76 197.39 691.56 197.38 690.96 197.37 C 688.44 209.20 686.43 221.14 684.07 233.01 C 683.29 236.88 683.05 240.92 681.31 244.52 C 673.87 237.70 667.03 230.24 659.76 223.24 C 655.43 219.17 652.00 214.17 647.18 210.63 L 647.06 210.01 C 646.65 208.17 646.46 206.30 646.58 204.42 C 655.97 210.54 665.39 216.64 674.73 222.84 C 674.83 222.52 675.03 221.87 675.13 221.55 C 679.18 209.32 682.95 196.99 686.41 184.59 Z" />
<path fill="#3e632f" opacity="1.00" d=" M 445.05 210.85 C 446.28 210.53 447.51 209.46 448.84 209.95 C 449.84 211.85 450.33 213.96 450.88 216.03 C 447.07 219.13 443.54 222.61 439.50 225.41 C 438.98 225.41 437.94 225.43 437.42 225.44 C 439.56 221.18 442.00 217.08 444.05 212.77 C 444.30 212.29 444.80 211.33 445.05 210.85 Z" />
<path fill="#3e632f" opacity="1.00" d=" M 47.13 464.93 C 49.69 463.46 52.23 461.93 54.98 460.86 C 57.06 463.40 57.22 466.86 58.09 469.92 C 53.88 473.41 49.70 476.95 45.54 480.51 C 43.34 482.36 41.27 484.50 38.54 485.56 C 42.06 478.49 46.09 471.70 49.62 464.63 C 49.05 464.70 47.91 464.84 47.35 464.90 L 47.13 464.93 Z" />
<path fill="#3e632f" opacity="1.00" d=" M 126.20 487.38 C 129.47 478.90 131.27 469.92 134.66 461.49 C 134.86 461.78 135.24 462.38 135.44 462.68 C 136.81 464.72 137.93 466.92 138.97 469.15 C 135.99 473.15 136.25 478.39 135.12 483.04 C 133.67 489.64 133.10 496.47 131.00 502.90 C 128.27 501.45 126.47 498.83 124.26 496.76 C 118.46 491.13 112.87 485.29 107.02 479.71 C 106.65 479.37 105.92 478.71 105.55 478.38 C 105.73 477.49 106.09 475.73 106.27 474.84 C 112.89 479.04 119.28 483.66 126.20 487.38 Z" />
</g>
<g id="#adb79fff">
<path fill="#adb79f" opacity="1.00" d=" M 565.58 188.82 C 565.91 188.64 566.57 188.29 566.91 188.11 L 567.36 188.64 C 567.03 188.90 566.37 189.43 566.04 189.69 L 565.58 188.82 Z" />
</g>
<g id="#4f813bff">
<path fill="#4f813b" opacity="1.00" d=" M 690.96 197.37 C 691.56 197.38 692.76 197.39 693.36 197.40 C 708.01 227.11 722.81 256.74 737.54 286.42 C 738.57 288.58 739.82 290.64 741.21 292.60 C 742.66 293.28 744.09 294.04 745.54 294.76 C 744.35 294.94 743.17 295.13 742.00 295.32 C 744.94 301.66 748.29 307.79 751.22 314.13 C 750.71 314.02 749.69 313.82 749.18 313.71 C 743.51 309.28 736.37 307.49 730.21 303.93 C 718.75 298.67 707.38 293.13 695.86 288.01 C 694.48 287.77 693.97 289.32 693.34 290.19 C 688.60 298.66 683.22 306.73 678.28 315.07 C 673.19 323.00 668.65 331.26 663.30 339.02 C 661.92 334.80 661.65 330.36 661.12 325.99 C 656.44 287.54 651.95 249.06 647.18 210.63 C 652.00 214.17 655.43 219.17 659.76 223.24 C 667.03 230.24 673.87 237.70 681.31 244.52 C 683.05 240.92 683.29 236.88 684.07 233.01 C 686.43 221.14 688.44 209.20 690.96 197.37 Z" />
<path fill="#4f813b" opacity="1.00" d=" M 555.31 216.35 C 562.88 210.12 570.14 203.50 577.94 197.56 C 579.17 204.00 583.62 210.42 581.14 217.08 C 578.56 225.35 575.18 233.35 572.61 241.63 C 565.90 262.40 558.41 282.90 551.62 303.65 C 549.61 309.94 547.15 316.09 545.68 322.55 C 544.46 322.25 543.26 321.96 542.07 321.67 C 542.15 315.43 541.88 309.18 542.35 302.95 C 542.44 300.84 542.38 298.72 542.22 296.61 C 541.80 292.42 542.05 288.21 542.21 284.01 L 542.20 283.71 C 542.14 281.15 542.08 278.60 542.04 276.04 C 540.26 277.08 538.48 278.11 536.69 279.10 C 527.76 284.25 518.85 289.47 510.20 295.08 C 510.35 294.55 510.66 293.48 510.82 292.95 L 511.07 292.53 C 512.66 290.54 513.93 288.33 515.00 286.03 C 516.42 284.58 517.47 282.81 517.48 280.74 L 517.52 280.61 C 518.59 278.71 519.72 276.84 520.88 274.99 C 522.29 272.96 523.32 270.70 524.24 268.41 C 519.37 267.07 515.13 263.10 510.19 262.76 C 504.75 271.05 499.89 279.72 494.46 288.03 C 492.61 283.58 492.88 278.71 492.15 274.04 C 489.87 257.09 488.25 240.05 485.91 223.11 C 492.29 228.25 497.34 234.81 503.65 240.03 C 505.84 231.73 506.60 223.12 508.95 214.86 C 515.59 228.58 522.94 241.99 529.14 255.91 C 529.63 257.45 530.23 257.52 530.94 256.12 C 537.05 243.54 544.12 231.41 550.69 219.05 C 552.29 218.27 553.90 217.47 555.31 216.35 Z" />
<path fill="#4f813b" opacity="1.00" d=" M 439.50 225.41 C 443.54 222.61 447.07 219.13 450.88 216.03 C 451.64 219.55 453.09 223.24 451.81 226.83 C 447.16 241.90 441.37 256.60 436.64 271.65 C 435.61 275.63 433.02 279.42 433.70 283.68 C 433.33 283.88 432.60 284.28 432.23 284.49 C 432.25 275.10 432.23 265.71 432.25 256.32 C 426.58 259.54 421.14 263.14 415.39 266.22 C 422.74 252.63 430.09 239.04 437.42 225.44 C 437.94 225.43 438.98 225.41 439.50 225.41 Z" />
<path fill="#4f813b" opacity="1.00" d=" M 163.81 465.36 C 163.98 465.21 164.33 464.91 164.51 464.77 C 165.71 469.77 164.81 474.93 165.33 480.00 C 165.49 482.37 165.63 484.75 165.89 487.12 C 165.51 486.93 164.76 486.55 164.39 486.36 C 158.94 500.66 153.81 515.07 148.43 529.40 C 147.84 531.43 145.91 534.10 148.60 535.42 C 148.28 535.63 147.62 536.05 147.29 536.26 C 145.06 535.21 142.68 533.62 140.10 534.25 C 132.56 546.33 125.31 558.61 117.73 570.67 C 116.48 569.41 115.23 568.16 113.94 566.95 C 115.00 567.16 116.05 567.37 117.11 567.58 C 114.42 538.23 110.04 509.03 107.02 479.71 C 112.87 485.29 118.46 491.13 124.26 496.76 C 126.47 498.83 128.27 501.45 131.00 502.90 C 133.10 496.47 133.67 489.64 135.12 483.04 C 136.25 478.39 135.99 473.15 138.97 469.15 C 144.05 479.60 149.48 489.88 154.43 500.40 C 157.59 494.37 159.80 487.89 162.63 481.70 C 165.16 476.65 164.35 470.77 163.81 465.36 Z" />
<path fill="#4f813b" opacity="1.00" d=" M 45.54 480.51 C 49.70 476.95 53.88 473.41 58.09 469.92 C 58.87 474.39 62.01 478.77 60.39 483.41 C 58.20 489.83 56.17 496.31 53.74 502.65 C 46.63 522.51 40.79 542.81 33.08 562.45 C 32.98 554.64 32.67 546.84 32.79 539.04 C 32.68 534.56 33.18 530.03 32.33 525.59 C 24.79 530.16 17.25 534.72 9.65 539.19 C 19.10 521.22 28.87 503.42 38.54 485.56 C 41.27 484.50 43.34 482.36 45.54 480.51 Z" />
</g>
<g id="#76af61ff">
<path fill="#76af61" opacity="1.00" d=" M 81.47 213.16 C 85.18 211.45 88.35 208.35 92.54 207.87 L 92.56 208.37 C 92.58 208.73 92.61 209.43 92.63 209.79 C 93.76 212.55 96.08 214.92 96.37 217.97 C 95.44 227.97 96.09 238.03 95.90 248.05 C 95.86 250.16 94.44 251.86 93.58 253.70 L 93.38 254.06 C 92.39 254.45 91.39 254.84 90.41 255.25 L 90.46 254.73 C 90.99 252.72 89.51 251.02 88.69 249.33 C 86.20 245.15 83.95 240.84 81.76 236.50 C 82.31 228.84 82.98 220.96 81.52 213.38 L 81.47 213.16 Z" />
</g>
<g id="#649c58ff">
<path fill="#649c58" opacity="1.00" d=" M 92.63 209.79 C 92.61 209.43 92.58 208.73 92.56 208.37 C 98.90 211.80 104.99 215.67 111.32 219.11 C 108.94 223.47 106.31 227.71 104.10 232.16 C 103.09 237.28 103.90 242.59 103.93 247.78 L 103.94 247.98 C 100.47 249.85 97.12 251.95 93.58 253.70 C 94.44 251.86 95.86 250.16 95.90 248.05 C 96.09 238.03 95.44 227.97 96.37 217.97 C 96.08 214.92 93.76 212.55 92.63 209.79 Z" />
</g>
<g id="#0000000d">
<path fill="#000000" opacity="0.05" d=" M 232.85 215.02 C 248.13 212.39 263.59 210.99 279.04 209.95 C 295.38 210.23 311.79 209.14 328.06 211.13 C 340.29 212.41 352.69 214.25 364.18 218.80 C 369.29 221.09 375.79 224.51 375.81 230.93 C 374.77 236.13 370.10 239.28 366.09 242.18 C 357.51 248.93 348.87 255.61 340.23 262.29 C 335.80 265.51 331.86 269.39 327.07 272.10 C 298.41 265.43 269.72 258.86 241.05 252.24 C 238.36 251.52 235.47 251.30 232.97 250.03 C 232.65 238.37 232.95 226.69 232.85 215.02 Z" />
<path fill="#000000" opacity="0.05" d=" M 517.52 280.61 C 517.96 278.38 519.37 276.61 520.88 274.99 C 519.72 276.84 518.59 278.71 517.52 280.61 Z" />
<path fill="#000000" opacity="0.05" d=" M 657.16 413.11 C 716.40 421.59 775.63 430.04 834.88 438.35 C 836.94 438.71 838.97 439.27 841.00 439.81 L 841.00 442.81 C 837.66 447.46 833.22 451.15 829.24 455.24 C 792.81 491.77 756.25 528.19 719.84 564.75 C 711.54 574.45 702.16 583.13 693.24 592.25 C 681.17 604.13 669.49 616.42 657.16 628.02 C 656.80 604.69 657.11 581.34 657.00 558.00 C 657.10 509.70 656.80 461.40 657.16 413.11 Z" />
</g>
<g id="#7f956cff">
<path fill="#7f956c" opacity="1.00" d=" M 443.71 211.88 C 444.04 211.62 444.71 211.11 445.05 210.85 C 444.80 211.33 444.30 212.29 444.05 212.77 L 443.71 211.88 Z" />
</g>
<g id="#6dbe4aff">
<path fill="#6dbe4a" opacity="1.00" d=" M 72.25 218.45 C 75.40 216.87 78.36 214.93 81.52 213.38 C 82.98 220.96 82.31 228.84 81.76 236.50 C 80.67 234.57 79.49 232.69 78.43 230.75 C 76.26 226.70 74.22 222.59 72.25 218.45 Z" />
</g>
<g id="#579c4aff">
<path fill="#579c4a" opacity="1.00" d=" M 70.69 222.00 C 70.41 220.51 71.18 219.37 72.25 218.45 C 74.22 222.59 76.26 226.70 78.43 230.75 C 76.06 235.03 73.88 239.44 70.95 243.37 C 70.46 236.26 70.81 229.12 70.69 222.00 Z" />
</g>
<g id="#448a41ff">
<path fill="#448a41" opacity="1.00" d=" M 104.10 232.16 C 106.31 227.71 108.94 223.47 111.32 219.11 C 112.40 226.93 111.57 234.94 111.67 242.84 C 109.79 245.22 106.49 246.18 103.93 247.78 C 103.90 242.59 103.09 237.28 104.10 232.16 Z" />
</g>
<g id="#fbfeffff">
<path fill="#fbfeff" opacity="1.00" d=" M 134.73 227.81 C 137.10 226.60 139.23 224.57 141.87 224.11 C 144.14 225.14 146.21 226.56 148.35 227.83 C 148.34 230.46 148.33 233.10 148.27 235.73 C 146.04 236.90 143.87 238.16 141.76 239.53 C 139.42 238.31 137.12 237.00 134.81 235.73 C 134.75 233.09 134.74 230.45 134.73 227.81 Z" />
</g>
<g id="#c0c0c0ff">
<path fill="#c0c0c0" opacity="1.00" d=" M 185.37 227.39 C 187.37 225.80 189.71 224.72 191.93 223.49 C 194.15 224.81 196.37 226.12 198.59 227.44 C 198.62 229.83 198.66 232.22 198.74 234.62 C 199.23 234.48 200.21 234.21 200.71 234.08 C 200.27 237.22 199.76 240.35 199.20 243.48 C 194.55 240.57 189.41 238.40 185.06 235.05 C 184.86 232.53 184.45 229.79 185.37 227.39 M 187.99 229.00 C 188.09 230.55 187.97 232.13 188.36 233.65 C 189.47 234.49 190.71 235.16 191.92 235.87 C 193.22 235.14 194.53 234.42 195.84 233.71 C 195.86 232.19 195.93 230.68 195.81 229.18 C 194.77 228.11 193.41 227.41 192.01 226.95 C 190.58 227.46 189.30 228.27 187.99 229.00 Z" />
</g>
<g id="#679f63ff">
<path fill="#679f63" opacity="1.00" d=" M 187.99 229.00 C 189.30 228.27 190.58 227.46 192.01 226.95 C 193.41 227.41 194.77 228.11 195.81 229.18 C 195.93 230.68 195.86 232.19 195.84 233.71 C 194.53 234.42 193.22 235.14 191.92 235.87 C 190.71 235.16 189.47 234.49 188.36 233.65 C 187.97 232.13 188.09 230.55 187.99 229.00 Z" />
</g>
<g id="#3f863fff">
<path fill="#3f863f" opacity="1.00" d=" M 78.43 230.75 C 79.49 232.69 80.67 234.57 81.76 236.50 C 83.95 240.84 86.20 245.15 88.69 249.33 C 89.51 251.02 90.99 252.72 90.46 254.73 C 83.93 250.98 77.38 247.27 70.95 243.37 C 73.88 239.44 76.06 235.03 78.43 230.75 Z" />
</g>
<g id="#b9b9b9ff">
<path fill="#b9b9b9" opacity="1.00" d=" M 200.71 234.08 C 202.95 232.95 205.08 231.63 207.25 230.38 C 206.43 252.59 207.20 274.83 206.87 297.05 C 206.61 299.02 207.54 300.72 208.80 302.15 C 204.33 304.50 199.74 306.62 195.00 308.39 C 192.10 305.25 193.28 300.78 193.14 296.94 C 193.20 282.81 193.14 268.68 193.19 254.55 C 197.12 251.92 201.69 250.28 205.23 247.07 C 203.24 245.84 201.23 244.64 199.20 243.48 C 199.76 240.35 200.27 237.22 200.71 234.08 Z" />
</g>
<g id="#d4d4d4ff">
<path fill="#d4d4d4" opacity="1.00" d=" M 173.91 250.94 C 173.66 248.99 174.59 247.36 175.99 246.09 C 179.41 248.00 182.80 249.96 186.19 251.93 C 185.44 252.65 184.70 253.37 183.96 254.09 C 184.18 272.55 183.53 291.04 184.24 309.49 C 185.23 310.00 186.23 310.51 187.24 311.03 C 183.46 312.19 179.68 313.30 175.84 314.23 C 174.39 312.46 173.76 310.26 173.91 307.98 C 173.92 288.97 174.01 269.95 173.91 250.94 Z" />
</g>
<g id="#f6f6f6ff">
<path fill="#f6f6f6" opacity="1.00" d=" M 142.84 255.10 C 146.60 252.71 150.49 250.53 154.35 248.30 C 154.55 253.54 153.72 258.76 153.99 264.01 C 154.51 274.34 153.71 284.67 154.04 295.01 C 154.33 302.75 153.25 310.57 154.75 318.23 C 152.29 318.54 149.84 318.91 147.38 319.15 C 145.98 318.59 144.60 317.99 143.22 317.40 C 142.41 310.36 142.81 303.25 142.48 296.18 C 143.70 286.93 141.84 277.50 143.73 268.32 C 144.65 266.66 146.63 265.16 145.92 263.04 C 145.15 261.96 144.23 261.00 143.35 260.01 C 143.19 258.37 143.02 256.73 142.84 255.10 Z" />
</g>
<g id="#619c5dff">
<path fill="#619c5d" opacity="1.00" d=" M 113.22 252.20 C 116.69 250.17 119.78 253.97 122.81 255.27 C 127.14 258.33 132.82 259.88 136.19 264.04 C 136.60 270.99 136.28 277.98 136.36 284.94 C 136.67 287.98 133.44 289.11 131.36 290.41 C 125.88 293.34 120.77 296.99 115.03 299.42 C 112.34 297.90 109.64 296.39 107.00 294.79 C 108.21 294.20 109.42 293.64 110.64 293.09 C 112.26 293.99 113.71 295.60 115.63 295.73 C 121.57 292.64 127.19 288.92 133.13 285.80 C 133.37 278.85 133.23 271.89 133.21 264.94 C 127.19 261.52 121.26 257.94 115.19 254.59 C 109.39 258.13 103.48 261.51 97.56 264.83 C 97.37 271.76 97.54 278.68 97.46 285.61 C 99.86 286.83 102.10 289.10 104.95 288.89 C 106.94 288.69 106.49 286.48 106.61 285.07 C 106.60 278.84 106.57 272.62 106.62 266.40 C 107.43 266.44 109.05 266.52 109.86 266.56 C 109.66 273.69 109.96 280.83 109.71 287.96 C 109.65 291.64 105.06 293.35 102.09 291.78 C 99.43 290.40 96.08 289.29 94.51 286.62 C 94.07 279.47 94.37 272.26 94.35 265.09 C 94.19 262.89 96.43 261.91 97.99 260.95 C 103.10 258.09 108.10 255.03 113.22 252.20 Z" />
</g>
<g id="#c7c7c7ff">
<path fill="#c7c7c7" opacity="1.00" d=" M 186.19 251.93 C 188.40 253.06 190.51 255.03 193.19 254.55 C 193.14 268.68 193.20 282.81 193.14 296.94 C 193.28 300.78 192.10 305.25 195.00 308.39 C 192.43 309.32 189.84 310.21 187.24 311.03 C 186.23 310.51 185.23 310.00 184.24 309.49 C 183.53 291.04 184.18 272.55 183.96 254.09 C 184.70 253.37 185.44 252.65 186.19 251.93 Z" />
</g>
<g id="#eeedeeff">
<path fill="#eeedee" opacity="1.00" d=" M 219.45 257.23 C 219.95 254.36 223.31 252.78 225.99 253.66 C 365.35 285.81 504.73 317.92 644.09 350.08 C 648.20 350.79 651.53 354.87 651.29 359.04 C 651.32 361.36 651.27 363.67 651.27 365.99 C 507.30 332.75 363.33 299.56 219.34 266.39 C 219.35 263.34 219.15 260.27 219.45 257.23 M 225.82 258.13 L 225.25 258.10 C 223.19 261.62 226.37 265.54 230.16 265.34 C 233.75 262.45 230.05 256.08 225.82 258.13 M 236.30 260.40 C 232.47 263.26 237.84 269.80 241.45 266.74 C 243.95 263.60 239.84 258.83 236.30 260.40 M 246.34 263.16 C 243.12 265.94 248.07 271.67 251.39 269.43 C 255.15 266.73 249.67 260.19 246.34 263.16 M 409.17 299.95 C 408.92 300.48 408.43 301.54 408.19 302.07 C 409.14 301.80 410.10 301.53 411.06 301.26 C 411.18 301.62 411.40 302.36 411.51 302.73 C 410.71 302.81 409.10 302.99 408.30 303.08 C 407.14 305.22 409.64 306.16 411.30 306.54 C 412.44 306.72 413.60 306.82 414.76 306.83 C 415.97 307.79 417.52 307.76 418.98 307.92 C 419.01 305.19 419.03 302.46 418.75 299.75 C 418.46 300.24 417.88 301.23 417.59 301.72 C 416.08 301.10 414.88 301.63 413.97 302.84 C 414.31 303.09 414.06 307.29 413.03 305.51 C 413.55 302.72 412.41 299.77 409.17 299.95 M 419.85 303.12 C 420.89 303.62 421.94 304.10 423.01 304.58 C 422.27 305.84 420.01 306.62 420.28 308.31 C 421.66 308.76 423.09 309.11 424.50 309.49 C 424.54 309.23 424.60 308.73 424.63 308.48 C 423.85 308.37 422.29 308.14 421.51 308.03 C 422.64 306.59 423.77 305.16 424.82 303.65 C 423.16 303.42 421.50 303.22 419.85 303.12 M 432.41 302.96 C 432.09 306.51 432.31 310.13 431.37 313.62 C 431.79 313.48 432.62 313.22 433.04 313.09 C 433.17 309.70 433.17 306.28 432.41 302.96 M 427.75 310.30 C 428.85 311.12 429.89 309.72 430.80 309.32 C 428.64 309.91 427.17 309.36 426.41 307.67 C 427.98 307.67 429.55 307.64 431.13 307.57 C 430.64 306.82 429.66 305.32 429.16 304.57 C 429.23 305.17 429.36 306.36 429.43 306.96 C 427.07 307.24 426.51 306.11 427.75 303.57 C 425.09 304.92 424.88 309.16 427.75 310.30 M 434.43 306.92 C 434.71 308.24 434.74 309.59 434.41 310.91 C 435.62 311.92 437.34 313.54 438.82 311.92 C 439.80 309.57 436.67 308.84 435.56 307.30 C 436.77 307.51 437.99 307.71 439.21 307.92 C 437.92 306.55 436.13 305.57 434.43 306.92 M 444.36 308.44 C 442.16 309.79 442.84 313.09 444.93 314.20 C 446.50 315.51 448.05 313.44 449.12 312.45 C 447.94 314.75 451.71 317.03 453.17 315.19 C 455.15 313.29 453.39 309.93 451.01 309.43 C 449.66 309.16 449.11 310.77 448.50 311.64 C 447.31 312.24 446.11 312.85 444.92 313.45 C 444.65 312.07 444.48 310.66 444.89 309.30 C 445.98 309.91 447.09 310.52 448.21 311.11 C 447.83 309.53 446.15 307.42 444.36 308.44 M 454.98 310.71 C 455.00 312.84 455.05 314.98 455.34 317.10 C 457.07 315.68 455.09 312.23 457.94 312.00 C 458.03 313.89 458.14 315.79 458.28 317.68 C 460.55 316.63 458.21 312.87 460.96 312.57 C 461.05 314.50 461.12 316.43 461.27 318.35 C 463.43 317.51 462.56 314.60 462.16 312.88 C 460.28 311.21 457.30 311.48 454.98 310.71 M 440.16 311.95 C 439.73 313.54 440.31 314.07 441.92 313.53 C 442.37 311.89 441.78 311.37 440.16 311.95 Z" />
<path fill="#eeedee" opacity="1.00" d=" M 227.26 280.21 C 244.59 283.72 261.73 288.08 279.00 291.90 C 318.76 301.19 358.61 310.16 398.36 319.50 C 401.35 320.21 404.48 320.52 407.34 321.73 C 408.12 322.98 407.79 324.58 407.94 325.99 C 407.71 345.62 408.13 365.26 407.72 384.88 C 386.05 379.34 364.13 374.83 342.39 369.61 C 304.02 360.63 265.52 352.13 227.23 342.90 C 227.07 322.01 226.97 301.10 227.26 280.21 Z" />
<path fill="#eeedee" opacity="1.00" d=" M 417.76 313.44 C 484.82 328.80 551.85 344.32 618.90 359.78 C 629.71 362.05 640.36 365.13 651.26 366.94 C 651.33 373.45 651.23 379.95 651.32 386.46 C 573.54 368.16 495.55 350.70 417.78 332.35 C 417.63 326.04 418.46 319.73 417.76 313.44 Z" />
<path fill="#eeedee" opacity="1.00" d=" M 228.31 452.11 C 250.60 457.39 272.96 462.48 295.27 467.68 C 296.73 468.65 296.31 470.50 296.41 471.98 C 296.27 490.33 296.33 508.69 296.36 527.04 C 296.27 528.34 296.13 529.64 295.95 530.95 C 273.49 525.62 251.01 520.36 228.47 515.39 C 228.03 494.30 228.33 473.20 228.31 452.11 Z" />
</g>
<g id="#8da678ff">
<path fill="#8da678" opacity="1.00" d=" M 529.14 255.91 C 529.59 255.96 530.49 256.07 530.94 256.12 C 530.23 257.52 529.63 257.45 529.14 255.91 Z" />
</g>
<g id="#77211cff">
<path fill="#77211c" opacity="1.00" d=" M 225.25 258.10 L 225.82 258.13 C 226.59 258.18 228.14 258.29 228.92 258.34 C 230.99 260.24 230.99 262.81 230.16 265.34 C 226.37 265.54 223.19 261.62 225.25 258.10 Z" />
</g>
<g id="#b5ccafff">
<path fill="#b5ccaf" opacity="1.00" d=" M 138.68 264.03 C 138.44 261.32 141.44 260.78 143.35 260.01 C 144.23 261.00 145.15 261.96 145.92 263.04 C 146.63 265.16 144.65 266.66 143.73 268.32 C 141.48 267.86 138.35 267.00 138.68 264.03 M 140.72 265.70 C 140.73 265.09 140.77 263.87 140.79 263.26 C 139.31 262.70 139.24 266.06 140.72 265.70 M 144.05 263.31 C 142.54 266.37 147.30 263.48 144.05 263.31 M 142.06 265.29 C 140.52 268.30 145.35 265.44 142.06 265.29 Z" />
</g>
<g id="#e3a525ff">
<path fill="#e3a525" opacity="1.00" d=" M 236.01 263.94 C 235.11 262.32 237.05 261.38 238.00 260.49 C 239.75 261.79 242.68 263.43 241.05 266.01 C 239.15 267.33 236.42 266.21 236.01 263.94 Z" />
</g>
<g id="#f4f7f3ff">
<path fill="#f4f7f3" opacity="1.00" d=" M 140.72 265.70 C 139.24 266.06 139.31 262.70 140.79 263.26 C 140.77 263.87 140.73 265.09 140.72 265.70 Z" />
</g>
<g id="#f6f7f6ff">
<path fill="#f6f7f6" opacity="1.00" d=" M 144.05 263.31 C 147.30 263.48 142.54 266.37 144.05 263.31 Z" />
</g>
<g id="#295529ff">
<path fill="#295529" opacity="1.00" d=" M 246.34 263.16 C 249.67 260.19 255.15 266.73 251.39 269.43 C 248.07 271.67 243.12 265.94 246.34 263.16 Z" />
</g>
<g id="#47474761">
<path fill="#474747" opacity="0.38" d=" M 510.19 262.76 C 515.13 263.10 519.37 267.07 524.24 268.41 C 523.32 270.70 522.29 272.96 520.88 274.99 C 519.37 276.61 517.96 278.38 517.52 280.61 L 517.48 280.74 C 515.17 281.49 514.33 283.80 515.00 286.03 C 513.93 288.33 512.66 290.54 511.07 292.53 C 511.01 292.60 510.90 292.75 510.85 292.82 L 510.82 292.95 C 510.66 293.48 510.35 294.55 510.20 295.08 C 518.85 289.47 527.76 284.25 536.69 279.10 C 538.36 280.83 540.24 282.32 542.20 283.71 L 542.21 284.01 C 539.10 284.29 536.02 284.75 532.96 285.36 C 533.07 286.45 533.20 287.54 533.33 288.64 C 536.17 291.43 538.79 294.51 542.22 296.61 C 542.38 298.72 542.44 300.84 542.35 302.95 C 536.21 303.21 530.07 302.95 523.94 303.09 C 520.23 302.96 517.62 305.99 514.59 307.63 C 511.37 309.40 508.54 311.93 505.04 313.14 C 498.13 311.54 491.23 309.89 484.31 308.34 C 483.51 298.75 482.54 289.16 482.40 279.54 C 486.49 282.40 490.23 285.70 494.04 288.92 L 494.46 288.03 C 499.89 279.72 504.75 271.05 510.19 262.76 Z" />
<path fill="#474747" opacity="0.38" d=" M 472.49 271.77 L 472.96 272.11 C 472.97 273.93 472.89 275.75 472.82 277.57 C 472.17 280.57 471.95 283.64 472.10 286.71 C 472.06 286.95 471.97 287.44 471.93 287.69 C 471.02 291.63 470.90 295.69 471.07 299.73 C 471.05 300.04 471.00 300.66 470.97 300.97 C 470.86 302.31 470.76 303.67 470.67 305.03 C 462.00 303.36 453.45 301.14 444.83 299.22 C 444.85 298.50 444.89 297.06 444.90 296.34 C 439.41 294.96 433.57 294.87 428.30 292.74 C 435.95 289.93 443.98 288.26 451.62 285.44 C 458.37 282.42 465.26 279.75 471.92 276.55 C 472.11 274.95 472.30 273.36 472.49 271.77 Z" />
<path fill="#474747" opacity="0.38" d=" M 693.34 290.19 C 693.97 289.32 694.48 287.77 695.86 288.01 C 707.38 293.13 718.75 298.67 730.21 303.93 C 736.37 307.49 743.51 309.28 749.18 313.71 C 749.18 314.45 749.20 315.93 749.21 316.66 C 751.55 318.10 753.66 319.87 755.48 321.93 C 750.29 321.99 745.23 323.42 740.03 323.20 C 740.06 323.77 740.12 324.91 740.15 325.47 C 739.69 325.54 738.78 325.69 738.32 325.76 C 732.85 325.99 727.39 325.43 721.94 325.68 C 719.96 325.51 718.79 327.31 717.48 328.44 C 715.67 330.34 713.61 332.04 712.15 334.24 C 710.25 343.25 708.33 352.27 706.47 361.29 C 708.19 361.63 709.93 361.98 711.67 362.31 C 722.86 364.43 734.01 366.72 745.19 368.94 C 733.32 367.98 721.83 364.28 710.04 362.79 C 704.03 365.61 698.80 369.80 693.17 373.29 C 687.35 376.73 681.81 380.62 676.02 384.12 C 669.14 381.37 662.28 378.60 655.39 375.88 C 655.16 368.29 655.89 360.64 655.04 353.11 C 653.52 346.97 646.80 345.57 641.51 344.43 C 641.44 341.62 641.36 338.80 641.08 336.01 C 640.45 331.26 640.17 326.47 640.34 321.68 C 648.40 326.98 655.11 334.06 662.84 339.78 L 663.30 339.02 C 668.65 331.26 673.19 323.00 678.28 315.07 C 683.22 306.73 688.60 298.66 693.34 290.19 Z" />
<path fill="#474747" opacity="0.38" d=" M 590.15 318.05 C 599.89 313.60 610.08 310.10 619.47 304.92 C 620.32 305.52 621.16 306.16 621.96 306.85 C 621.46 317.76 620.39 328.63 619.61 339.53 C 601.74 335.39 583.86 331.29 565.99 327.16 C 570.59 326.59 574.83 324.59 579.31 323.48 C 582.29 320.61 586.55 319.88 590.15 318.05 Z" />
</g>
<g id="#e3e9e0ff">
<path fill="#e3e9e0" opacity="1.00" d=" M 142.06 265.29 C 145.35 265.44 140.52 268.30 142.06 265.29 Z" />
</g>
<g id="#629d5eff">
<path fill="#629d5e" opacity="1.00" d=" M 115.15 266.84 C 120.14 264.65 128.70 265.76 128.83 272.59 C 127.80 272.59 126.77 272.60 125.74 272.60 C 124.84 268.74 120.51 268.67 117.35 269.38 C 115.97 269.66 115.31 270.58 115.39 272.13 C 119.22 274.53 124.39 273.06 128.04 275.87 C 131.01 278.71 128.80 284.00 124.98 284.71 C 119.84 286.35 111.43 285.22 111.25 278.40 C 112.29 278.35 113.34 278.31 114.39 278.28 C 115.25 282.67 120.56 282.81 124.01 281.73 C 125.57 281.48 126.36 279.70 125.62 278.34 C 122.17 276.40 117.86 277.41 114.36 275.62 C 110.83 273.91 111.59 268.11 115.15 266.84 Z" />
</g>
<g id="#80592aff">
<path fill="#80592a" opacity="1.00" d=" M 472.96 272.11 C 475.05 273.58 477.10 275.10 479.03 276.79 C 478.84 285.55 478.93 294.32 479.09 303.09 C 477.93 302.02 476.73 301.02 475.55 300.01 C 473.61 301.43 472.34 303.63 473.64 305.96 C 472.66 305.70 471.69 305.44 470.73 305.18 C 470.80 303.77 470.88 302.37 470.97 300.97 C 471.00 300.66 471.05 300.04 471.07 299.73 C 472.38 295.83 472.00 291.71 471.93 287.69 C 471.97 287.44 472.06 286.95 472.10 286.71 C 473.40 283.81 473.00 280.63 472.82 277.57 C 472.89 275.75 472.97 273.93 472.96 272.11 Z" />
<path fill="#80592a" opacity="1.00" d=" M 621.96 306.85 C 625.77 310.15 629.74 313.27 633.59 316.53 C 632.16 325.17 633.79 333.95 632.82 342.64 C 628.41 341.60 624.01 340.58 619.61 339.53 C 620.39 328.63 621.46 317.76 621.96 306.85 Z" />
<path fill="#80592a" opacity="1.00" d=" M 89.17 547.19 C 91.72 549.53 94.49 551.60 97.15 553.81 C 96.84 565.24 97.24 576.68 97.08 588.11 C 95.66 588.18 94.25 588.19 92.84 588.15 C 91.65 588.02 90.45 587.91 89.25 587.84 C 88.32 586.63 87.37 585.44 86.42 584.26 C 87.27 571.90 88.23 559.55 89.17 547.19 Z" />
</g>
<g id="#735026ff">
<path fill="#735026" opacity="1.00" d=" M 479.03 276.79 C 480.13 277.73 481.24 278.66 482.40 279.54 C 482.54 289.16 483.51 298.75 484.31 308.34 C 483.01 308.04 481.73 307.75 480.45 307.47 C 480.00 306.00 479.55 304.54 479.09 303.09 C 478.93 294.32 478.84 285.55 479.03 276.79 Z" />
<path fill="#735026" opacity="1.00" d=" M 632.82 342.64 C 633.79 333.95 632.16 325.17 633.59 316.53 C 635.79 318.30 637.95 320.15 640.34 321.68 C 640.17 326.47 640.45 331.26 641.08 336.01 C 641.31 338.86 641.34 341.72 641.39 344.58 C 638.52 343.96 635.67 343.32 632.82 342.64 Z" />
<path fill="#735026" opacity="1.00" d=" M 97.15 553.81 C 98.89 555.25 100.61 556.69 102.34 558.14 L 102.32 558.47 C 101.64 567.76 103.57 576.97 103.57 586.26 C 101.41 586.87 99.26 587.55 97.08 588.11 C 97.24 576.68 96.84 565.24 97.15 553.81 Z" />
</g>
<g id="#513b22a9">
<path fill="#513b22" opacity="0.66" d=" M 472.10 286.71 C 471.95 283.64 472.17 280.57 472.82 277.57 C 473.00 280.63 473.40 283.81 472.10 286.71 Z" />
</g>
<g id="#2e402588">
<path fill="#2e4025" opacity="0.53" d=" M 515.00 286.03 C 514.33 283.80 515.17 281.49 517.48 280.74 C 517.47 282.81 516.42 284.58 515.00 286.03 Z" />
</g>
<g id="#4f3c279c">
<path fill="#4f3c27" opacity="0.61" d=" M 471.07 299.73 C 470.90 295.69 471.02 291.63 471.93 287.69 C 472.00 291.71 472.38 295.83 471.07 299.73 Z" />
</g>
<g id="#1d21193d">
<path fill="#1d2119" opacity="0.24" d=" M 510.85 292.82 C 510.90 292.75 511.01 292.60 511.07 292.53 L 510.82 292.95 L 510.85 292.82 Z" />
</g>
<g id="#ababaaff">
<path fill="#ababaa" opacity="1.00" d=" M 215.67 300.00 C 216.30 299.58 217.56 298.73 218.19 298.31 C 218.20 318.29 218.12 338.28 218.23 358.27 C 213.73 361.82 208.74 364.70 203.53 367.08 C 202.41 366.80 201.29 366.54 200.17 366.29 C 200.10 346.94 200.06 327.60 200.21 308.25 C 205.54 305.87 210.86 303.35 215.67 300.00 Z" />
</g>
<g id="#a77437ff">
<path fill="#a77437" opacity="1.00" d=" M 473.64 305.96 C 472.34 303.63 473.61 301.43 475.55 300.01 C 476.73 301.02 477.93 302.02 479.09 303.09 C 479.55 304.54 480.00 306.00 480.45 307.47 C 478.17 306.97 475.90 306.50 473.64 305.96 Z" />
</g>
<g id="#b7b7b7ff">
<path fill="#b7b7b7" opacity="1.00" d=" M 186.22 313.29 C 190.94 311.78 195.64 310.19 200.21 308.25 C 200.06 327.60 200.10 346.94 200.17 366.29 C 201.29 366.54 202.41 366.80 203.53 367.08 C 198.08 369.50 192.52 371.71 186.79 373.42 C 186.40 370.95 186.06 368.46 186.19 365.95 C 186.75 348.40 185.32 330.84 186.22 313.29 Z" />
</g>
<g id="#295328ff">
<path fill="#295328" opacity="1.00" d=" M 15.32 319.45 C 15.87 317.18 18.26 316.43 20.00 315.29 C 22.24 316.24 24.44 317.61 25.50 319.92 C 26.08 323.51 22.53 327.04 18.95 326.47 C 16.29 325.43 14.06 322.32 15.32 319.45 Z" />
</g>
<g id="#d7d7d7ff">
<path fill="#d7d7d7" opacity="1.00" d=" M 147.23 321.11 C 153.90 320.26 160.59 319.39 167.19 318.04 C 166.70 320.35 166.18 322.68 166.07 325.05 C 166.27 340.70 166.36 356.36 166.04 372.01 C 165.91 374.01 166.50 375.94 167.40 377.72 C 166.20 378.13 165.00 378.56 163.80 378.94 C 159.28 379.84 154.72 380.49 150.15 381.08 C 149.58 381.13 148.42 381.23 147.85 381.28 C 146.47 379.48 145.74 377.31 146.06 375.04 C 146.79 366.34 145.70 357.63 146.22 348.93 C 146.58 339.66 145.25 330.24 147.23 321.11 Z" />
<path fill="#d7d7d7" opacity="1.00" d=" M 233.83 376.96 C 241.07 372.72 249.89 371.19 258.05 373.44 C 271.41 376.51 278.58 390.47 291.86 393.66 C 298.55 395.91 305.10 391.91 311.00 389.16 C 319.19 385.01 329.37 387.98 335.50 394.41 C 340.79 399.93 347.01 405.57 354.92 406.54 C 360.75 406.60 365.44 402.55 370.80 400.86 C 377.77 399.42 385.28 400.80 391.20 404.80 C 395.67 407.55 399.45 411.22 403.49 414.54 C 404.56 415.27 404.55 416.63 404.84 417.77 C 398.69 411.37 391.79 405.16 383.17 402.41 C 378.66 400.84 373.50 401.02 369.19 403.12 C 365.28 404.94 361.41 407.20 357.03 407.56 C 352.38 408.12 348.05 405.84 344.13 403.65 C 339.70 400.54 336.66 395.81 332.08 392.87 C 327.16 389.70 321.08 387.13 315.20 389.05 C 308.23 391.32 301.87 396.85 294.08 395.37 C 278.84 393.34 271.24 376.62 256.13 374.26 C 246.11 371.57 236.50 377.02 228.13 381.90 C 228.80 379.21 231.75 378.33 233.83 376.96 Z" />
<path fill="#d7d7d7" opacity="1.00" d=" M 236.83 399.89 C 243.02 396.66 250.20 397.34 256.93 397.57 C 268.37 399.50 275.26 409.80 284.84 415.26 C 290.48 418.68 297.79 419.88 303.88 416.91 C 310.13 414.05 316.92 409.70 324.04 412.14 C 330.82 413.62 335.82 418.74 340.49 423.52 C 344.70 427.42 349.99 431.20 356.04 430.59 C 363.60 430.48 369.35 423.49 377.10 424.45 C 388.88 425.32 398.36 433.59 405.84 442.06 C 399.21 437.42 393.68 430.95 386.02 427.81 C 382.77 426.69 379.42 425.66 375.97 425.49 C 368.91 426.22 363.25 432.10 355.96 431.63 C 346.18 432.43 339.50 423.92 332.97 418.01 C 327.94 414.41 321.18 411.10 315.02 413.71 C 310.51 414.95 306.66 417.77 302.22 419.16 C 296.45 420.27 290.27 419.81 285.14 416.75 C 276.54 411.94 270.31 403.48 260.88 400.01 C 256.18 397.98 250.96 398.32 245.97 398.55 C 240.74 399.25 236.04 401.93 231.57 404.60 C 230.49 405.35 229.18 405.52 227.92 405.71 C 230.09 402.79 233.75 401.60 236.83 399.89 Z" />
<path fill="#d7d7d7" opacity="1.00" d=" M 234.74 425.74 C 242.71 421.54 252.44 419.87 261.04 423.18 C 273.05 426.84 279.67 439.62 292.07 442.51 C 298.16 444.85 304.44 441.81 309.80 438.98 C 316.73 434.86 326.09 435.53 332.46 440.44 C 339.18 444.82 343.51 452.86 351.78 454.70 C 357.44 456.79 363.06 453.57 368.11 451.28 C 372.38 448.55 377.69 449.34 382.47 449.70 C 389.28 451.63 395.45 455.57 400.51 460.49 C 402.49 462.44 404.74 464.24 405.97 466.81 C 398.95 460.26 391.56 453.36 382.05 450.78 C 377.78 450.08 373.17 450.17 369.22 452.12 C 364.71 454.18 360.18 457.25 354.96 456.51 C 347.38 456.07 341.74 450.46 336.57 445.52 C 332.09 440.19 325.02 436.69 317.98 437.57 C 310.73 439.11 304.61 444.76 296.94 444.55 C 292.08 444.06 287.12 442.73 283.15 439.77 C 276.30 435.37 270.98 428.77 263.48 425.37 C 257.95 423.12 251.77 421.51 245.86 423.26 C 239.64 424.23 234.39 427.75 229.02 430.75 C 229.80 428.08 232.57 427.05 234.74 425.74 Z" />
<path fill="#d7d7d7" opacity="1.00" d=" M 318.50 482.54 C 328.05 477.38 340.42 477.31 349.58 483.39 C 357.80 488.12 363.58 496.72 373.02 499.34 C 377.69 501.20 383.04 500.83 387.50 498.57 C 393.14 495.80 399.09 492.65 405.60 493.46 C 405.90 493.73 406.51 494.27 406.81 494.54 C 400.35 493.95 394.33 496.66 388.81 499.67 C 381.04 503.50 371.23 501.63 364.58 496.33 C 356.46 490.45 349.41 481.94 338.93 480.43 C 333.21 478.72 327.24 480.58 321.84 482.59 C 318.01 483.89 314.91 486.77 310.95 487.74 C 312.68 485.08 315.85 484.02 318.50 482.54 Z" />
<path fill="#d7d7d7" opacity="1.00" d=" M 318.03 507.11 C 324.97 503.16 333.32 502.63 341.03 504.02 C 353.77 507.12 361.00 519.68 373.10 524.02 C 378.42 525.20 384.25 524.91 389.13 522.30 C 393.36 519.97 397.86 518.21 402.71 517.73 C 404.11 518.03 405.50 518.35 406.90 518.70 C 403.39 520.36 399.17 518.52 395.80 520.68 C 390.00 523.56 383.65 527.46 376.92 525.96 C 366.03 524.72 358.97 515.39 350.40 509.63 C 342.92 504.16 332.82 503.08 324.14 506.08 C 319.26 507.25 315.45 510.62 311.10 512.90 C 311.91 509.64 315.49 508.66 318.03 507.11 Z" />
<path fill="#d7d7d7" opacity="1.00" d=" M 317.84 531.98 C 324.31 528.66 331.84 526.41 339.11 528.07 C 347.76 529.44 354.89 535.08 361.10 540.90 C 366.82 545.28 373.34 550.14 380.96 549.49 C 389.72 548.86 396.59 540.94 405.68 542.52 C 405.96 542.79 406.53 543.33 406.81 543.60 C 398.64 542.56 391.92 548.19 384.45 550.34 C 379.97 550.95 375.23 550.79 371.12 548.72 C 362.55 545.22 356.99 537.25 348.89 533.00 C 342.92 529.74 335.80 527.86 329.08 529.51 C 322.72 530.16 317.67 534.37 312.04 536.93 C 312.88 534.29 315.63 533.24 317.84 531.98 Z" />
</g>
<g id="#978346ff">
<path fill="#978346" opacity="1.00" d=" M 738.32 325.76 C 738.78 325.69 739.69 325.54 740.15 325.47 C 744.53 325.44 748.91 325.61 753.30 325.57 C 756.89 329.92 761.11 333.71 764.67 338.10 C 762.43 338.50 760.19 338.87 757.96 339.24 C 753.88 335.23 750.45 330.62 746.60 326.42 C 743.88 325.86 741.07 325.92 738.32 325.76 Z" />
</g>
<g id="#6f5f32ff">
<path fill="#6f5f32" opacity="1.00" d=" M 717.48 328.44 C 718.79 327.31 719.96 325.51 721.94 325.68 C 727.39 325.43 732.85 325.99 738.32 325.76 C 741.07 325.92 743.88 325.86 746.60 326.42 C 750.45 330.62 753.88 335.23 757.96 339.24 C 759.76 341.47 760.85 344.15 761.30 346.97 C 755.50 344.88 750.41 340.43 743.89 341.01 C 740.14 340.80 736.16 339.71 732.62 341.51 C 726.62 344.19 720.26 346.20 714.54 349.40 C 712.67 353.44 712.41 357.98 711.67 362.31 C 709.93 361.98 708.19 361.63 706.47 361.29 C 708.33 352.27 710.25 343.25 712.15 334.24 C 713.61 332.04 715.67 330.34 717.48 328.44 Z" />
</g>
<g id="#f0638fff">
<path fill="#f0638f" opacity="1.00" d=" M 417.78 333.95 C 436.39 337.70 454.81 342.43 473.36 346.51 C 532.69 360.27 592.07 373.83 651.39 387.63 C 651.30 392.06 651.34 396.48 651.36 400.91 C 573.57 383.22 495.88 365.01 418.10 347.28 C 418.26 342.83 417.75 338.39 417.78 333.95 Z" />
<path fill="#f0638f" opacity="1.00" d=" M 418.13 347.77 C 495.85 365.81 573.62 383.66 651.37 401.59 C 651.32 406.36 651.32 411.13 651.38 415.90 C 573.56 398.33 495.90 379.93 418.08 362.34 C 418.13 357.48 418.08 352.62 418.13 347.77 Z" />
</g>
<g id="#e3a425ff">
<path fill="#e3a425" opacity="1.00" d=" M 17.37 338.14 C 20.70 335.71 25.88 338.98 25.04 343.02 C 24.76 346.75 19.69 348.65 16.94 346.17 C 14.35 344.17 14.59 339.86 17.37 338.14 Z" />
</g>
<g id="#87743dff">
<path fill="#87743d" opacity="1.00" d=" M 764.67 338.10 C 768.80 345.72 772.48 353.61 776.13 361.48 C 766.24 364.46 756.15 366.85 746.05 368.98 C 745.48 365.68 745.04 362.36 744.97 359.01 C 744.88 352.99 743.79 347.03 743.89 341.01 C 750.41 340.43 755.50 344.88 761.30 346.97 C 760.85 344.15 759.76 341.47 757.96 339.24 C 760.19 338.87 762.43 338.50 764.67 338.10 Z" />
</g>
<g id="#937f43ff">
<path fill="#937f43" opacity="1.00" d=" M 732.62 341.51 C 736.16 339.71 740.14 340.80 743.89 341.01 C 743.79 347.03 744.88 352.99 744.97 359.01 C 745.04 362.36 745.48 365.68 746.05 368.98 L 745.19 368.94 C 734.01 366.72 722.86 364.43 711.67 362.31 C 712.41 357.98 712.67 353.44 714.54 349.40 C 720.26 346.20 726.62 344.19 732.62 341.51 Z" />
</g>
<g id="#fefad2ff">
<path fill="#fefad2" opacity="1.00" d=" M 418.10 363.06 C 495.90 380.59 573.54 398.93 651.31 416.62 C 651.26 421.31 651.25 426.01 651.32 430.71 C 582.04 414.71 512.75 398.76 443.47 382.77 C 435.02 381.10 426.75 378.38 418.20 377.31 C 418.06 372.56 418.16 367.81 418.10 363.06 Z" />
</g>
<g id="#b0d6f2ff">
<path fill="#b0d6f2" opacity="1.00" d=" M 418.10 377.79 C 458.41 386.68 498.57 396.31 538.83 405.45 C 576.32 414.16 613.86 422.68 651.34 431.45 C 651.27 435.98 651.31 440.50 651.29 445.03 C 573.51 427.40 495.85 409.22 418.11 391.40 C 418.12 386.86 418.13 382.32 418.10 377.79 Z" />
</g>
<g id="#fbced1ff">
<path fill="#fbced1" opacity="1.00" d=" M 418.11 392.11 C 495.87 409.89 573.53 428.10 651.32 445.73 C 651.28 450.39 651.28 455.05 651.32 459.71 C 585.28 444.24 519.12 429.21 453.04 413.89 C 441.44 411.38 429.97 408.25 418.29 406.14 C 417.96 401.47 418.18 396.78 418.11 392.11 Z" />
</g>
<g id="#52873dff">
<path fill="#52873d" opacity="1.00" d=" M 186.84 403.13 C 194.76 421.02 202.14 439.15 209.88 457.13 C 212.59 463.22 214.78 469.55 217.98 475.42 C 218.00 475.75 218.02 476.43 218.04 476.77 C 214.55 474.70 211.14 472.48 207.46 470.77 C 207.36 470.72 207.16 470.61 207.06 470.56 L 207.09 470.70 C 206.06 469.37 204.75 468.32 203.30 467.49 C 200.63 472.50 197.94 477.50 195.05 482.38 C 190.24 479.11 186.55 474.55 182.13 470.83 C 181.02 469.72 179.45 470.74 178.35 471.28 C 173.85 473.94 169.61 477.01 165.33 480.00 C 164.81 474.93 165.71 469.77 164.51 464.77 C 164.33 464.91 163.98 465.21 163.81 465.36 C 161.56 467.49 158.49 469.00 157.29 472.02 C 156.99 471.86 156.39 471.54 156.09 471.39 C 156.67 470.01 157.24 468.64 157.83 467.29 C 167.38 445.85 177.33 424.59 186.84 403.13 Z" />
</g>
<g id="#c9e5c3ff">
<path fill="#c9e5c3" opacity="1.00" d=" M 417.78 406.57 C 460.25 416.07 502.60 426.11 545.04 435.78 C 580.47 444.09 616.02 451.94 651.39 460.46 C 651.23 464.99 651.33 469.52 651.30 474.05 C 610.81 465.08 570.46 455.44 530.02 446.23 C 492.61 437.63 455.21 428.96 417.80 420.37 C 417.83 415.77 417.85 411.17 417.78 406.57 Z" />
<path fill="#c9e5c3" opacity="1.00" d=" M 134.66 461.49 C 135.27 459.47 137.92 460.84 138.10 462.43 C 137.81 462.40 137.21 462.36 136.92 462.34 C 136.55 462.42 135.81 462.59 135.44 462.68 C 135.24 462.38 134.86 461.78 134.66 461.49 Z" />
</g>
<g id="#a0b190ff">
<path fill="#a0b190" opacity="1.00" d=" M 63.98 408.77 C 64.53 408.51 65.61 407.98 66.15 407.72 C 65.94 408.30 65.51 409.47 65.30 410.05 C 64.97 409.73 64.31 409.09 63.98 408.77 Z" />
</g>
<g id="#dadde1ff">
<path fill="#dadde1" opacity="1.00" d=" M 417.79 421.22 C 482.91 435.81 547.87 451.18 612.94 466.01 C 625.74 468.87 638.45 472.21 651.32 474.68 C 651.27 479.41 651.28 484.14 651.32 488.88 C 581.68 472.99 512.10 456.82 442.48 440.79 C 434.24 439.05 426.11 436.72 417.80 435.33 C 417.85 430.63 417.86 425.92 417.79 421.22 Z" />
</g>
<g id="#416a32ff">
<path fill="#416a32" opacity="1.00" d=" M 203.30 467.49 C 204.75 468.32 206.06 469.37 207.09 470.70 C 208.40 475.44 210.65 479.85 212.48 484.40 C 214.33 488.53 215.74 492.88 218.01 496.82 C 218.33 497.27 218.98 498.18 219.30 498.63 C 219.41 500.86 220.05 503.02 220.95 505.06 C 223.39 510.74 225.78 516.44 228.18 522.14 C 226.69 521.13 225.20 520.14 223.70 519.17 C 223.95 520.26 224.47 522.45 224.73 523.54 C 223.85 523.43 223.24 523.03 222.90 522.31 C 217.04 506.63 211.66 490.74 205.29 475.25 C 204.19 475.46 204.08 476.81 203.58 477.62 C 201.71 482.22 200.13 486.95 197.82 491.36 C 191.95 486.40 188.88 478.69 182.11 474.73 C 176.98 478.98 171.88 483.27 166.80 487.58 C 166.57 487.46 166.11 487.23 165.89 487.12 C 165.63 484.75 165.49 482.37 165.33 480.00 C 169.61 477.01 173.85 473.94 178.35 471.28 C 179.45 470.74 181.02 469.72 182.13 470.83 C 186.55 474.55 190.24 479.11 195.05 482.38 C 197.94 477.50 200.63 472.50 203.30 467.49 Z" />
</g>
<g id="#9cb088ff">
<path fill="#9cb088" opacity="1.00" d=" M 207.06 470.56 C 207.16 470.61 207.36 470.72 207.46 470.77 L 207.09 470.70 L 207.06 470.56 Z" />
</g>
<g id="#416831ff">
<path fill="#416831" opacity="1.00" d=" M 148.60 535.42 C 155.05 530.17 162.44 526.27 169.66 522.23 C 174.07 527.82 178.73 533.22 183.06 538.88 C 184.23 540.38 185.40 541.94 186.99 543.04 C 193.13 536.44 198.38 529.04 204.23 522.18 C 206.29 523.30 208.33 524.45 210.33 525.68 C 210.22 526.51 209.98 528.16 209.86 528.99 C 208.58 528.75 207.30 528.52 206.03 528.29 C 200.20 536.26 195.51 545.02 189.50 552.88 C 183.95 544.67 179.05 535.89 172.02 528.83 C 171.20 527.68 170.13 528.71 169.36 529.28 C 162.40 534.90 155.44 540.53 148.33 545.95 C 148.20 545.22 147.95 543.75 147.82 543.01 C 147.16 544.05 146.50 545.09 145.87 546.16 C 146.89 543.38 148.03 540.65 148.88 537.82 C 148.48 537.43 147.69 536.65 147.29 536.26 C 147.62 536.05 148.28 535.63 148.60 535.42 Z" />
</g>
<g id="#41414159">
<path fill="#414141" opacity="0.35" d=" M 32.33 525.59 C 33.18 530.03 32.68 534.56 32.79 539.04 C 32.67 546.84 32.98 554.64 33.08 562.45 L 32.99 563.72 C 34.44 563.16 35.90 562.63 37.33 562.04 C 39.95 563.76 43.09 562.26 45.81 561.64 C 50.03 560.18 54.44 559.26 58.57 557.54 C 67.66 552.83 77.46 549.65 86.54 544.90 C 87.44 545.63 88.30 546.41 89.17 547.19 C 88.23 559.55 87.27 571.90 86.42 584.26 C 87.37 585.44 88.32 586.63 89.25 587.84 C 73.66 589.28 58.18 592.13 42.56 593.25 C 44.28 586.59 46.47 580.07 48.10 573.38 C 39.50 572.09 30.88 570.73 22.44 568.65 C 25.82 567.29 29.37 566.49 32.90 565.65 C 31.87 552.34 31.67 538.92 32.33 525.59 Z" />
<path fill="#414141" opacity="0.35" d=" M 117.73 570.67 C 125.31 558.61 132.56 546.33 140.10 534.25 C 142.68 533.62 145.06 535.21 147.29 536.26 C 147.69 536.65 148.48 537.43 148.88 537.82 C 148.03 540.65 146.89 543.38 145.87 546.16 C 138.14 563.56 131.08 581.25 123.39 598.67 C 124.76 599.13 126.14 599.63 127.52 600.11 C 125.59 600.43 123.65 600.65 121.74 601.00 C 122.15 600.16 122.57 599.34 122.99 598.52 C 112.83 595.39 103.52 589.50 92.84 588.15 C 94.25 588.19 95.66 588.18 97.08 588.11 C 99.26 587.55 101.41 586.87 103.57 586.26 C 103.57 576.97 101.64 567.76 102.32 558.47 L 102.72 558.67 C 106.88 560.80 110.48 563.85 113.94 566.95 C 115.23 568.16 116.48 569.41 117.73 570.67 Z" />
<path fill="#414141" opacity="0.35" d=" M 234.29 576.70 C 240.97 579.38 245.07 585.85 251.38 589.18 C 251.59 589.55 252.03 590.30 252.24 590.67 C 250.40 590.34 248.55 590.09 246.70 589.91 C 247.12 591.78 248.04 593.46 249.15 595.02 C 248.33 596.42 246.65 597.76 247.38 599.58 C 248.33 605.64 253.57 609.51 257.33 613.91 C 254.05 614.97 250.65 615.54 247.36 616.54 C 245.39 617.27 245.07 619.61 244.52 621.36 C 243.58 625.25 242.35 629.06 240.97 632.81 C 232.17 631.04 223.36 629.34 214.58 627.48 C 210.21 626.45 206.25 629.24 202.14 630.22 C 193.77 632.31 185.82 635.78 177.42 637.76 C 173.65 632.74 169.12 628.30 165.62 623.08 C 154.60 624.53 143.46 624.11 132.37 624.03 C 138.62 619.05 145.51 614.94 152.19 610.59 C 151.70 608.46 150.34 606.75 148.87 605.20 C 153.08 603.88 157.43 603.03 161.56 601.50 C 161.67 601.26 161.89 600.76 162.00 600.51 C 164.72 605.05 167.39 609.66 169.58 614.49 C 173.90 611.09 177.00 606.29 181.79 603.52 C 181.99 611.47 181.11 619.38 180.55 627.30 C 184.15 629.45 188.31 628.90 192.25 628.46 C 194.26 624.49 192.41 620.12 192.48 615.95 C 192.44 608.77 191.44 601.65 191.10 594.49 C 193.66 591.37 197.15 589.22 199.88 586.27 C 207.84 591.58 215.88 596.75 223.83 602.08 C 226.69 604.17 229.63 606.16 232.80 607.77 C 233.14 608.03 233.83 608.56 234.17 608.82 C 234.38 598.11 234.16 587.40 234.29 576.70 Z" />
</g>
<g id="#3b5e2cff">
<path fill="#3b5e2c" opacity="1.00" d=" M 210.33 525.68 C 216.17 529.20 222.10 532.55 227.77 536.33 C 227.91 538.19 228.68 539.90 229.36 541.62 C 233.34 542.52 237.33 543.43 241.27 544.52 C 240.61 544.64 239.30 544.88 238.64 545.00 C 235.90 544.40 233.16 543.78 230.42 543.22 C 231.67 545.97 232.94 548.72 234.08 551.53 C 234.42 555.15 235.27 558.69 236.02 562.24 C 232.44 559.36 230.03 555.41 227.19 551.86 C 222.17 545.42 217.51 538.70 212.12 532.56 C 211.37 531.36 210.61 530.17 209.86 528.99 C 209.98 528.16 210.22 526.51 210.33 525.68 Z" />
</g>
<g id="#4c7a38ff">
<path fill="#4c7a38" opacity="1.00" d=" M 212.12 532.56 C 217.51 538.70 222.17 545.42 227.19 551.86 C 230.03 555.41 232.44 559.36 236.02 562.24 C 235.27 558.69 234.42 555.15 234.08 551.53 C 240.00 564.01 245.42 576.72 251.38 589.18 C 245.07 585.85 240.97 579.38 234.29 576.70 C 234.16 587.40 234.38 598.11 234.17 608.82 C 233.83 608.56 233.14 608.03 232.80 607.77 C 232.51 602.01 230.19 596.68 228.77 591.16 C 225.12 578.82 221.56 566.47 217.90 554.14 C 216.07 546.91 213.08 539.98 212.12 532.56 Z" />
</g>
<g id="#a1ac98ff">
<path fill="#a1ac98" opacity="1.00" d=" M 102.34 558.14 L 102.59 558.35 L 102.72 558.67 L 102.32 558.47 L 102.34 558.14 Z" />
</g>
<g id="#7c562aff">
<path fill="#7c562a" opacity="1.00" d=" M 181.79 603.52 C 184.98 600.61 188.21 597.70 191.10 594.49 C 191.44 601.65 192.44 608.77 192.48 615.95 C 192.41 620.12 194.26 624.49 192.25 628.46 C 188.31 628.90 184.15 629.45 180.55 627.30 C 181.11 619.38 181.99 611.47 181.79 603.52 Z" />
</g>
<g id="#031808c4">
<path fill="#031808" opacity="0.77" d=" M 610.30 629.67 C 621.93 632.14 633.44 635.12 645.08 637.55 C 647.91 638.37 649.93 636.23 651.36 634.13 C 651.37 634.71 651.39 635.87 651.40 636.45 C 650.53 637.34 649.61 638.18 648.68 639.00 L 643.39 639.00 C 631.36 635.34 618.91 633.29 606.77 630.03 C 607.94 629.90 609.12 629.78 610.30 629.67 Z" />
</g>
</svg>
