<?xml version="1.0" encoding="UTF-8" ?>
<!DOCTYPE svg PUBLIC "-//W3C//DTD SVG 1.1//EN" "http://www.w3.org/Graphics/SVG/1.1/DTD/svg11.dtd">
<svg width="1751pt" height="70pt" viewBox="0 0 1751 70" version="1.1" xmlns="http://www.w3.org/2000/svg">
<g id="#9bb5d4ff">
<path fill="#9bb5d4" opacity="1.00" d=" M 0.00 0.00 L 437.59 0.00 C 446.62 0.67 455.51 4.51 461.61 11.33 C 470.03 20.17 473.08 33.71 469.32 45.32 C 465.30 59.21 451.85 69.30 437.50 70.00 L 0.00 70.00 L 0.00 0.00 M 5.01 5.01 C 4.99 25.00 4.99 45.00 5.01 64.99 C 32.29 65.03 59.56 64.96 86.84 64.93 C 116.84 65.11 146.85 64.94 176.85 64.92 C 194.81 65.09 212.79 65.00 230.75 64.90 C 257.46 65.14 284.18 64.94 310.90 64.92 C 337.66 65.12 364.44 64.97 391.21 64.87 C 405.47 65.23 419.75 64.91 434.02 64.98 C 441.99 65.15 450.22 62.69 456.06 57.11 C 464.37 49.83 467.77 37.71 464.79 27.12 C 462.23 17.39 454.34 9.19 444.65 6.42 C 437.95 4.32 430.83 5.18 423.93 4.99 C 413.72 5.11 403.48 4.74 393.29 5.15 C 367.30 5.02 341.29 4.84 315.31 5.13 C 288.66 4.97 261.98 4.92 235.34 5.08 C 217.36 5.05 199.34 4.82 181.38 5.14 C 150.69 4.94 119.98 5.00 89.29 5.02 C 61.20 5.08 33.10 4.94 5.01 5.01 Z" />
</g>
<g id="#ffffffff">
<path fill="#ffffff" opacity="1.00" d=" M 437.59 0.00 L 1751.00 0.00 L 1751.00 70.00 L 437.50 70.00 C 451.85 69.30 465.30 59.21 469.32 45.32 C 473.08 33.71 470.03 20.17 461.61 11.33 C 455.51 4.51 446.62 0.67 437.59 0.00 M 542.30 9.68 C 542.11 23.75 542.22 37.85 542.25 51.94 C 544.05 52.02 545.86 52.08 547.67 51.91 C 547.75 46.28 547.64 40.65 547.72 35.02 C 547.93 32.13 548.25 28.76 550.80 26.91 C 553.80 24.28 559.23 25.72 559.86 29.88 C 560.65 37.20 560.01 44.59 560.26 51.94 C 562.07 52.04 563.90 52.05 565.72 51.93 C 565.76 45.61 565.77 39.29 565.71 32.98 C 565.51 28.92 565.11 24.03 561.19 21.79 C 556.75 19.59 550.60 20.55 547.65 24.81 C 547.71 19.77 547.75 14.72 547.64 9.69 C 545.85 9.61 544.07 9.62 542.30 9.68 M 586.39 9.79 C 585.82 11.90 586.21 14.31 586.25 16.52 C 588.03 16.54 589.82 16.58 591.61 16.49 C 591.64 14.27 591.76 12.02 591.56 9.81 C 589.83 9.75 588.11 9.75 586.39 9.79 M 884.17 10.02 C 884.15 12.18 884.07 14.34 884.21 16.49 C 886.00 16.56 887.80 16.57 889.61 16.49 C 889.68 14.27 889.67 12.04 889.61 9.82 C 887.82 9.91 885.83 9.42 884.17 10.02 M 1040.28 9.50 C 1039.98 10.93 1040.16 12.41 1040.21 13.86 C 1042.81 13.99 1045.42 13.86 1048.04 13.93 C 1048.06 22.64 1048.05 31.35 1048.05 40.07 C 1048.25 43.89 1048.72 48.50 1052.45 50.56 C 1055.92 52.63 1060.24 51.85 1064.13 51.99 C 1064.21 50.42 1064.22 48.86 1064.14 47.30 C 1061.52 47.09 1058.83 47.61 1056.28 46.79 C 1053.93 45.42 1053.63 42.48 1053.58 40.04 C 1053.54 29.87 1053.63 19.70 1053.53 9.53 C 1049.11 9.44 1044.69 9.50 1040.28 9.50 M 1238.67 9.64 C 1238.63 11.06 1238.65 12.48 1238.75 13.90 C 1241.35 14.07 1244.04 13.63 1246.63 14.12 C 1246.64 23.38 1246.49 32.65 1246.70 41.91 C 1246.69 45.64 1248.39 49.52 1251.89 51.21 C 1255.39 52.19 1259.06 52.13 1262.68 51.89 C 1262.67 50.36 1262.72 48.83 1262.64 47.31 C 1259.91 47.01 1256.96 47.80 1254.42 46.53 C 1251.75 44.61 1252.15 40.90 1252.09 38.01 C 1251.92 28.52 1252.44 18.87 1251.83 9.49 C 1247.44 9.60 1243.02 9.28 1238.67 9.64 M 685.71 9.82 C 685.61 12.00 685.70 14.19 685.67 16.37 C 687.35 16.76 689.11 16.44 690.84 16.55 C 691.60 14.52 690.96 12.01 691.14 9.81 C 689.32 9.73 687.50 9.74 685.71 9.82 M 949.98 11.88 C 947.33 14.36 947.92 18.19 947.23 21.35 C 944.65 21.39 942.08 21.28 939.51 21.40 C 939.42 22.83 939.42 24.26 939.52 25.69 C 942.06 25.83 944.61 25.67 947.16 25.76 L 947.53 26.34 C 947.52 34.89 947.44 43.44 947.57 51.98 C 949.36 52.00 951.18 52.02 952.99 51.99 C 953.03 43.24 952.99 34.49 953.01 25.75 C 956.43 25.66 959.87 25.89 963.28 25.64 C 963.33 24.25 963.32 22.86 963.29 21.47 C 959.88 21.17 956.42 21.46 953.00 21.34 C 953.07 19.08 952.59 15.80 955.17 14.71 C 957.80 13.95 960.57 14.47 963.28 14.26 C 963.34 12.73 963.34 11.21 963.28 9.68 C 958.84 9.83 953.66 8.77 949.98 11.88 M 1172.46 9.53 C 1172.38 10.99 1172.39 12.45 1172.51 13.90 C 1175.11 13.96 1177.72 13.85 1180.34 13.96 C 1180.42 23.20 1180.23 32.45 1180.43 41.68 C 1180.47 45.57 1182.14 49.85 1186.03 51.31 C 1189.40 52.09 1193.11 52.36 1196.45 51.71 C 1196.41 50.24 1196.44 48.78 1196.39 47.31 C 1193.71 47.06 1190.94 47.67 1188.38 46.71 C 1186.09 45.26 1185.92 42.38 1185.85 39.96 C 1185.83 29.82 1185.87 19.69 1185.83 9.56 C 1181.38 9.42 1176.91 9.48 1172.46 9.53 M 1380.15 12.08 C 1378.17 14.75 1377.97 18.13 1377.94 21.34 C 1375.34 21.38 1372.75 21.34 1370.17 21.35 C 1369.74 22.75 1369.85 24.30 1370.11 25.73 C 1372.71 25.78 1375.33 25.69 1377.96 25.77 C 1378.00 34.51 1377.93 43.25 1377.99 51.99 C 1379.78 52.02 1381.57 52.00 1383.40 51.99 C 1383.57 43.40 1383.43 34.79 1383.46 26.20 C 1386.53 25.07 1390.39 26.13 1393.77 25.69 C 1393.85 24.26 1393.87 22.82 1393.77 21.39 C 1390.36 21.25 1386.96 21.48 1383.58 21.28 C 1383.38 19.06 1383.18 15.65 1385.74 14.71 C 1388.33 13.91 1391.11 14.50 1393.80 14.25 C 1393.85 12.73 1393.85 11.21 1393.80 9.69 C 1389.20 9.77 1383.92 8.84 1380.15 12.08 M 1586.56 9.69 C 1586.52 14.48 1586.44 19.27 1586.61 24.06 C 1582.51 19.34 1574.20 19.47 1570.30 24.36 C 1567.06 28.88 1566.53 34.64 1566.94 40.04 C 1567.42 44.51 1569.25 49.37 1573.45 51.58 C 1577.74 53.63 1583.54 53.06 1586.63 49.15 C 1586.63 49.86 1586.61 51.27 1586.60 51.97 C 1588.38 52.02 1590.19 52.01 1592.01 51.99 C 1592.04 37.89 1592.04 23.80 1592.00 9.70 C 1590.18 9.60 1588.35 9.62 1586.56 9.69 M 505.09 11.35 C 504.84 13.01 504.99 14.70 504.99 16.37 C 509.17 16.56 513.35 16.30 517.53 16.50 C 517.72 28.32 517.46 40.16 517.66 51.98 C 519.59 51.78 521.81 52.45 523.60 51.68 C 523.54 39.99 523.58 28.31 523.58 16.63 C 527.70 16.13 531.93 16.63 536.09 16.39 C 535.96 14.73 536.50 12.90 535.87 11.33 C 525.61 11.35 515.35 11.31 505.09 11.35 M 1543.46 11.38 C 1539.40 24.89 1535.07 38.32 1531.18 51.88 C 1533.24 51.96 1535.44 52.28 1537.47 51.78 C 1538.37 48.35 1539.34 44.95 1540.29 41.54 C 1544.76 41.49 1549.25 41.51 1553.74 41.53 C 1554.93 44.96 1555.47 48.71 1556.93 52.00 C 1558.91 51.99 1560.92 52.06 1562.93 51.91 C 1559.05 38.34 1554.69 24.90 1550.66 11.38 C 1548.25 11.31 1545.84 11.29 1543.46 11.38 M 1672.80 11.38 C 1672.73 13.05 1672.64 14.73 1672.81 16.39 C 1676.13 16.48 1679.46 16.44 1682.80 16.40 C 1683.16 23.58 1682.85 30.82 1682.95 38.02 C 1682.93 41.36 1682.94 45.79 1679.28 47.29 C 1674.41 48.74 1669.53 46.33 1665.87 43.26 C 1665.40 45.53 1665.75 47.86 1665.66 50.16 C 1671.22 52.84 1678.26 53.83 1684.02 51.18 C 1688.68 48.69 1688.84 42.66 1689.00 38.03 C 1688.91 29.15 1689.16 20.25 1688.88 11.37 C 1683.51 11.31 1678.15 11.29 1672.80 11.38 M 1706.73 11.75 C 1699.59 14.37 1697.25 25.05 1702.77 30.26 C 1706.82 33.80 1712.61 33.48 1717.22 35.81 C 1721.51 37.87 1720.93 45.02 1716.58 46.68 C 1711.13 49.37 1705.17 46.49 1700.29 43.94 C 1700.21 46.08 1700.03 48.27 1700.33 50.39 C 1706.79 52.71 1714.33 53.96 1720.78 50.93 C 1726.05 47.81 1727.17 40.54 1724.87 35.24 C 1722.88 30.61 1717.56 29.17 1713.08 28.15 C 1710.43 27.41 1707.00 26.82 1705.88 23.94 C 1704.74 21.00 1706.47 17.46 1709.44 16.45 C 1714.27 14.18 1719.18 16.92 1723.61 18.78 C 1723.64 16.75 1723.90 14.65 1723.52 12.66 C 1718.18 10.83 1712.15 9.63 1706.73 11.75 M 1743.62 11.61 C 1743.76 20.30 1743.30 29.02 1744.20 37.69 C 1745.77 37.74 1747.36 37.71 1748.99 37.71 C 1750.00 28.99 1749.57 20.15 1749.58 11.38 C 1747.60 11.46 1745.46 10.97 1743.62 11.61 M 578.51 21.51 C 578.39 22.93 578.48 24.35 578.50 25.77 C 581.03 26.02 583.58 25.77 586.13 25.89 C 585.98 33.11 586.53 40.48 585.85 47.61 C 582.70 47.60 579.55 47.55 576.41 47.63 C 576.32 49.08 576.34 50.53 576.45 51.98 C 584.76 52.01 593.06 52.01 601.37 51.99 C 601.48 50.53 601.49 49.08 601.41 47.63 C 598.19 47.30 594.72 48.10 591.65 47.26 C 591.62 38.68 591.71 30.09 591.61 21.51 C 587.24 21.44 582.87 21.44 578.51 21.51 M 612.51 22.69 C 608.35 25.49 607.88 32.14 611.22 35.78 C 614.92 38.95 620.29 38.11 624.25 40.73 C 626.86 42.32 625.76 46.34 623.10 47.18 C 618.49 49.27 613.53 46.80 609.19 45.16 C 608.62 47.01 609.04 48.99 608.95 50.90 C 615.16 52.78 622.50 53.98 628.26 50.22 C 631.98 47.14 632.46 41.08 629.56 37.31 C 626.04 33.80 620.66 34.50 616.41 32.53 C 613.81 31.15 614.33 26.86 617.10 26.05 C 621.41 24.11 625.90 26.64 629.95 27.59 C 629.81 25.85 630.25 24.00 629.70 22.32 C 624.24 20.40 617.70 19.65 612.51 22.69 M 678.16 21.47 C 677.67 22.85 678.03 24.37 677.97 25.81 C 680.53 26.10 683.19 25.49 685.70 26.13 C 685.60 33.27 685.78 40.41 685.61 47.54 C 682.37 47.70 679.13 47.51 675.90 47.63 C 675.82 49.08 675.82 50.53 675.91 51.99 C 684.26 51.99 692.61 52.05 700.95 51.96 C 701.01 50.52 701.02 49.09 700.98 47.66 C 697.73 47.49 694.48 47.68 691.24 47.56 C 690.85 38.90 691.64 29.97 690.85 21.46 C 686.62 21.48 682.39 21.46 678.16 21.47 M 711.15 23.06 C 707.67 26.17 707.31 32.18 710.38 35.68 C 713.59 38.49 718.10 38.30 721.89 39.83 C 723.54 40.47 725.40 41.96 724.96 43.97 C 724.66 46.35 722.20 47.67 720.04 47.87 C 715.85 48.52 712.11 46.32 708.26 45.23 C 708.11 47.11 708.17 48.99 708.19 50.86 C 714.33 52.80 721.59 53.94 727.33 50.34 C 731.26 47.34 731.70 41.12 728.81 37.28 C 725.22 33.78 719.78 34.51 715.50 32.46 C 713.25 31.09 713.51 27.17 715.99 26.23 C 720.31 24.11 724.99 26.35 729.11 27.74 C 729.04 25.95 729.40 24.09 728.99 22.33 C 723.30 20.33 716.42 19.58 711.15 23.06 M 774.51 22.75 C 774.55 24.57 774.38 26.40 774.60 28.22 C 779.06 26.60 784.03 24.24 788.80 26.17 C 791.22 27.02 792.61 30.17 791.80 32.48 C 786.25 32.49 780.16 31.91 775.40 35.30 C 771.21 39.13 771.28 46.65 775.47 50.45 C 779.16 53.21 784.52 53.32 788.66 51.48 C 790.14 51.17 790.69 48.90 792.22 49.18 C 792.22 49.86 792.20 51.23 792.20 51.91 C 794.02 52.01 795.88 52.13 797.72 51.86 C 797.67 44.93 797.82 38.00 797.60 31.07 C 797.54 27.24 795.50 23.38 791.84 21.88 C 786.26 19.66 779.98 20.72 774.51 22.75 M 812.32 24.89 C 812.34 24.02 812.38 22.27 812.41 21.40 C 810.58 21.35 808.77 21.26 806.97 21.43 C 806.93 31.62 806.92 41.80 806.98 51.99 C 808.77 52.02 810.56 52.00 812.37 51.98 C 812.72 45.33 811.99 38.62 812.80 31.99 C 813.11 28.06 816.96 24.56 820.99 25.82 C 823.71 26.40 824.80 29.42 824.84 31.91 C 825.13 38.59 824.85 45.30 824.99 51.99 C 826.79 52.02 828.60 52.00 830.43 51.98 C 830.41 44.32 830.82 36.62 830.11 28.98 C 829.79 25.17 827.13 21.10 823.00 20.90 C 819.01 19.95 814.71 21.57 812.32 24.89 M 876.52 21.51 C 876.38 22.91 876.49 24.31 876.48 25.72 C 878.99 26.10 881.57 25.73 884.13 25.89 C 883.98 33.11 884.54 40.48 883.85 47.61 C 880.70 47.60 877.55 47.55 874.41 47.63 C 874.32 49.08 874.33 50.54 874.46 51.99 C 882.76 52.01 891.07 52.01 899.38 51.99 C 899.48 50.53 899.49 49.08 899.41 47.62 C 896.19 47.31 892.73 48.08 889.66 47.28 C 889.62 38.69 889.72 30.10 889.61 21.51 C 885.24 21.43 880.87 21.44 876.52 21.51 M 906.51 21.40 C 906.40 31.48 906.52 41.57 906.45 51.66 C 908.03 52.46 910.16 51.82 911.96 51.95 C 912.20 45.26 911.64 38.54 912.30 31.87 C 912.69 28.19 916.15 24.81 920.01 25.72 C 923.04 26.04 924.31 29.38 924.37 32.05 C 924.65 38.62 924.42 45.22 924.48 51.80 C 926.26 52.29 928.16 51.87 930.00 51.99 C 930.04 46.00 930.00 40.01 930.02 34.02 C 929.90 30.39 929.68 26.59 927.56 23.49 C 923.73 19.40 915.30 19.52 912.54 24.67 C 912.06 23.70 911.82 22.60 911.85 21.36 C 910.06 21.36 908.28 21.30 906.51 21.40 M 980.18 21.08 C 975.71 22.13 972.59 26.19 971.78 30.58 C 970.80 35.72 970.80 41.28 972.90 46.16 C 976.90 55.43 992.94 54.95 996.12 45.23 C 998.10 38.64 998.34 30.61 994.19 24.77 C 990.92 20.60 985.02 20.07 980.18 21.08 M 1071.54 28.68 C 1068.68 35.89 1069.42 45.97 1076.44 50.55 C 1082.30 54.05 1089.61 52.73 1095.71 50.60 C 1096.36 48.82 1095.87 46.78 1095.94 44.90 C 1091.10 46.72 1085.40 49.52 1080.41 46.70 C 1076.67 45.09 1075.79 40.58 1076.00 36.92 C 1083.09 36.88 1090.18 36.95 1097.27 36.89 C 1097.74 31.36 1095.81 25.15 1090.90 22.10 C 1084.12 18.63 1074.39 21.25 1071.54 28.68 M 1102.41 21.47 C 1105.67 31.73 1109.58 41.81 1113.10 51.99 C 1115.39 52.01 1117.68 52.01 1120.00 51.99 C 1123.56 41.82 1127.41 31.72 1130.71 21.47 C 1128.84 21.24 1126.96 21.38 1125.10 21.35 C 1121.97 29.32 1119.73 37.67 1116.37 45.54 C 1113.81 37.53 1110.89 29.64 1108.23 21.66 C 1106.49 20.95 1104.29 21.45 1102.41 21.47 M 1136.45 34.01 C 1135.73 40.00 1137.15 47.01 1142.56 50.48 C 1148.51 54.01 1156.22 52.96 1162.26 50.25 C 1162.17 48.46 1162.30 46.65 1162.14 44.86 C 1157.78 46.60 1153.18 48.82 1148.39 47.48 C 1143.81 46.35 1141.78 41.41 1142.21 37.04 C 1149.29 36.74 1156.40 37.01 1163.49 36.90 C 1163.95 32.18 1162.59 27.25 1159.33 23.76 C 1155.88 20.33 1150.45 20.07 1146.01 21.28 C 1140.42 22.77 1136.75 28.40 1136.45 34.01 M 1278.18 21.08 C 1273.70 22.13 1270.59 26.20 1269.78 30.58 C 1268.80 35.73 1268.80 41.30 1270.91 46.18 C 1274.95 55.46 1291.04 54.93 1294.14 45.15 C 1296.09 38.58 1296.32 30.58 1292.19 24.77 C 1288.92 20.60 1283.02 20.07 1278.18 21.08 M 1305.32 24.38 C 1300.77 31.07 1300.70 40.48 1304.65 47.45 C 1308.05 53.35 1317.73 53.93 1321.65 48.28 C 1321.35 51.92 1321.49 56.70 1317.63 58.53 C 1313.40 60.29 1309.17 58.03 1305.17 56.87 C 1305.19 58.68 1304.81 60.59 1305.30 62.36 C 1310.63 63.83 1316.84 64.82 1321.87 61.91 C 1326.15 59.20 1327.13 53.73 1327.03 49.04 C 1326.89 39.85 1327.28 30.60 1326.83 21.46 C 1325.02 21.56 1323.17 21.23 1321.42 21.67 C 1321.50 22.23 1321.65 23.36 1321.72 23.92 C 1317.37 19.62 1309.26 19.30 1305.32 24.38 M 1407.50 21.40 C 1407.40 31.55 1407.48 41.70 1407.46 51.85 C 1409.26 52.18 1411.11 51.96 1412.96 51.95 C 1413.22 45.66 1412.56 39.33 1413.44 33.08 C 1414.17 29.54 1417.01 26.15 1420.84 26.04 C 1423.87 25.26 1426.61 26.88 1429.18 28.23 C 1429.38 26.42 1429.20 24.59 1429.32 22.77 C 1424.48 19.02 1415.76 20.17 1413.00 26.08 C 1413.09 24.50 1413.04 22.93 1412.85 21.36 C 1411.05 21.36 1409.27 21.29 1407.50 21.40 M 1442.30 21.56 C 1437.27 23.42 1434.96 29.05 1434.78 34.07 C 1434.45 39.12 1434.76 44.71 1438.07 48.82 C 1441.63 53.08 1447.94 53.40 1452.93 51.97 C 1458.32 50.22 1460.68 44.27 1460.87 39.03 C 1461.23 33.46 1460.61 26.81 1455.93 23.06 C 1452.11 20.14 1446.69 20.11 1442.30 21.56 M 1467.15 21.35 C 1466.58 31.46 1467.00 41.79 1466.94 51.98 C 1468.58 52.00 1470.26 52.06 1471.95 51.91 C 1472.20 44.25 1471.68 36.56 1472.24 28.90 C 1472.22 26.89 1473.89 24.87 1476.08 25.46 C 1478.28 26.43 1478.06 29.08 1478.31 31.08 C 1478.50 37.96 1478.39 44.85 1478.38 51.74 C 1479.92 52.36 1481.72 51.83 1483.39 51.98 C 1483.58 44.99 1483.28 38.00 1483.55 31.01 C 1483.70 29.01 1483.74 26.36 1485.96 25.49 C 1487.93 24.88 1489.66 26.64 1489.64 28.57 C 1490.26 36.36 1489.75 44.19 1489.96 51.99 C 1491.62 52.01 1493.30 52.01 1495.00 51.99 C 1494.74 43.18 1495.74 34.26 1494.25 25.54 C 1493.64 20.09 1484.88 18.70 1482.69 23.68 C 1480.68 20.33 1474.44 19.03 1472.50 23.08 C 1472.28 22.64 1471.85 21.75 1471.64 21.31 C 1470.12 21.37 1468.62 21.34 1467.15 21.35 M 1602.63 21.35 C 1602.52 22.80 1602.54 24.26 1602.61 25.72 C 1607.93 25.96 1613.27 25.60 1618.60 25.90 C 1613.13 33.00 1607.31 39.85 1601.93 47.00 C 1601.86 48.66 1601.88 50.33 1601.95 51.99 C 1609.62 51.99 1617.29 52.05 1624.96 51.95 C 1624.91 50.44 1625.20 48.89 1624.82 47.41 C 1619.28 47.38 1613.75 47.46 1608.22 47.37 C 1613.66 40.42 1619.21 33.56 1624.74 26.68 C 1625.26 24.98 1624.97 23.08 1624.88 21.32 C 1617.46 21.30 1610.03 21.23 1602.63 21.35 M 1634.57 28.61 C 1631.67 35.82 1632.39 45.92 1639.41 50.53 C 1645.28 54.06 1652.60 52.72 1658.73 50.59 C 1659.32 48.79 1658.89 46.78 1658.94 44.91 C 1654.10 46.72 1648.44 49.50 1643.45 46.72 C 1639.68 45.11 1638.78 40.60 1639.00 36.93 C 1646.08 36.89 1653.17 36.94 1660.26 36.90 C 1660.77 31.17 1658.64 24.51 1653.23 21.77 C 1646.51 18.82 1637.36 21.47 1634.57 28.61 M 1742.87 44.64 C 1742.78 47.09 1742.77 49.54 1742.88 51.98 C 1745.23 52.02 1747.60 51.97 1749.98 52.02 C 1750.02 49.56 1749.94 47.10 1750.00 44.63 C 1747.61 44.63 1745.23 44.58 1742.87 44.64 Z" />
<path fill="#ffffff" opacity="1.00" d=" M 1546.78 18.54 C 1546.89 18.44 1547.11 18.23 1547.22 18.13 C 1548.60 24.34 1551.07 30.37 1551.97 36.64 C 1548.64 36.64 1545.32 36.64 1542.00 36.64 C 1543.12 30.53 1545.29 24.59 1546.78 18.54 Z" />
<path fill="#ffffff" opacity="1.00" d=" M 981.25 26.15 C 984.40 24.75 988.53 25.83 990.03 29.04 C 992.24 34.15 992.28 40.53 989.41 45.39 C 986.42 49.50 979.23 48.15 978.11 43.14 C 976.35 37.65 976.12 29.94 981.25 26.15 Z" />
<path fill="#ffffff" opacity="1.00" d=" M 1076.64 32.46 C 1076.38 29.10 1079.82 26.07 1083.04 25.62 C 1087.24 24.62 1091.44 28.27 1091.60 32.45 C 1086.61 32.50 1081.62 32.54 1076.64 32.46 Z" />
<path fill="#ffffff" opacity="1.00" d=" M 1146.51 26.64 C 1150.99 23.49 1157.82 27.02 1157.86 32.50 C 1152.90 32.44 1147.95 32.54 1143.00 32.48 C 1142.30 30.08 1144.68 27.89 1146.51 26.64 Z" />
<path fill="#ffffff" opacity="1.00" d=" M 1279.25 26.15 C 1283.21 24.26 1288.03 26.78 1288.83 31.05 C 1290.10 36.43 1290.35 43.80 1285.22 47.28 C 1281.20 49.15 1276.52 46.49 1275.75 42.24 C 1274.54 36.90 1274.28 29.71 1279.25 26.15 Z" />
<path fill="#ffffff" opacity="1.00" d=" M 1311.36 26.42 C 1314.37 24.51 1318.63 25.77 1320.01 29.05 C 1321.94 33.72 1321.94 39.31 1319.94 43.96 C 1318.57 47.15 1314.42 48.24 1311.48 46.51 C 1308.42 44.37 1307.80 40.41 1307.61 36.93 C 1307.66 33.19 1308.11 28.84 1311.36 26.42 Z" />
<path fill="#ffffff" opacity="1.00" d=" M 1444.42 26.37 C 1447.57 24.61 1452.00 25.71 1453.55 29.06 C 1455.66 33.84 1455.61 39.68 1453.49 44.46 C 1451.84 47.72 1447.39 48.85 1444.37 46.89 C 1441.16 44.71 1440.71 40.51 1440.49 36.96 C 1440.59 33.16 1441.08 28.76 1444.42 26.37 Z" />
<path fill="#ffffff" opacity="1.00" d=" M 1576.41 26.28 C 1580.30 24.06 1584.99 26.93 1585.73 31.09 C 1586.87 36.46 1587.21 43.71 1582.21 47.29 C 1578.53 49.07 1574.19 46.58 1573.45 42.69 C 1572.20 37.32 1571.77 30.20 1576.41 26.28 Z" />
<path fill="#ffffff" opacity="1.00" d=" M 1643.42 26.53 C 1647.90 23.55 1654.52 27.07 1654.60 32.45 C 1649.59 32.46 1644.58 32.60 1639.59 32.41 C 1639.32 29.94 1641.43 27.76 1643.42 26.53 Z" />
<path fill="#ffffff" opacity="1.00" d=" M 780.34 38.22 C 783.98 36.34 788.25 36.98 792.21 36.90 C 791.96 40.09 791.58 43.70 788.98 45.91 C 786.48 48.25 782.16 48.76 779.43 46.53 C 777.13 44.23 777.47 39.90 780.34 38.22 Z" />
</g>
<g id="#fafcffff">
<path fill="#fafcff" opacity="1.00" d=" M 5.01 5.01 C 33.10 4.94 61.20 5.08 89.29 5.02 C 87.88 5.56 86.47 6.13 85.08 6.71 C 86.11 6.84 87.14 7.00 88.17 7.18 C 87.79 9.37 88.02 11.57 88.15 13.70 C 87.10 13.97 86.08 14.33 85.03 14.60 C 86.12 14.87 87.23 15.03 88.30 15.36 C 87.68 17.45 88.11 19.53 88.09 21.68 C 86.94 22.39 85.67 22.90 84.45 23.46 C 81.68 23.09 78.88 24.13 77.06 26.26 C 77.36 22.06 71.76 24.62 69.15 24.12 C 69.02 33.39 69.08 42.67 69.12 51.94 C 71.69 52.07 74.28 52.05 76.86 51.97 C 77.05 46.32 76.77 40.65 77.00 35.00 C 77.01 32.49 78.85 29.25 81.80 30.08 C 83.62 30.90 83.89 33.15 83.94 34.91 C 84.05 40.61 83.91 46.30 84.00 52.00 C 84.75 52.00 86.24 52.02 86.99 52.03 C 87.61 52.48 88.15 53.01 88.60 53.63 C 87.38 53.85 86.24 54.35 85.05 54.62 C 86.12 54.80 87.19 54.99 88.25 55.20 C 87.86 57.44 87.87 59.56 88.18 61.81 C 87.17 62.15 86.13 62.34 85.11 62.61 C 86.35 62.91 87.60 63.16 88.84 63.50 C 88.34 63.86 87.34 64.57 86.84 64.93 C 59.56 64.96 32.29 65.03 5.01 64.99 C 4.99 45.00 4.99 25.00 5.01 5.01 M 38.95 14.99 C 38.88 17.30 38.87 19.61 38.95 21.92 C 41.32 22.01 43.70 21.90 46.07 21.97 C 46.09 29.64 46.09 37.32 46.07 44.99 C 43.70 45.08 41.33 44.96 38.96 45.05 C 38.86 47.36 38.88 49.67 38.95 51.98 C 46.35 52.02 53.75 52.03 61.15 51.99 C 61.25 49.67 61.27 47.35 61.14 45.04 C 58.76 44.89 56.38 45.10 54.00 45.00 C 53.99 37.32 53.92 29.64 54.03 21.97 C 56.40 21.91 58.76 22.00 61.13 21.94 C 61.28 19.62 61.24 17.29 61.15 14.97 C 53.75 14.95 46.35 14.95 38.95 14.99 Z" />
</g>
<g id="#ecf4feff">
<path fill="#ecf4fe" opacity="1.00" d=" M 89.29 5.02 C 119.98 5.00 150.69 4.94 181.38 5.14 C 179.26 5.76 177.10 6.19 174.92 6.50 C 176.10 6.69 177.28 6.92 178.45 7.17 C 178.16 7.74 177.87 8.31 177.58 8.88 C 178.73 9.11 179.88 9.32 181.03 9.52 C 179.01 9.74 176.98 10.03 174.97 10.32 C 176.13 10.82 177.45 10.79 178.58 11.40 C 178.26 12.05 177.92 12.69 177.55 13.31 C 175.82 13.54 174.08 13.38 172.34 13.42 C 167.99 19.41 164.96 26.57 164.66 34.04 C 163.99 42.85 167.23 51.51 172.26 58.63 C 174.25 58.69 176.24 58.66 178.24 58.62 C 178.17 59.41 177.76 60.14 177.76 60.94 C 178.85 61.16 179.96 61.35 181.07 61.51 C 179.02 61.81 176.97 62.07 174.92 62.38 C 176.20 62.70 177.49 63.00 178.76 63.35 C 178.14 63.89 177.50 64.41 176.85 64.92 C 146.85 64.94 116.84 65.11 86.84 64.93 C 87.34 64.57 88.34 63.86 88.84 63.50 C 87.60 63.16 86.35 62.91 85.11 62.61 C 86.13 62.34 87.17 62.15 88.18 61.81 C 87.87 59.56 87.86 57.44 88.25 55.20 C 87.19 54.99 86.12 54.80 85.05 54.62 C 86.24 54.35 87.38 53.85 88.60 53.63 C 88.15 53.01 87.61 52.48 86.99 52.03 C 88.57 52.01 90.14 52.01 91.72 51.93 C 91.59 44.62 92.19 37.26 91.29 29.99 C 90.86 26.49 88.04 23.58 84.45 23.46 C 85.67 22.90 86.94 22.39 88.09 21.68 C 88.11 19.53 87.68 17.45 88.30 15.36 C 87.23 15.03 86.12 14.87 85.03 14.60 C 86.08 14.33 87.10 13.97 88.15 13.70 C 88.02 11.57 87.79 9.37 88.17 7.18 C 87.14 7.00 86.11 6.84 85.08 6.71 C 86.47 6.13 87.88 5.56 89.29 5.02 M 109.35 14.39 C 105.80 16.14 105.91 20.61 105.82 24.00 C 103.61 24.09 101.40 23.90 99.20 24.11 C 99.10 26.10 99.13 28.09 99.17 30.07 C 101.38 30.24 103.59 30.07 105.80 30.18 C 105.97 37.44 105.74 44.72 105.91 51.98 C 108.48 51.92 111.07 52.17 113.62 51.86 C 113.71 44.62 113.49 37.38 113.73 30.16 C 116.48 30.10 119.23 30.24 121.98 30.09 C 122.00 28.08 122.04 26.07 121.95 24.06 C 119.17 23.95 116.39 24.08 113.62 24.00 C 113.53 22.66 113.71 21.36 114.15 20.12 C 116.54 19.03 119.24 19.75 121.78 19.55 C 122.22 17.56 122.07 15.42 121.84 13.40 C 117.68 13.50 113.34 12.93 109.35 14.39 M 137.52 23.67 C 132.45 24.43 128.65 29.01 127.94 33.94 C 127.32 38.60 127.38 43.80 130.20 47.78 C 135.07 54.88 147.56 54.37 151.63 46.67 C 154.21 41.37 154.21 34.71 151.60 29.41 C 148.97 24.41 142.80 22.54 137.52 23.67 Z" />
</g>
<g id="#e1edfdff">
<path fill="#e1edfd" opacity="1.00" d=" M 181.38 5.14 C 199.34 4.82 217.36 5.05 235.34 5.08 C 233.97 5.55 232.59 5.97 231.24 6.46 C 232.49 6.88 233.76 7.26 235.02 7.66 C 233.71 7.90 232.40 8.14 231.09 8.37 C 232.34 8.79 233.61 9.12 234.85 9.57 C 233.57 9.88 232.33 10.32 231.06 10.63 C 232.16 10.76 233.27 10.90 234.37 11.04 C 233.79 12.02 233.96 13.04 234.43 14.02 C 232.83 14.09 231.23 14.11 229.64 14.01 C 227.70 12.96 224.93 13.22 222.88 13.88 C 227.78 22.85 230.79 33.39 228.41 43.58 C 227.48 48.72 225.24 53.49 222.91 58.12 C 224.72 59.06 227.63 58.92 229.62 58.16 C 231.20 58.47 232.79 58.78 234.32 59.31 C 233.78 60.18 233.97 61.08 234.35 61.96 C 233.23 62.13 232.11 62.27 230.99 62.40 C 232.25 62.73 233.52 63.05 234.79 63.40 C 233.46 63.94 232.10 64.43 230.75 64.90 C 212.79 65.00 194.81 65.09 176.85 64.92 C 177.50 64.41 178.14 63.89 178.76 63.35 C 177.49 63.00 176.20 62.70 174.92 62.38 C 176.97 62.07 179.02 61.81 181.07 61.51 C 179.96 61.35 178.85 61.16 177.76 60.94 C 177.76 60.14 178.17 59.41 178.24 58.62 C 177.65 55.36 175.33 52.67 174.56 49.42 C 170.43 38.90 171.77 26.86 176.95 16.97 C 177.34 15.81 178.96 14.36 177.55 13.31 C 177.92 12.69 178.26 12.05 178.58 11.40 C 177.45 10.79 176.13 10.82 174.97 10.32 C 176.98 10.03 179.01 9.74 181.03 9.52 C 179.88 9.32 178.73 9.11 177.58 8.88 C 177.87 8.31 178.16 7.74 178.45 7.17 C 177.28 6.92 176.10 6.69 174.92 6.50 C 177.10 6.19 179.26 5.76 181.38 5.14 M 190.56 16.69 C 189.98 18.94 190.37 21.45 190.42 23.79 C 192.95 23.93 195.53 22.06 197.91 22.54 C 197.77 30.02 197.90 37.50 197.85 44.98 C 195.19 45.09 192.53 44.96 189.88 45.04 C 189.73 47.35 189.75 49.67 189.87 51.98 C 197.75 51.87 205.72 52.29 213.56 51.78 C 213.53 49.60 213.56 47.42 213.52 45.24 C 210.91 44.48 207.97 45.58 205.42 44.73 C 205.50 34.82 205.53 24.90 205.41 14.99 C 200.35 14.62 195.39 15.18 190.56 16.69 Z" />
</g>
<g id="#d6e7fdff">
<path fill="#d6e7fd" opacity="1.00" d=" M 235.34 5.08 C 261.98 4.92 288.66 4.97 315.31 5.13 C 314.13 5.44 312.94 5.71 311.79 6.11 C 311.87 7.02 311.89 7.93 311.80 8.84 C 312.86 9.07 313.92 9.28 315.00 9.49 C 313.82 9.72 312.66 10.06 311.45 10.16 C 311.64 10.45 312.01 11.02 312.20 11.31 C 312.05 11.62 311.77 12.26 311.62 12.58 C 312.66 13.29 313.90 12.96 314.94 13.65 C 313.78 13.75 312.64 13.90 311.52 14.12 C 311.68 14.44 312.00 15.08 312.16 15.40 C 311.99 15.88 311.79 16.35 311.56 16.80 C 312.66 17.06 313.78 17.29 314.90 17.51 C 313.83 17.75 312.78 18.02 311.73 18.32 C 312.00 19.15 312.04 19.96 311.70 20.78 C 312.81 21.04 313.92 21.37 315.05 21.57 C 313.90 21.73 312.76 21.93 311.63 22.16 C 312.10 23.05 312.12 23.98 311.69 24.89 C 312.80 25.09 313.92 25.27 315.05 25.43 C 314.01 25.69 312.95 25.84 311.96 26.21 C 311.71 27.10 311.68 28.01 311.81 28.92 C 312.85 29.10 313.90 29.26 314.96 29.40 C 313.83 29.62 312.74 29.95 311.65 30.25 C 311.85 30.75 312.06 31.25 312.29 31.74 C 312.05 32.03 311.57 32.60 311.33 32.88 C 312.57 33.05 313.81 33.23 315.05 33.43 C 313.98 33.63 312.92 33.89 311.88 34.21 C 311.98 35.11 311.93 36.02 311.73 36.91 C 312.82 37.11 313.92 37.29 315.03 37.44 C 313.87 37.66 312.72 37.87 311.59 38.15 C 311.72 38.46 311.99 39.07 312.12 39.38 C 311.93 39.84 311.76 40.30 311.59 40.77 C 312.75 41.10 313.93 41.32 315.10 41.62 C 313.89 41.76 312.69 41.92 311.49 42.10 C 311.93 42.88 312.17 43.70 311.79 44.56 C 312.76 45.12 313.96 45.20 315.00 45.65 C 313.89 45.79 312.80 45.95 311.71 46.15 C 312.02 47.04 312.01 47.95 311.73 48.84 C 312.80 49.01 313.86 49.17 314.93 49.33 C 313.85 49.94 312.58 50.00 311.40 50.23 C 311.63 50.53 312.08 51.14 312.31 51.44 C 312.04 51.90 311.75 52.35 311.45 52.79 C 312.62 52.98 313.80 53.17 314.98 53.36 C 313.92 53.59 312.87 53.88 311.84 54.21 C 311.90 55.09 311.87 55.97 311.75 56.84 C 312.83 57.04 313.92 57.20 315.02 57.33 C 313.95 57.58 312.91 57.94 311.88 58.27 C 311.72 59.10 311.71 59.96 311.97 60.77 C 312.97 61.14 314.02 61.41 315.06 61.65 C 313.90 61.79 312.75 61.94 311.61 62.12 C 312.39 63.15 312.50 64.59 310.90 64.92 C 284.18 64.94 257.46 65.14 230.75 64.90 C 232.10 64.43 233.46 63.94 234.79 63.40 C 233.52 63.05 232.25 62.73 230.99 62.40 C 232.11 62.27 233.23 62.13 234.35 61.96 C 233.97 61.08 233.78 60.18 234.32 59.31 C 232.79 58.78 231.20 58.47 229.62 58.16 C 234.26 50.63 237.71 41.87 236.60 32.87 C 236.18 26.03 233.11 19.78 229.64 14.01 C 231.23 14.11 232.83 14.09 234.43 14.02 C 233.96 13.04 233.79 12.02 234.37 11.04 C 233.27 10.90 232.16 10.76 231.06 10.63 C 232.33 10.32 233.57 9.88 234.85 9.57 C 233.61 9.12 232.34 8.79 231.09 8.37 C 232.40 8.14 233.71 7.90 235.02 7.66 C 233.76 7.26 232.49 6.88 231.24 6.46 C 232.59 5.97 233.97 5.55 235.34 5.08 Z" />
</g>
<g id="#cae1fcff">
<path fill="#cae1fc" opacity="1.00" d=" M 315.31 5.13 C 341.29 4.84 367.30 5.02 393.29 5.15 C 391.94 5.53 390.61 5.92 389.30 6.36 C 390.41 7.51 391.62 8.57 392.74 9.72 C 391.47 9.98 390.21 10.24 388.94 10.50 C 390.10 10.69 391.24 10.91 392.39 11.16 C 391.88 12.03 391.89 12.96 392.33 13.84 C 391.28 13.98 390.25 14.23 389.22 14.44 C 390.38 15.55 391.63 16.59 392.78 17.73 C 391.49 17.93 390.21 18.12 388.93 18.31 C 390.04 18.63 391.17 18.88 392.27 19.28 C 392.13 19.75 392.01 20.23 391.91 20.71 C 392.08 21.02 392.43 21.63 392.60 21.93 C 391.45 22.01 390.30 22.08 389.16 22.15 C 390.26 23.34 391.49 24.40 392.58 25.60 C 391.40 25.92 390.25 26.34 389.06 26.62 C 390.14 26.76 391.21 26.93 392.29 27.13 C 392.17 28.00 392.06 28.87 392.12 29.76 C 391.18 30.05 390.23 30.23 389.29 30.47 C 390.41 31.52 391.59 32.50 392.69 33.58 C 391.46 33.99 390.23 34.35 389.00 34.72 C 390.15 34.83 391.29 34.95 392.45 35.08 C 392.00 35.91 391.82 36.79 392.19 37.69 C 391.24 37.93 390.28 38.09 389.35 38.36 C 390.45 39.49 391.59 40.59 392.68 41.74 C 391.44 41.97 390.20 42.23 388.96 42.49 C 390.13 42.64 391.27 42.93 392.43 43.16 C 392.25 43.61 392.08 44.08 391.94 44.55 C 392.05 44.87 392.26 45.51 392.37 45.83 C 391.35 45.98 390.33 46.14 389.33 46.29 C 390.42 47.45 391.60 48.52 392.72 49.66 C 391.46 50.00 390.20 50.30 388.95 50.60 C 390.03 50.74 391.11 50.89 392.20 51.07 C 392.09 51.94 392.16 52.80 392.22 53.67 C 391.25 53.92 390.27 54.07 389.30 54.29 C 390.44 55.45 391.66 56.52 392.79 57.69 C 391.51 57.95 390.23 58.20 388.96 58.43 C 390.10 58.66 391.25 58.87 392.39 59.13 C 392.28 59.45 392.05 60.08 391.93 60.39 C 392.03 60.69 392.23 61.30 392.33 61.60 C 391.40 61.87 390.43 62.01 389.51 62.28 C 390.04 63.16 390.62 64.01 391.21 64.87 C 364.44 64.97 337.66 65.12 310.90 64.92 C 312.50 64.59 312.39 63.15 311.61 62.12 C 312.75 61.94 313.90 61.79 315.06 61.65 C 314.02 61.41 312.97 61.14 311.97 60.77 C 311.71 59.96 311.72 59.10 311.88 58.27 C 312.91 57.94 313.95 57.58 315.02 57.33 C 313.92 57.20 312.83 57.04 311.75 56.84 C 311.87 55.97 311.90 55.09 311.84 54.21 C 312.87 53.88 313.92 53.59 314.98 53.36 C 313.80 53.17 312.62 52.98 311.45 52.79 C 311.75 52.35 312.04 51.90 312.31 51.44 C 312.08 51.14 311.63 50.53 311.40 50.23 C 312.58 50.00 313.85 49.94 314.93 49.33 C 313.86 49.17 312.80 49.01 311.73 48.84 C 312.01 47.95 312.02 47.04 311.71 46.15 C 312.80 45.95 313.89 45.79 315.00 45.65 C 313.96 45.20 312.76 45.12 311.79 44.56 C 312.17 43.70 311.93 42.88 311.49 42.10 C 312.69 41.92 313.89 41.76 315.10 41.62 C 313.93 41.32 312.75 41.10 311.59 40.77 C 311.76 40.30 311.93 39.84 312.12 39.38 C 311.99 39.07 311.72 38.46 311.59 38.15 C 312.72 37.87 313.87 37.66 315.03 37.44 C 313.92 37.29 312.82 37.11 311.73 36.91 C 311.93 36.02 311.98 35.11 311.88 34.21 C 312.92 33.89 313.98 33.63 315.05 33.43 C 313.81 33.23 312.57 33.05 311.33 32.88 C 311.57 32.60 312.05 32.03 312.29 31.74 C 312.06 31.25 311.85 30.75 311.65 30.25 C 312.74 29.95 313.83 29.62 314.96 29.40 C 313.90 29.26 312.85 29.10 311.81 28.92 C 311.68 28.01 311.71 27.10 311.96 26.21 C 312.95 25.84 314.01 25.69 315.05 25.43 C 313.92 25.27 312.80 25.09 311.69 24.89 C 312.12 23.98 312.10 23.05 311.63 22.16 C 312.76 21.93 313.90 21.73 315.05 21.57 C 313.92 21.37 312.81 21.04 311.70 20.78 C 312.04 19.96 312.00 19.15 311.73 18.32 C 312.78 18.02 313.83 17.75 314.90 17.51 C 313.78 17.29 312.66 17.06 311.56 16.80 C 311.79 16.35 311.99 15.88 312.16 15.40 C 312.00 15.08 311.68 14.44 311.52 14.12 C 312.64 13.90 313.78 13.75 314.94 13.65 C 313.90 12.96 312.66 13.29 311.62 12.58 C 311.77 12.26 312.05 11.62 312.20 11.31 C 312.01 11.02 311.64 10.45 311.45 10.16 C 312.66 10.06 313.82 9.72 315.00 9.49 C 313.92 9.28 312.86 9.07 311.80 8.84 C 311.89 7.93 311.87 7.02 311.79 6.11 C 312.94 5.71 314.13 5.44 315.31 5.13 Z" />
</g>
<g id="#bedafcff">
<path fill="#bedafc" opacity="1.00" d=" M 393.29 5.15 C 403.48 4.74 413.72 5.11 423.93 4.99 C 430.83 5.18 437.95 4.32 444.65 6.42 C 454.34 9.19 462.23 17.39 464.79 27.12 C 467.77 37.71 464.37 49.83 456.06 57.11 C 450.22 62.69 441.99 65.15 434.02 64.98 C 419.75 64.91 405.47 65.23 391.21 64.87 C 390.62 64.01 390.04 63.16 389.51 62.28 C 390.43 62.01 391.40 61.87 392.33 61.60 C 392.23 61.30 392.03 60.69 391.93 60.39 C 392.05 60.08 392.28 59.45 392.39 59.13 C 391.25 58.87 390.10 58.66 388.96 58.43 C 390.23 58.20 391.51 57.95 392.79 57.69 C 391.66 56.52 390.44 55.45 389.30 54.29 C 390.27 54.07 391.25 53.92 392.22 53.67 C 392.16 52.80 392.09 51.94 392.20 51.07 C 391.11 50.89 390.03 50.74 388.95 50.60 C 390.20 50.30 391.46 50.00 392.72 49.66 C 391.60 48.52 390.42 47.45 389.33 46.29 C 390.33 46.14 391.35 45.98 392.37 45.83 C 392.26 45.51 392.05 44.87 391.94 44.55 C 392.08 44.08 392.25 43.61 392.43 43.16 C 391.27 42.93 390.13 42.64 388.96 42.49 C 390.20 42.23 391.44 41.97 392.68 41.74 C 391.59 40.59 390.45 39.49 389.35 38.36 C 390.28 38.09 391.24 37.93 392.19 37.69 C 391.82 36.79 392.00 35.91 392.45 35.08 C 391.29 34.95 390.15 34.83 389.00 34.72 C 390.23 34.35 391.46 33.99 392.69 33.58 C 391.59 32.50 390.41 31.52 389.29 30.47 C 390.23 30.23 391.18 30.05 392.12 29.76 C 392.06 28.87 392.17 28.00 392.29 27.13 C 391.21 26.93 390.14 26.76 389.06 26.62 C 390.25 26.34 391.40 25.92 392.58 25.60 C 391.49 24.40 390.26 23.34 389.16 22.15 C 390.30 22.08 391.45 22.01 392.60 21.93 C 392.43 21.63 392.08 21.02 391.91 20.71 C 392.01 20.23 392.13 19.75 392.27 19.28 C 391.17 18.88 390.04 18.63 388.93 18.31 C 390.21 18.12 391.49 17.93 392.78 17.73 C 391.63 16.59 390.38 15.55 389.22 14.44 C 390.25 14.23 391.28 13.98 392.33 13.84 C 391.89 12.96 391.88 12.03 392.39 11.16 C 391.24 10.91 390.10 10.69 388.94 10.50 C 390.21 10.24 391.47 9.98 392.74 9.72 C 391.62 8.57 390.41 7.51 389.30 6.36 C 390.61 5.92 391.94 5.53 393.29 5.15 Z" />
</g>
<g id="#323941ff">
<path fill="#323941" opacity="1.00" d=" M 542.30 9.68 C 544.07 9.62 545.85 9.61 547.64 9.69 C 547.75 14.72 547.71 19.77 547.65 24.81 C 550.60 20.55 556.75 19.59 561.19 21.79 C 565.11 24.03 565.51 28.92 565.71 32.98 C 565.77 39.29 565.76 45.61 565.72 51.93 C 563.90 52.05 562.07 52.04 560.26 51.94 C 560.01 44.59 560.65 37.20 559.86 29.88 C 559.23 25.72 553.80 24.28 550.80 26.91 C 548.25 28.76 547.93 32.13 547.72 35.02 C 547.64 40.65 547.75 46.28 547.67 51.91 C 545.86 52.08 544.05 52.02 542.25 51.94 C 542.22 37.85 542.11 23.75 542.30 9.68 Z" />
<path fill="#323941" opacity="1.00" d=" M 586.39 9.79 C 588.11 9.75 589.83 9.75 591.56 9.81 C 591.76 12.02 591.64 14.27 591.61 16.49 C 589.82 16.58 588.03 16.54 586.25 16.52 C 586.21 14.31 585.82 11.90 586.39 9.79 Z" />
<path fill="#323941" opacity="1.00" d=" M 884.17 10.02 C 885.83 9.42 887.82 9.91 889.61 9.82 C 889.67 12.04 889.68 14.27 889.61 16.49 C 887.80 16.57 886.00 16.56 884.21 16.49 C 884.07 14.34 884.15 12.18 884.17 10.02 Z" />
<path fill="#323941" opacity="1.00" d=" M 1040.28 9.50 C 1044.69 9.50 1049.11 9.44 1053.53 9.53 C 1053.63 19.70 1053.54 29.87 1053.58 40.04 C 1053.63 42.48 1053.93 45.42 1056.28 46.79 C 1058.83 47.61 1061.52 47.09 1064.14 47.30 C 1064.22 48.86 1064.21 50.42 1064.13 51.99 C 1060.24 51.85 1055.92 52.63 1052.45 50.56 C 1048.72 48.50 1048.25 43.89 1048.05 40.07 C 1048.05 31.35 1048.06 22.64 1048.04 13.93 C 1045.42 13.86 1042.81 13.99 1040.21 13.86 C 1040.16 12.41 1039.98 10.93 1040.28 9.50 Z" />
<path fill="#323941" opacity="1.00" d=" M 1238.67 9.64 C 1243.02 9.28 1247.44 9.60 1251.83 9.49 C 1252.44 18.87 1251.92 28.52 1252.09 38.01 C 1252.15 40.90 1251.75 44.61 1254.42 46.53 C 1256.96 47.80 1259.91 47.01 1262.64 47.31 C 1262.72 48.83 1262.67 50.36 1262.68 51.89 C 1259.06 52.13 1255.39 52.19 1251.89 51.21 C 1248.39 49.52 1246.69 45.64 1246.70 41.91 C 1246.49 32.65 1246.64 23.38 1246.63 14.12 C 1244.04 13.63 1241.35 14.07 1238.75 13.90 C 1238.65 12.48 1238.63 11.06 1238.67 9.64 Z" />
<path fill="#323941" opacity="1.00" d=" M 685.71 9.82 C 687.50 9.74 689.32 9.73 691.14 9.81 C 690.96 12.01 691.60 14.52 690.84 16.55 C 689.11 16.44 687.35 16.76 685.67 16.37 C 685.70 14.19 685.61 12.00 685.71 9.82 Z" />
<path fill="#323941" opacity="1.00" d=" M 949.98 11.88 C 953.66 8.77 958.84 9.83 963.28 9.68 C 963.34 11.21 963.34 12.73 963.28 14.26 C 960.57 14.47 957.80 13.95 955.17 14.71 C 952.59 15.80 953.07 19.08 953.00 21.34 C 956.42 21.46 959.88 21.17 963.29 21.47 C 963.32 22.86 963.33 24.25 963.28 25.64 C 959.87 25.89 956.43 25.66 953.01 25.75 C 952.99 34.49 953.03 43.24 952.99 51.99 C 951.18 52.02 949.36 52.00 947.57 51.98 C 947.44 43.44 947.52 34.89 947.53 26.34 L 947.16 25.76 C 944.61 25.67 942.06 25.83 939.52 25.69 C 939.42 24.26 939.42 22.83 939.51 21.40 C 942.08 21.28 944.65 21.39 947.23 21.35 C 947.92 18.19 947.33 14.36 949.98 11.88 Z" />
<path fill="#323941" opacity="1.00" d=" M 1172.46 9.53 C 1176.91 9.48 1181.38 9.42 1185.83 9.56 C 1185.87 19.69 1185.83 29.82 1185.85 39.96 C 1185.92 42.38 1186.09 45.26 1188.38 46.71 C 1190.94 47.67 1193.71 47.06 1196.39 47.31 C 1196.44 48.78 1196.41 50.24 1196.45 51.71 C 1193.11 52.36 1189.40 52.09 1186.03 51.31 C 1182.14 49.85 1180.47 45.57 1180.43 41.68 C 1180.23 32.45 1180.42 23.20 1180.34 13.96 C 1177.72 13.85 1175.11 13.96 1172.51 13.90 C 1172.39 12.45 1172.38 10.99 1172.46 9.53 Z" />
<path fill="#323941" opacity="1.00" d=" M 1380.15 12.08 C 1383.92 8.84 1389.20 9.77 1393.80 9.69 C 1393.85 11.21 1393.85 12.73 1393.80 14.25 C 1391.11 14.50 1388.33 13.91 1385.74 14.71 C 1383.18 15.65 1383.38 19.06 1383.58 21.28 C 1386.96 21.48 1390.36 21.25 1393.77 21.39 C 1393.87 22.82 1393.85 24.26 1393.77 25.69 C 1390.39 26.13 1386.53 25.07 1383.46 26.20 C 1383.43 34.79 1383.57 43.40 1383.40 51.99 C 1381.57 52.00 1379.78 52.02 1377.99 51.99 C 1377.93 43.25 1378.00 34.51 1377.96 25.77 C 1375.33 25.69 1372.71 25.78 1370.11 25.73 C 1369.85 24.30 1369.74 22.75 1370.17 21.35 C 1372.75 21.34 1375.34 21.38 1377.94 21.34 C 1377.97 18.13 1378.17 14.75 1380.15 12.08 Z" />
<path fill="#323941" opacity="1.00" d=" M 1586.56 9.69 C 1588.35 9.62 1590.18 9.60 1592.00 9.70 C 1592.04 23.80 1592.04 37.89 1592.01 51.99 C 1590.19 52.01 1588.38 52.02 1586.60 51.97 C 1586.61 51.27 1586.63 49.86 1586.63 49.15 C 1583.54 53.06 1577.74 53.63 1573.45 51.58 C 1569.25 49.37 1567.42 44.51 1566.94 40.04 C 1566.53 34.64 1567.06 28.88 1570.30 24.36 C 1574.20 19.47 1582.51 19.34 1586.61 24.06 C 1586.44 19.27 1586.52 14.48 1586.56 9.69 M 1576.41 26.28 C 1571.77 30.20 1572.20 37.32 1573.45 42.69 C 1574.19 46.58 1578.53 49.07 1582.21 47.29 C 1587.21 43.71 1586.87 36.46 1585.73 31.09 C 1584.99 26.93 1580.30 24.06 1576.41 26.28 Z" />
<path fill="#323941" opacity="1.00" d=" M 505.09 11.35 C 515.35 11.31 525.61 11.35 535.87 11.33 C 536.50 12.90 535.96 14.73 536.09 16.39 C 531.93 16.63 527.70 16.13 523.58 16.63 C 523.58 28.31 523.54 39.99 523.60 51.68 C 521.81 52.45 519.59 51.78 517.66 51.98 C 517.46 40.16 517.72 28.32 517.53 16.50 C 513.35 16.30 509.17 16.56 504.99 16.37 C 504.99 14.70 504.84 13.01 505.09 11.35 Z" />
<path fill="#323941" opacity="1.00" d=" M 1543.46 11.38 C 1545.84 11.29 1548.25 11.31 1550.66 11.38 C 1554.69 24.90 1559.05 38.34 1562.93 51.91 C 1560.92 52.06 1558.91 51.99 1556.93 52.00 C 1555.47 48.71 1554.93 44.96 1553.74 41.53 C 1549.25 41.51 1544.76 41.49 1540.29 41.54 C 1539.34 44.95 1538.37 48.35 1537.47 51.78 C 1535.44 52.28 1533.24 51.96 1531.18 51.88 C 1535.07 38.32 1539.40 24.89 1543.46 11.38 M 1546.78 18.54 C 1545.29 24.59 1543.12 30.53 1542.00 36.64 C 1545.32 36.64 1548.64 36.64 1551.97 36.64 C 1551.07 30.37 1548.60 24.34 1547.22 18.13 C 1547.11 18.23 1546.89 18.44 1546.78 18.54 Z" />
<path fill="#323941" opacity="1.00" d=" M 1672.80 11.38 C 1678.15 11.29 1683.51 11.31 1688.88 11.37 C 1689.16 20.25 1688.91 29.15 1689.00 38.03 C 1688.84 42.66 1688.68 48.69 1684.02 51.18 C 1678.26 53.83 1671.22 52.84 1665.66 50.16 C 1665.75 47.86 1665.40 45.53 1665.87 43.26 C 1669.53 46.33 1674.41 48.74 1679.28 47.29 C 1682.94 45.79 1682.93 41.36 1682.95 38.02 C 1682.85 30.82 1683.16 23.58 1682.80 16.40 C 1679.46 16.44 1676.13 16.48 1672.81 16.39 C 1672.64 14.73 1672.73 13.05 1672.80 11.38 Z" />
<path fill="#323941" opacity="1.00" d=" M 1706.73 11.75 C 1712.15 9.63 1718.18 10.83 1723.52 12.66 C 1723.90 14.65 1723.64 16.75 1723.61 18.78 C 1719.18 16.92 1714.27 14.18 1709.44 16.45 C 1706.47 17.46 1704.74 21.00 1705.88 23.94 C 1707.00 26.82 1710.43 27.41 1713.08 28.15 C 1717.56 29.17 1722.88 30.61 1724.87 35.24 C 1727.17 40.54 1726.05 47.81 1720.78 50.93 C 1714.33 53.96 1706.79 52.71 1700.33 50.39 C 1700.03 48.27 1700.21 46.08 1700.29 43.94 C 1705.17 46.49 1711.13 49.37 1716.58 46.68 C 1720.93 45.02 1721.51 37.87 1717.22 35.81 C 1712.61 33.48 1706.82 33.80 1702.77 30.26 C 1697.25 25.05 1699.59 14.37 1706.73 11.75 Z" />
<path fill="#323941" opacity="1.00" d=" M 1743.62 11.61 C 1745.46 10.97 1747.60 11.46 1749.58 11.38 C 1749.57 20.15 1750.00 28.99 1748.99 37.71 C 1747.36 37.71 1745.77 37.74 1744.20 37.69 C 1743.30 29.02 1743.76 20.30 1743.62 11.61 Z" />
<path fill="#323941" opacity="1.00" d=" M 578.51 21.51 C 582.87 21.44 587.24 21.44 591.61 21.51 C 591.71 30.09 591.62 38.68 591.65 47.26 C 594.72 48.10 598.19 47.30 601.41 47.63 C 601.49 49.08 601.48 50.53 601.37 51.99 C 593.06 52.01 584.76 52.01 576.45 51.98 C 576.34 50.53 576.32 49.08 576.41 47.63 C 579.55 47.55 582.70 47.60 585.85 47.61 C 586.53 40.48 585.98 33.11 586.13 25.89 C 583.58 25.77 581.03 26.02 578.50 25.77 C 578.48 24.35 578.39 22.93 578.51 21.51 Z" />
<path fill="#323941" opacity="1.00" d=" M 612.51 22.69 C 617.70 19.65 624.24 20.40 629.70 22.32 C 630.25 24.00 629.81 25.85 629.95 27.59 C 625.90 26.64 621.41 24.11 617.10 26.05 C 614.33 26.86 613.81 31.15 616.41 32.53 C 620.66 34.50 626.04 33.80 629.56 37.31 C 632.46 41.08 631.98 47.14 628.26 50.22 C 622.50 53.98 615.16 52.78 608.95 50.90 C 609.04 48.99 608.62 47.01 609.19 45.16 C 613.53 46.80 618.49 49.27 623.10 47.18 C 625.76 46.34 626.86 42.32 624.25 40.73 C 620.29 38.11 614.92 38.95 611.22 35.78 C 607.88 32.14 608.35 25.49 612.51 22.69 Z" />
<path fill="#323941" opacity="1.00" d=" M 678.16 21.47 C 682.39 21.46 686.62 21.48 690.85 21.46 C 691.64 29.97 690.85 38.90 691.24 47.56 C 694.48 47.68 697.73 47.49 700.98 47.66 C 701.02 49.09 701.01 50.52 700.95 51.96 C 692.61 52.05 684.26 51.99 675.91 51.99 C 675.82 50.53 675.82 49.08 675.90 47.63 C 679.13 47.51 682.37 47.70 685.61 47.54 C 685.78 40.41 685.60 33.27 685.70 26.13 C 683.19 25.49 680.53 26.10 677.97 25.81 C 678.03 24.37 677.67 22.85 678.16 21.47 Z" />
<path fill="#323941" opacity="1.00" d=" M 711.15 23.06 C 716.42 19.58 723.30 20.33 728.99 22.33 C 729.40 24.09 729.04 25.95 729.11 27.74 C 724.99 26.35 720.31 24.11 715.99 26.23 C 713.51 27.17 713.25 31.09 715.50 32.46 C 719.78 34.51 725.22 33.78 728.81 37.28 C 731.70 41.12 731.26 47.34 727.33 50.34 C 721.59 53.94 714.33 52.80 708.19 50.86 C 708.17 48.99 708.11 47.11 708.26 45.23 C 712.11 46.32 715.85 48.52 720.04 47.87 C 722.20 47.67 724.66 46.35 724.96 43.97 C 725.40 41.96 723.54 40.47 721.89 39.83 C 718.10 38.30 713.59 38.49 710.38 35.68 C 707.31 32.18 707.67 26.17 711.15 23.06 Z" />
<path fill="#323941" opacity="1.00" d=" M 774.51 22.75 C 779.98 20.72 786.26 19.66 791.84 21.88 C 795.50 23.38 797.54 27.24 797.60 31.07 C 797.82 38.00 797.67 44.93 797.72 51.86 C 795.88 52.13 794.02 52.01 792.20 51.91 C 792.20 51.23 792.22 49.86 792.22 49.18 C 790.69 48.90 790.14 51.17 788.66 51.48 C 784.52 53.32 779.16 53.21 775.47 50.45 C 771.28 46.65 771.21 39.13 775.40 35.30 C 780.16 31.91 786.25 32.49 791.80 32.48 C 792.61 30.17 791.22 27.02 788.80 26.17 C 784.03 24.24 779.06 26.60 774.60 28.22 C 774.38 26.40 774.55 24.57 774.51 22.75 M 780.34 38.22 C 777.47 39.90 777.13 44.23 779.43 46.53 C 782.16 48.76 786.48 48.25 788.98 45.91 C 791.58 43.70 791.96 40.09 792.21 36.90 C 788.25 36.98 783.98 36.34 780.34 38.22 Z" />
<path fill="#323941" opacity="1.00" d=" M 812.32 24.89 C 814.71 21.57 819.01 19.95 823.00 20.90 C 827.13 21.10 829.79 25.17 830.11 28.98 C 830.82 36.62 830.41 44.32 830.43 51.98 C 828.60 52.00 826.79 52.02 824.99 51.99 C 824.85 45.30 825.13 38.59 824.84 31.91 C 824.80 29.42 823.71 26.40 820.99 25.82 C 816.96 24.56 813.11 28.06 812.80 31.99 C 811.99 38.62 812.72 45.33 812.37 51.98 C 810.56 52.00 808.77 52.02 806.98 51.99 C 806.92 41.80 806.93 31.62 806.97 21.43 C 808.77 21.26 810.58 21.35 812.41 21.40 C 812.38 22.27 812.34 24.02 812.32 24.89 Z" />
<path fill="#323941" opacity="1.00" d=" M 876.52 21.51 C 880.87 21.44 885.24 21.43 889.61 21.51 C 889.72 30.10 889.62 38.69 889.66 47.28 C 892.73 48.08 896.19 47.31 899.41 47.62 C 899.49 49.08 899.48 50.53 899.38 51.99 C 891.07 52.01 882.76 52.01 874.46 51.99 C 874.33 50.54 874.32 49.08 874.41 47.63 C 877.55 47.55 880.70 47.60 883.85 47.61 C 884.54 40.48 883.98 33.11 884.13 25.89 C 881.57 25.73 878.99 26.10 876.48 25.72 C 876.49 24.31 876.38 22.91 876.52 21.51 Z" />
<path fill="#323941" opacity="1.00" d=" M 906.51 21.40 C 908.28 21.30 910.06 21.36 911.85 21.36 C 911.82 22.60 912.06 23.70 912.54 24.67 C 915.30 19.52 923.73 19.40 927.56 23.49 C 929.68 26.59 929.90 30.39 930.02 34.02 C 930.00 40.01 930.04 46.00 930.00 51.99 C 928.16 51.87 926.26 52.29 924.48 51.80 C 924.42 45.22 924.65 38.62 924.37 32.05 C 924.31 29.38 923.04 26.04 920.01 25.72 C 916.15 24.81 912.69 28.19 912.30 31.87 C 911.64 38.54 912.20 45.26 911.96 51.95 C 910.16 51.82 908.03 52.46 906.45 51.66 C 906.52 41.57 906.40 31.48 906.51 21.40 Z" />
<path fill="#323941" opacity="1.00" d=" M 980.18 21.08 C 985.02 20.07 990.92 20.60 994.19 24.77 C 998.34 30.61 998.10 38.64 996.12 45.23 C 992.94 54.95 976.90 55.43 972.90 46.16 C 970.80 41.28 970.80 35.72 971.78 30.58 C 972.59 26.19 975.71 22.13 980.18 21.08 M 981.25 26.15 C 976.12 29.94 976.35 37.65 978.11 43.14 C 979.23 48.15 986.42 49.50 989.41 45.39 C 992.28 40.53 992.24 34.15 990.03 29.04 C 988.53 25.83 984.40 24.75 981.25 26.15 Z" />
<path fill="#323941" opacity="1.00" d=" M 1071.54 28.68 C 1074.39 21.25 1084.12 18.63 1090.90 22.10 C 1095.81 25.15 1097.74 31.36 1097.27 36.89 C 1090.18 36.95 1083.09 36.88 1076.00 36.92 C 1075.79 40.58 1076.67 45.09 1080.41 46.70 C 1085.40 49.52 1091.10 46.72 1095.94 44.90 C 1095.87 46.78 1096.36 48.82 1095.71 50.60 C 1089.61 52.73 1082.30 54.05 1076.44 50.55 C 1069.42 45.97 1068.68 35.89 1071.54 28.68 M 1076.64 32.46 C 1081.62 32.54 1086.61 32.50 1091.60 32.45 C 1091.44 28.27 1087.24 24.62 1083.04 25.62 C 1079.82 26.07 1076.38 29.10 1076.64 32.46 Z" />
<path fill="#323941" opacity="1.00" d=" M 1102.41 21.47 C 1104.29 21.45 1106.49 20.95 1108.23 21.66 C 1110.89 29.64 1113.81 37.53 1116.37 45.54 C 1119.73 37.67 1121.97 29.32 1125.10 21.35 C 1126.96 21.38 1128.84 21.24 1130.71 21.47 C 1127.41 31.72 1123.56 41.82 1120.00 51.99 C 1117.68 52.01 1115.39 52.01 1113.10 51.99 C 1109.58 41.81 1105.67 31.73 1102.41 21.47 Z" />
<path fill="#323941" opacity="1.00" d=" M 1136.45 34.01 C 1136.75 28.40 1140.42 22.77 1146.01 21.28 C 1150.45 20.07 1155.88 20.33 1159.33 23.76 C 1162.59 27.25 1163.95 32.18 1163.49 36.90 C 1156.40 37.01 1149.29 36.74 1142.21 37.04 C 1141.78 41.41 1143.81 46.35 1148.39 47.48 C 1153.18 48.82 1157.78 46.60 1162.14 44.86 C 1162.30 46.65 1162.17 48.46 1162.26 50.25 C 1156.22 52.96 1148.51 54.01 1142.56 50.48 C 1137.15 47.01 1135.73 40.00 1136.45 34.01 M 1146.51 26.64 C 1144.68 27.89 1142.30 30.08 1143.00 32.48 C 1147.95 32.54 1152.90 32.44 1157.86 32.50 C 1157.82 27.02 1150.99 23.49 1146.51 26.64 Z" />
<path fill="#323941" opacity="1.00" d=" M 1278.18 21.08 C 1283.02 20.07 1288.92 20.60 1292.19 24.77 C 1296.32 30.58 1296.09 38.58 1294.14 45.15 C 1291.04 54.93 1274.95 55.46 1270.91 46.18 C 1268.80 41.30 1268.80 35.73 1269.78 30.58 C 1270.59 26.20 1273.70 22.13 1278.18 21.08 M 1279.25 26.15 C 1274.28 29.71 1274.54 36.90 1275.75 42.24 C 1276.52 46.49 1281.20 49.15 1285.22 47.28 C 1290.35 43.80 1290.10 36.43 1288.83 31.05 C 1288.03 26.78 1283.21 24.26 1279.25 26.15 Z" />
<path fill="#323941" opacity="1.00" d=" M 1305.32 24.38 C 1309.26 19.30 1317.37 19.62 1321.72 23.92 C 1321.65 23.36 1321.50 22.23 1321.42 21.67 C 1323.17 21.23 1325.02 21.56 1326.83 21.46 C 1327.28 30.60 1326.89 39.85 1327.03 49.04 C 1327.13 53.73 1326.15 59.20 1321.87 61.91 C 1316.84 64.82 1310.63 63.83 1305.30 62.36 C 1304.81 60.59 1305.19 58.68 1305.17 56.87 C 1309.17 58.03 1313.40 60.29 1317.63 58.53 C 1321.49 56.70 1321.35 51.92 1321.65 48.28 C 1317.73 53.93 1308.05 53.35 1304.65 47.45 C 1300.70 40.48 1300.77 31.07 1305.32 24.38 M 1311.36 26.42 C 1308.11 28.84 1307.66 33.19 1307.61 36.93 C 1307.80 40.41 1308.42 44.37 1311.48 46.51 C 1314.42 48.24 1318.57 47.15 1319.94 43.96 C 1321.94 39.31 1321.94 33.72 1320.01 29.05 C 1318.63 25.77 1314.37 24.51 1311.36 26.42 Z" />
<path fill="#323941" opacity="1.00" d=" M 1407.50 21.40 C 1409.27 21.29 1411.05 21.36 1412.85 21.36 C 1413.04 22.93 1413.09 24.50 1413.00 26.08 C 1415.76 20.17 1424.48 19.02 1429.32 22.77 C 1429.20 24.59 1429.38 26.42 1429.18 28.23 C 1426.61 26.88 1423.87 25.26 1420.84 26.04 C 1417.01 26.15 1414.17 29.54 1413.44 33.08 C 1412.56 39.33 1413.22 45.66 1412.96 51.95 C 1411.11 51.96 1409.26 52.18 1407.46 51.85 C 1407.48 41.70 1407.40 31.55 1407.50 21.40 Z" />
<path fill="#323941" opacity="1.00" d=" M 1442.30 21.56 C 1446.69 20.11 1452.11 20.14 1455.93 23.06 C 1460.61 26.81 1461.23 33.46 1460.87 39.03 C 1460.68 44.27 1458.32 50.22 1452.93 51.97 C 1447.94 53.40 1441.63 53.08 1438.07 48.82 C 1434.76 44.71 1434.45 39.12 1434.78 34.07 C 1434.96 29.05 1437.27 23.42 1442.30 21.56 M 1444.42 26.37 C 1441.08 28.76 1440.59 33.16 1440.49 36.96 C 1440.71 40.51 1441.16 44.71 1444.37 46.89 C 1447.39 48.85 1451.84 47.72 1453.49 44.46 C 1455.61 39.68 1455.66 33.84 1453.55 29.06 C 1452.00 25.71 1447.57 24.61 1444.42 26.37 Z" />
<path fill="#323941" opacity="1.00" d=" M 1467.15 21.35 C 1468.62 21.34 1470.12 21.37 1471.64 21.31 C 1471.85 21.75 1472.28 22.64 1472.50 23.08 C 1474.44 19.03 1480.68 20.33 1482.69 23.68 C 1484.88 18.70 1493.64 20.09 1494.25 25.54 C 1495.74 34.26 1494.74 43.18 1495.00 51.99 C 1493.30 52.01 1491.62 52.01 1489.96 51.99 C 1489.75 44.19 1490.26 36.36 1489.64 28.57 C 1489.66 26.64 1487.93 24.88 1485.96 25.49 C 1483.74 26.36 1483.70 29.01 1483.55 31.01 C 1483.28 38.00 1483.58 44.99 1483.39 51.98 C 1481.72 51.83 1479.92 52.36 1478.38 51.74 C 1478.39 44.85 1478.50 37.96 1478.31 31.08 C 1478.06 29.08 1478.28 26.43 1476.08 25.46 C 1473.89 24.87 1472.22 26.89 1472.24 28.90 C 1471.68 36.56 1472.20 44.25 1471.95 51.91 C 1470.26 52.06 1468.58 52.00 1466.94 51.98 C 1467.00 41.79 1466.58 31.46 1467.15 21.35 Z" />
<path fill="#323941" opacity="1.00" d=" M 1602.63 21.35 C 1610.03 21.23 1617.46 21.30 1624.88 21.32 C 1624.97 23.08 1625.26 24.98 1624.74 26.68 C 1619.21 33.56 1613.66 40.42 1608.22 47.37 C 1613.75 47.46 1619.28 47.38 1624.82 47.41 C 1625.20 48.89 1624.91 50.44 1624.96 51.95 C 1617.29 52.05 1609.62 51.99 1601.95 51.99 C 1601.88 50.33 1601.86 48.66 1601.93 47.00 C 1607.31 39.85 1613.13 33.00 1618.60 25.90 C 1613.27 25.60 1607.93 25.96 1602.61 25.72 C 1602.54 24.26 1602.52 22.80 1602.63 21.35 Z" />
<path fill="#323941" opacity="1.00" d=" M 1634.57 28.61 C 1637.36 21.47 1646.51 18.82 1653.23 21.77 C 1658.64 24.51 1660.77 31.17 1660.26 36.90 C 1653.17 36.94 1646.08 36.89 1639.00 36.93 C 1638.78 40.60 1639.68 45.11 1643.45 46.72 C 1648.44 49.50 1654.10 46.72 1658.94 44.91 C 1658.89 46.78 1659.32 48.79 1658.73 50.59 C 1652.60 52.72 1645.28 54.06 1639.41 50.53 C 1632.39 45.92 1631.67 35.82 1634.57 28.61 M 1643.42 26.53 C 1641.43 27.76 1639.32 29.94 1639.59 32.41 C 1644.58 32.60 1649.59 32.46 1654.60 32.45 C 1654.52 27.07 1647.90 23.55 1643.42 26.53 Z" />
<path fill="#323941" opacity="1.00" d=" M 1742.87 44.64 C 1745.23 44.58 1747.61 44.63 1750.00 44.63 C 1749.94 47.10 1750.02 49.56 1749.98 52.02 C 1747.60 51.97 1745.23 52.02 1742.88 51.98 C 1742.77 49.54 1742.78 47.09 1742.87 44.64 Z" />
</g>
<g id="#495463ff">
<path fill="#495463" opacity="1.00" d=" M 109.35 14.39 C 113.34 12.93 117.68 13.50 121.84 13.40 C 122.07 15.42 122.22 17.56 121.78 19.55 C 119.24 19.75 116.54 19.03 114.15 20.12 C 113.71 21.36 113.53 22.66 113.62 24.00 C 116.39 24.08 119.17 23.95 121.95 24.06 C 122.04 26.07 122.00 28.08 121.98 30.09 C 119.23 30.24 116.48 30.10 113.73 30.16 C 113.49 37.38 113.71 44.62 113.62 51.86 C 111.07 52.17 108.48 51.92 105.91 51.98 C 105.74 44.72 105.97 37.44 105.80 30.18 C 103.59 30.07 101.38 30.24 99.17 30.07 C 99.13 28.09 99.10 26.10 99.20 24.11 C 101.40 23.90 103.61 24.09 105.82 24.00 C 105.91 20.61 105.80 16.14 109.35 14.39 Z" />
<path fill="#495463" opacity="1.00" d=" M 172.34 13.42 C 174.08 13.38 175.82 13.54 177.55 13.31 C 178.96 14.36 177.34 15.81 176.95 16.97 C 171.77 26.86 170.43 38.90 174.56 49.42 C 175.33 52.67 177.65 55.36 178.24 58.62 C 176.24 58.66 174.25 58.69 172.26 58.63 C 167.23 51.51 163.99 42.85 164.66 34.04 C 164.96 26.57 167.99 19.41 172.34 13.42 Z" />
<path fill="#495463" opacity="1.00" d=" M 222.88 13.88 C 224.93 13.22 227.70 12.96 229.64 14.01 C 233.11 19.78 236.18 26.03 236.60 32.87 C 237.71 41.87 234.26 50.63 229.62 58.16 C 227.63 58.92 224.72 59.06 222.91 58.12 C 225.24 53.49 227.48 48.72 228.41 43.58 C 230.79 33.39 227.78 22.85 222.88 13.88 Z" />
<path fill="#495463" opacity="1.00" d=" M 38.95 14.99 C 46.35 14.95 53.75 14.95 61.15 14.97 C 61.24 17.29 61.28 19.62 61.13 21.94 C 58.76 22.00 56.40 21.91 54.03 21.97 C 53.92 29.64 53.99 37.32 54.00 45.00 C 56.38 45.10 58.76 44.89 61.14 45.04 C 61.27 47.35 61.25 49.67 61.15 51.99 C 53.75 52.03 46.35 52.02 38.95 51.98 C 38.88 49.67 38.86 47.36 38.96 45.05 C 41.33 44.96 43.70 45.08 46.07 44.99 C 46.09 37.32 46.09 29.64 46.07 21.97 C 43.70 21.90 41.32 22.01 38.95 21.92 C 38.87 19.61 38.88 17.30 38.95 14.99 Z" />
<path fill="#495463" opacity="1.00" d=" M 190.56 16.69 C 195.39 15.18 200.35 14.62 205.41 14.99 C 205.53 24.90 205.50 34.82 205.42 44.73 C 207.97 45.58 210.91 44.48 213.52 45.24 C 213.56 47.42 213.53 49.60 213.56 51.78 C 205.72 52.29 197.75 51.87 189.87 51.98 C 189.75 49.67 189.73 47.35 189.88 45.04 C 192.53 44.96 195.19 45.09 197.85 44.98 C 197.90 37.50 197.77 30.02 197.91 22.54 C 195.53 22.06 192.95 23.93 190.42 23.79 C 190.37 21.45 189.98 18.94 190.56 16.69 Z" />
<path fill="#495463" opacity="1.00" d=" M 77.06 26.26 C 78.88 24.13 81.68 23.09 84.45 23.46 C 88.04 23.58 90.86 26.49 91.29 29.99 C 92.19 37.26 91.59 44.62 91.72 51.93 C 90.14 52.01 88.57 52.01 86.99 52.03 C 86.24 52.02 84.75 52.00 84.00 52.00 C 83.91 46.30 84.05 40.61 83.94 34.91 C 83.89 33.15 83.62 30.90 81.80 30.08 C 78.85 29.25 77.01 32.49 77.00 35.00 C 76.77 40.65 77.05 46.32 76.86 51.97 C 74.28 52.05 71.69 52.07 69.12 51.94 C 69.08 42.67 69.02 33.39 69.15 24.12 C 71.76 24.62 77.36 22.06 77.06 26.26 Z" />
<path fill="#495463" opacity="1.00" d=" M 137.52 23.67 C 142.80 22.54 148.97 24.41 151.60 29.41 C 154.21 34.71 154.21 41.37 151.63 46.67 C 147.56 54.37 135.07 54.88 130.20 47.78 C 127.38 43.80 127.32 38.60 127.94 33.94 C 128.65 29.01 132.45 24.43 137.52 23.67 M 139.08 30.25 C 134.78 32.56 134.90 38.77 136.29 42.83 C 137.11 45.99 141.66 47.41 143.71 44.62 C 146.03 41.69 146.02 37.49 145.07 34.02 C 144.48 31.45 141.80 29.09 139.08 30.25 Z" />
</g>
<g id="#eaf3feff">
<path fill="#eaf3fe" opacity="1.00" d=" M 139.08 30.25 C 141.80 29.09 144.48 31.45 145.07 34.02 C 146.02 37.49 146.03 41.69 143.71 44.62 C 141.66 47.41 137.11 45.99 136.29 42.83 C 134.90 38.77 134.78 32.56 139.08 30.25 Z" />
</g>
</svg>
